{"glyphs":{"0":{"ha":817,"x_min":92,"x_max":725,"o":"m 407 60 q 582 124 519 60 q 644 304 644 189 l 644 696 q 583 886 644 818 q 410 954 521 954 q 235 884 297 954 q 172 696 172 814 l 172 310 q 233 126 172 192 q 407 60 294 60 m 408 -14 q 174 73 257 -14 q 92 310 92 160 l 92 696 q 115 831 92 769 q 179 935 138 892 q 279 1003 221 979 q 408 1028 338 1028 q 539 1003 481 1028 q 639 934 597 978 q 703 829 681 890 q 725 696 725 768 l 725 304 q 640 69 725 153 q 408 -14 556 -14 z "},"1":{"ha":446,"x_min":31,"x_max":294,"o":"m 214 0 l 214 939 l 31 939 l 31 1014 l 294 1014 l 294 0 l 214 0 z "},"2":{"ha":815,"x_min":88,"x_max":738,"o":"m 90 82 q 116 192 90 142 q 183 286 142 242 q 276 370 224 331 q 381 447 328 410 q 478 518 431 483 q 561 589 525 553 q 619 665 597 625 q 642 751 642 706 q 578 899 642 842 q 408 956 515 956 q 256 910 319 956 q 157 794 193 865 l 88 832 q 212 973 129 918 q 407 1028 294 1028 q 538 1006 479 1028 q 638 947 596 985 q 701 859 679 910 q 724 750 724 808 q 699 642 724 692 q 635 550 675 593 q 544 469 594 507 q 440 393 493 431 q 342 323 390 358 q 258 250 294 288 q 198 171 221 213 q 175 82 175 129 l 175 76 l 738 76 l 738 0 l 90 0 l 90 82 z "},"3":{"ha":796,"x_min":65,"x_max":718,"o":"m 386 -12 q 202 22 286 -12 q 65 124 118 57 l 129 176 q 238 90 172 122 q 386 58 303 58 q 490 75 443 58 q 569 121 536 92 q 619 190 601 150 q 638 278 638 231 q 617 367 638 328 q 562 433 597 406 q 478 474 526 460 q 376 489 431 489 l 282 489 l 282 565 l 376 565 q 549 618 483 565 q 614 760 614 671 q 549 903 614 850 q 375 956 485 956 q 240 922 300 956 q 146 843 179 889 l 81 889 q 200 986 125 944 q 378 1028 275 1028 q 510 1008 451 1028 q 610 952 569 988 q 672 867 650 917 q 693 760 693 818 q 651 617 693 676 q 531 528 608 558 q 667 436 617 499 q 718 278 718 374 q 694 160 718 214 q 628 69 671 107 q 524 9 585 31 q 386 -12 463 -12 z "},"4":{"ha":853,"x_min":65,"x_max":789,"o":"m 560 233 l 68 233 l 65 307 l 560 1014 l 640 1014 l 640 306 l 789 306 l 789 233 l 640 233 l 640 0 l 560 0 l 560 233 m 560 306 l 560 888 l 151 306 l 560 306 z "},"5":{"ha":849,"x_min":88,"x_max":775,"o":"m 428 -14 q 224 35 313 -14 q 88 174 135 85 l 163 219 q 267 104 200 147 q 428 61 333 61 q 532 80 483 61 q 617 133 581 99 q 674 217 653 168 q 694 325 694 265 q 671 441 694 392 q 610 523 647 490 q 524 572 572 556 q 428 589 476 589 q 267 544 332 589 q 165 425 201 500 l 88 451 l 169 1014 l 703 1014 l 703 939 l 236 939 l 181 554 q 283 633 222 603 q 428 663 344 663 q 556 642 493 663 q 667 581 618 622 q 745 475 715 539 q 775 325 775 411 q 749 188 775 250 q 677 81 724 126 q 567 11 631 36 q 428 -14 503 -14 z "},"6":{"ha":864,"x_min":71,"x_max":785,"o":"m 428 -14 q 286 13 351 -14 q 173 88 221 40 q 98 200 125 136 q 71 338 71 264 q 92 466 71 404 q 150 576 114 528 l 457 1014 l 554 1014 l 308 667 q 440 692 367 692 q 575 665 513 692 q 684 590 638 638 q 758 478 731 542 q 785 339 785 414 q 757 200 785 264 q 681 88 729 136 q 568 13 633 40 q 428 -14 503 -14 m 428 60 q 535 82 485 60 q 624 142 586 104 q 683 230 661 179 q 706 339 706 281 q 683 448 706 397 q 624 537 661 499 q 535 597 586 575 q 428 618 485 618 q 319 596 369 618 q 231 536 268 574 q 172 448 193 499 q 150 339 150 397 q 172 230 150 281 q 231 142 193 179 q 319 82 268 104 q 428 60 369 60 z "},"7":{"ha":742,"x_min":64,"x_max":683,"o":"m 599 938 l 64 938 l 64 1014 l 683 1014 l 683 944 l 232 0 l 146 0 l 599 938 z "},"8":{"ha":793,"x_min":75,"x_max":718,"o":"m 396 -14 q 261 9 321 -14 q 160 72 201 32 q 97 166 118 113 q 75 281 75 219 q 124 437 75 368 q 251 540 172 506 q 151 631 189 572 q 113 765 113 690 q 133 869 113 821 q 192 952 154 917 q 281 1008 229 988 q 396 1028 333 1028 q 510 1008 457 1028 q 601 952 563 988 q 660 869 639 917 q 682 765 682 821 q 642 632 682 690 q 540 542 603 574 q 669 438 619 508 q 718 281 718 368 q 697 166 718 219 q 633 72 675 113 q 532 9 592 32 q 396 -14 472 -14 m 396 60 q 497 77 453 60 q 574 124 542 94 q 622 194 606 154 q 639 281 639 235 q 622 365 639 325 q 574 436 606 406 q 498 485 543 467 q 396 503 453 503 q 295 485 340 503 q 219 436 250 467 q 171 365 188 406 q 154 281 154 325 q 171 194 154 235 q 219 124 188 154 q 295 77 250 94 q 396 60 340 60 m 396 574 q 482 589 443 574 q 548 630 521 604 q 590 691 575 656 q 606 765 606 726 q 591 840 606 806 q 549 901 576 875 q 483 942 522 928 q 396 957 444 957 q 310 942 349 957 q 245 901 272 928 q 203 840 218 875 q 189 765 189 806 q 203 691 189 726 q 245 630 218 656 q 310 589 272 604 q 396 574 349 574 z "},"9":{"ha":844,"x_min":71,"x_max":774,"o":"m 542 358 q 411 333 483 333 q 278 360 340 333 q 169 434 215 388 q 97 544 124 481 q 71 681 71 608 q 98 817 71 754 q 172 928 125 881 q 284 1001 219 975 q 422 1028 349 1028 q 560 1001 496 1028 q 672 927 625 974 q 747 817 719 881 q 774 682 774 754 q 754 562 774 619 q 703 458 735 504 l 392 0 l 296 0 l 542 358 m 422 408 q 528 430 479 408 q 615 488 578 451 q 673 574 651 525 q 694 681 694 624 q 673 787 694 738 q 615 874 651 836 q 528 933 578 911 q 422 954 479 954 q 317 933 367 954 q 231 874 268 911 q 172 787 193 836 q 150 681 150 738 q 172 574 150 624 q 231 488 193 525 q 317 430 268 451 q 422 408 367 408 z "},"\u0000":{"ha":0,"x_min":0,"x_max":0,"o":""}," ":{"ha":353,"x_min":0,"x_max":0,"o":""},"!":{"ha":336,"x_min":100,"x_max":236,"o":"m 147 211 q 141 322 144 256 q 135 465 138 389 q 131 619 132 540 q 129 768 129 699 l 129 1014 l 210 1014 l 210 768 q 208 619 210 699 q 205 465 207 540 q 199 322 203 389 q 193 211 196 256 l 147 211 m 100 54 q 119 102 100 83 q 168 121 139 121 q 218 102 200 121 q 236 54 236 83 q 218 6 236 25 q 168 -14 200 -14 q 118 6 136 -14 q 100 54 100 25 z "},"\"":{"ha":397,"x_min":89,"x_max":308,"o":"m 111 694 q 106 733 110 707 q 98 788 101 758 q 92 846 94 817 q 89 897 89 875 l 89 1014 l 160 1014 l 160 897 q 157 847 160 876 q 151 788 154 817 q 145 733 149 758 q 139 694 142 707 l 111 694 m 260 694 q 254 733 258 707 q 247 788 250 758 q 240 846 243 817 q 238 897 238 875 l 238 1014 l 308 1014 l 308 897 q 306 847 308 876 q 300 788 303 817 q 294 733 297 758 q 288 694 290 707 l 260 694 z "},"#":{"ha":1160,"x_min":67,"x_max":1093,"o":"m 729 283 l 428 283 l 428 0 l 347 0 l 347 283 l 67 283 l 67 360 l 347 360 l 347 665 l 67 665 l 67 742 l 347 742 l 347 1014 l 428 1014 l 428 742 l 729 742 l 729 1014 l 810 1014 l 810 742 l 1093 742 l 1093 665 l 810 665 l 810 360 l 1093 360 l 1093 283 l 810 283 l 810 0 l 729 0 l 729 283 m 428 360 l 729 360 l 729 665 l 428 665 l 428 360 z "},"$":{"ha":817,"x_min":56,"x_max":750,"o":"m 750 272 q 728 169 750 218 q 668 81 707 119 q 574 18 629 43 q 453 -12 519 -7 l 453 -167 l 374 -167 l 374 -12 q 188 37 265 -6 q 56 144 110 79 l 117 201 q 224 106 161 143 q 374 61 286 68 l 374 507 q 271 543 322 524 q 179 593 219 563 q 113 667 139 624 q 88 772 88 710 q 108 872 88 826 q 167 950 129 917 q 257 1003 204 983 q 374 1026 310 1022 l 374 1167 l 453 1167 l 453 1025 q 621 976 554 1017 q 732 878 688 936 l 668 829 q 583 912 635 878 q 453 956 532 946 l 453 558 q 559 521 506 542 q 655 467 613 500 q 724 388 697 435 q 750 272 750 342 m 668 271 q 650 350 668 317 q 602 408 632 383 q 533 449 572 432 q 453 481 494 467 l 453 61 q 608 128 549 72 q 668 271 668 185 m 169 772 q 186 703 169 732 q 231 651 203 674 q 297 613 260 629 q 374 583 333 597 l 374 957 q 226 901 283 950 q 169 772 169 851 z "},"%":{"ha":1192,"x_min":106,"x_max":1108,"o":"m 175 797 q 188 734 175 764 q 223 682 201 704 q 274 647 244 660 q 336 633 303 633 q 399 647 369 633 q 450 682 428 660 q 485 734 472 704 q 497 797 497 764 q 485 860 497 831 q 450 913 472 890 q 399 947 428 935 q 336 960 369 960 q 274 947 303 960 q 223 913 244 935 q 188 860 201 890 q 175 797 175 831 m 647 217 q 665 307 647 265 q 715 380 683 349 q 788 429 746 411 q 878 447 829 447 q 968 429 926 447 q 1041 380 1010 411 q 1090 307 1072 349 q 1108 217 1108 265 q 1090 127 1108 169 q 1041 53 1072 85 q 968 3 1010 21 q 878 -15 926 -15 q 788 3 829 -15 q 715 53 746 21 q 665 127 683 85 q 647 217 647 169 m 992 1014 l 1093 1014 l 222 0 l 121 0 l 992 1014 m 717 217 q 729 152 717 182 q 764 100 742 122 q 815 65 786 78 q 878 53 844 53 q 940 65 911 53 q 991 100 969 78 q 1026 152 1013 122 q 1039 217 1039 182 q 1026 280 1039 250 q 991 332 1013 310 q 940 367 969 354 q 878 379 911 379 q 815 367 844 379 q 764 332 786 354 q 729 280 742 310 q 717 217 717 250 m 106 797 q 124 888 106 846 q 173 960 142 929 q 247 1010 204 992 q 336 1028 289 1028 q 426 1010 385 1028 q 499 960 468 992 q 549 888 531 929 q 567 797 567 846 q 549 708 567 750 q 499 633 531 665 q 426 583 468 601 q 336 565 385 565 q 247 583 289 565 q 173 633 204 601 q 124 708 142 665 q 106 797 106 750 z "},"&":{"ha":1058,"x_min":69,"x_max":992,"o":"m 774 108 q 632 18 710 51 q 463 -15 554 -15 q 283 15 357 -15 q 161 93 208 46 q 92 199 114 140 q 69 314 69 258 q 124 499 69 419 q 267 624 178 578 q 218 707 235 665 q 201 800 201 749 q 218 887 201 846 q 267 959 235 928 q 347 1009 300 990 q 454 1028 394 1028 q 598 992 538 1028 q 690 906 658 956 l 625 863 q 557 930 600 901 q 454 958 514 958 q 382 946 414 958 q 328 911 350 933 q 294 860 306 889 q 282 800 282 832 q 292 740 282 768 q 324 681 303 711 q 376 618 344 651 q 451 540 408 585 l 779 213 q 872 363 838 281 q 914 526 907 446 l 715 526 l 715 601 l 992 601 l 992 569 q 949 360 992 469 q 828 163 907 251 l 992 0 l 883 0 l 774 108 m 463 56 q 605 83 539 56 q 724 157 671 111 l 388 493 q 313 568 346 533 q 192 465 235 528 q 150 314 150 401 q 168 225 150 271 q 224 142 186 179 q 322 80 263 104 q 463 56 381 56 z "},"'":{"ha":249,"x_min":89,"x_max":160,"o":"m 111 694 q 106 733 110 707 q 98 788 101 758 q 92 846 94 817 q 89 897 89 875 l 89 1014 l 160 1014 l 160 897 q 157 847 160 876 q 151 788 154 817 q 145 733 149 758 q 139 694 142 707 l 111 694 z "},"(":{"ha":582,"x_min":75,"x_max":510,"o":"m 456 -344 q 307 -220 376 -289 q 186 -67 238 -151 q 105 121 135 18 q 75 347 75 224 q 104 572 75 469 q 184 759 133 674 q 303 913 235 844 q 450 1038 372 982 l 506 976 q 366 860 429 924 q 257 718 303 796 q 186 548 211 640 q 161 347 161 456 q 187 145 161 238 q 259 -25 213 53 q 369 -167 306 -103 q 510 -282 433 -231 l 456 -344 z "},")":{"ha":582,"x_min":72,"x_max":507,"o":"m 421 347 q 396 548 421 456 q 325 717 371 640 q 216 859 279 794 q 76 975 153 924 l 132 1038 q 278 913 210 982 q 398 759 347 844 q 478 572 449 674 q 507 346 507 469 q 477 121 507 224 q 396 -67 447 18 q 275 -222 344 -153 q 126 -344 206 -290 l 72 -282 q 213 -167 149 -231 q 323 -25 276 -103 q 395 145 369 53 q 421 347 421 238 z "},"*":{"ha":608,"x_min":72,"x_max":533,"o":"m 322 739 l 342 522 l 267 522 l 286 739 l 108 614 l 72 678 l 268 769 l 72 863 l 108 925 l 286 799 l 267 1014 l 342 1014 l 322 801 l 497 924 l 533 860 l 336 769 l 533 679 l 496 615 l 322 739 z "},"+":{"ha":660,"x_min":74,"x_max":588,"o":"m 74 542 l 296 542 l 296 763 l 365 763 l 365 542 l 588 542 l 588 472 l 365 472 l 365 249 l 296 249 l 296 472 l 74 472 l 74 542 z "},",":{"ha":265,"x_min":44,"x_max":192,"o":"m 104 121 l 192 121 l 108 -162 l 44 -162 l 104 121 z "},"-":{"ha":660,"x_min":74,"x_max":588,"o":"m 74 385 l 588 385 l 588 314 l 74 314 l 74 385 z "},".":{"ha":265,"x_min":65,"x_max":201,"o":"m 65 54 q 85 102 65 83 q 133 121 104 121 q 183 102 165 121 q 201 54 201 83 q 183 6 201 25 q 133 -14 165 -14 q 83 6 101 -14 q 65 54 65 25 z "},"/":{"ha":643,"x_min":39,"x_max":606,"o":"m 519 1014 l 606 1014 l 125 0 l 39 0 l 519 1014 z "},":":{"ha":264,"x_min":65,"x_max":201,"o":"m 65 54 q 85 102 65 83 q 133 121 104 121 q 183 102 165 121 q 201 54 201 83 q 183 6 201 25 q 133 -14 165 -14 q 83 6 101 -14 q 65 54 65 25 m 65 635 q 85 683 65 664 q 133 701 104 701 q 183 683 165 701 q 201 635 201 664 q 183 586 201 606 q 133 567 165 567 q 83 586 101 567 q 65 635 65 606 z "},";":{"ha":265,"x_min":44,"x_max":201,"o":"m 104 121 l 192 121 l 108 -162 l 44 -162 l 104 121 m 65 635 q 85 683 65 664 q 133 701 104 701 q 183 683 165 701 q 201 635 201 664 q 183 586 201 606 q 133 567 165 567 q 83 586 101 567 q 65 635 65 606 z "},"<":{"ha":660,"x_min":74,"x_max":588,"o":"m 74 475 l 74 543 l 588 740 l 588 668 l 157 510 l 588 346 l 588 272 l 74 475 z "},"=":{"ha":660,"x_min":74,"x_max":588,"o":"m 74 651 l 588 651 l 588 582 l 74 582 l 74 651 m 74 426 l 588 426 l 588 358 l 74 358 l 74 426 z "},">":{"ha":660,"x_min":74,"x_max":588,"o":"m 74 346 l 504 510 l 74 668 l 74 740 l 588 543 l 588 475 l 74 272 l 74 346 z "},"?":{"ha":749,"x_min":78,"x_max":668,"o":"m 317 276 q 337 421 317 364 q 387 516 357 478 q 452 581 417 554 q 517 634 488 607 q 567 695 547 661 q 588 783 588 729 q 571 854 588 822 q 526 909 554 886 q 458 944 497 932 q 374 957 419 957 q 233 920 286 957 q 149 822 181 883 l 78 856 q 190 978 114 928 q 375 1028 265 1028 q 491 1010 438 1028 q 584 960 544 993 q 646 883 624 928 q 668 782 668 838 q 648 676 668 717 q 597 606 628 635 q 530 551 565 576 q 463 491 494 525 q 412 406 432 457 q 392 276 392 356 l 392 224 l 317 224 l 317 276 m 286 54 q 306 102 286 83 q 354 121 325 121 q 404 102 386 121 q 422 54 422 83 q 404 6 422 25 q 354 -14 386 -14 q 304 6 322 -14 q 286 54 286 25 z "},"@":{"ha":1189,"x_min":75,"x_max":1113,"o":"m 593 -174 q 390 -133 485 -174 q 226 -22 296 -92 q 115 144 156 49 q 75 347 75 239 q 117 550 75 456 q 233 715 160 644 q 401 827 306 786 q 606 868 497 868 q 810 829 717 868 q 970 726 903 790 q 1075 576 1038 661 q 1113 400 1113 492 q 1099 290 1113 343 q 1059 197 1086 238 q 992 133 1032 157 q 900 110 953 110 q 799 137 838 110 q 746 206 761 164 q 675 135 722 165 q 560 106 628 106 q 477 122 518 106 q 405 171 436 139 q 357 250 374 203 q 346 358 340 297 q 378 467 354 421 q 436 544 401 514 q 512 590 471 575 q 596 606 553 606 q 695 581 654 606 q 757 518 736 556 q 762 560 760 544 q 764 585 764 576 q 765 597 765 594 l 842 597 l 814 346 q 828 220 804 257 q 906 183 853 183 q 1003 244 968 183 q 1039 399 1039 306 q 1008 548 1039 476 q 919 675 976 619 q 781 763 861 731 q 604 796 701 796 q 429 760 511 796 q 286 664 347 725 q 190 522 225 603 q 154 347 154 440 q 188 173 154 254 q 281 31 222 92 q 420 -66 340 -31 q 593 -101 500 -101 q 772 -65 690 -101 q 915 35 853 -29 l 971 -14 q 806 -128 904 -83 q 593 -174 708 -174 m 575 178 q 641 192 613 178 q 690 232 669 207 q 724 290 711 257 q 739 358 736 322 q 737 426 743 394 q 714 483 731 458 q 671 522 697 507 q 608 536 644 536 q 490 489 542 536 q 429 358 438 442 q 433 288 424 321 q 461 231 442 256 q 510 192 481 207 q 575 178 539 178 z "},"A":{"ha":969,"x_min":51,"x_max":918,"o":"m 442 1014 l 528 1014 l 918 0 l 833 0 l 724 283 l 244 283 l 136 0 l 51 0 l 442 1014 m 274 360 l 694 360 l 485 907 l 274 360 z "},"B":{"ha":888,"x_min":104,"x_max":813,"o":"m 104 1014 l 492 1014 q 611 994 557 1014 q 705 940 665 975 q 766 858 744 906 q 788 751 788 810 q 751 615 788 675 q 644 526 714 556 q 768 433 724 497 q 813 279 813 368 q 790 165 813 217 q 728 77 768 114 q 633 20 688 40 q 511 0 578 0 l 104 0 l 104 1014 m 185 486 l 185 74 l 510 74 q 599 90 558 74 q 669 133 640 106 q 715 198 699 160 q 732 279 732 236 q 717 362 732 324 q 672 428 701 400 q 601 471 643 456 q 508 486 560 486 l 185 486 m 185 940 l 185 560 l 504 560 q 589 574 551 560 q 653 615 626 589 q 693 676 679 640 q 707 751 707 711 q 691 826 707 792 q 646 886 675 861 q 577 926 617 911 q 490 940 538 940 l 185 940 z "},"C":{"ha":1106,"x_min":74,"x_max":1056,"o":"m 594 -14 q 392 27 486 -14 q 226 139 297 68 q 115 304 156 210 q 74 507 74 399 q 115 710 74 615 q 226 875 156 804 q 392 987 297 946 q 594 1028 486 1028 q 731 1009 665 1028 q 855 957 797 990 q 960 876 913 924 q 1042 772 1007 829 l 972 732 q 817 892 915 831 q 594 953 718 953 q 422 917 501 953 q 283 822 342 882 q 190 680 224 761 q 156 507 156 599 q 190 335 156 415 q 283 194 224 254 q 422 98 342 133 q 594 63 501 63 q 830 127 729 63 q 985 296 931 192 l 1056 260 q 975 148 1022 199 q 869 61 928 97 q 740 6 810 25 q 594 -14 671 -14 z "},"D":{"ha":988,"x_min":104,"x_max":914,"o":"m 104 1014 l 389 1014 q 600 975 504 1014 q 766 868 696 936 q 875 708 836 800 q 914 507 914 615 q 874 306 914 399 q 763 145 833 213 q 598 39 693 78 q 392 0 503 0 l 104 0 l 104 1014 m 185 940 l 185 75 l 386 75 q 563 108 482 75 q 704 199 644 140 q 798 336 764 257 q 832 507 832 415 q 799 678 832 599 q 707 815 767 757 q 565 907 647 874 q 383 940 483 940 l 185 940 z "},"E":{"ha":810,"x_min":104,"x_max":725,"o":"m 104 1014 l 725 1014 l 725 938 l 185 938 l 185 546 l 725 546 l 725 471 l 185 471 l 185 76 l 725 76 l 725 0 l 104 0 l 104 1014 z "},"F":{"ha":760,"x_min":104,"x_max":678,"o":"m 104 1014 l 678 1014 l 678 938 l 185 938 l 185 546 l 678 546 l 678 469 l 185 469 l 185 0 l 104 0 l 104 1014 z "},"G":{"ha":1181,"x_min":74,"x_max":1110,"o":"m 597 -14 q 390 27 486 -14 q 224 139 294 68 q 114 304 154 210 q 74 507 74 399 q 114 710 74 615 q 225 875 154 804 q 392 987 296 946 q 603 1028 489 1028 q 866 959 750 1028 q 1050 772 982 890 l 981 732 q 827 893 925 833 q 603 953 729 953 q 422 917 504 953 q 281 822 340 882 q 188 680 221 761 q 156 507 156 599 q 188 335 156 415 q 280 194 221 254 q 420 98 339 133 q 597 63 501 63 q 769 92 693 63 q 900 175 844 122 q 988 299 956 228 q 1029 454 1021 371 l 590 454 l 590 529 l 1110 529 l 1110 508 q 1075 308 1110 403 q 974 141 1040 213 q 813 28 908 69 q 597 -14 718 -14 z "},"H":{"ha":956,"x_min":104,"x_max":851,"o":"m 771 471 l 185 471 l 185 0 l 104 0 l 104 1014 l 185 1014 l 185 547 l 771 547 l 771 1014 l 851 1014 l 851 0 l 771 0 l 771 471 z "},"I":{"ha":315,"x_min":118,"x_max":197,"o":"m 118 1014 l 197 1014 l 197 0 l 118 0 l 118 1014 z "},"J":{"ha":661,"x_min":51,"x_max":561,"o":"m 304 -14 q 148 25 213 -14 q 51 129 83 64 l 124 175 q 192 92 147 124 q 303 60 236 60 q 433 114 386 60 q 481 261 481 168 l 481 1014 l 561 1014 l 561 263 q 493 60 561 135 q 304 -14 425 -14 z "},"K":{"ha":901,"x_min":106,"x_max":864,"o":"m 404 551 l 185 300 l 185 0 l 106 0 l 106 1014 l 185 1014 l 185 407 l 715 1014 l 814 1014 l 461 607 l 864 0 l 771 0 l 404 551 z "},"L":{"ha":740,"x_min":104,"x_max":667,"o":"m 104 1014 l 185 1014 l 185 76 l 667 76 l 667 0 l 104 0 l 104 1014 z "},"M":{"ha":1203,"x_min":104,"x_max":1097,"o":"m 104 1014 l 183 1014 l 594 444 l 1021 1014 l 1097 1014 l 1097 0 l 1018 0 l 1018 886 l 593 313 l 185 874 l 185 0 l 104 0 l 104 1014 z "},"N":{"ha":1031,"x_min":104,"x_max":926,"o":"m 104 1014 l 193 1014 l 846 125 l 846 1014 l 926 1014 l 926 0 l 840 0 l 185 893 l 185 0 l 104 0 l 104 1014 z "},"O":{"ha":1188,"x_min":74,"x_max":1115,"o":"m 594 -14 q 392 27 486 -14 q 226 139 297 68 q 115 304 156 210 q 74 507 74 399 q 115 710 74 615 q 226 875 156 804 q 392 987 297 946 q 594 1028 486 1028 q 797 987 703 1028 q 963 875 892 946 q 1074 710 1033 804 q 1115 507 1115 615 q 1074 304 1115 399 q 963 139 1033 210 q 797 27 892 68 q 594 -14 703 -14 m 594 63 q 767 98 688 63 q 906 194 847 133 q 999 335 965 254 q 1032 507 1032 415 q 999 680 1032 599 q 906 822 965 761 q 767 917 847 882 q 594 951 688 951 q 422 917 501 951 q 283 822 342 882 q 190 680 224 761 q 156 507 156 599 q 190 335 156 415 q 283 194 224 254 q 422 98 342 133 q 594 63 501 63 z "},"P":{"ha":857,"x_min":104,"x_max":782,"o":"m 104 1014 l 411 1014 q 563 988 494 1014 q 681 915 632 961 q 756 806 729 869 q 782 669 782 743 q 756 533 782 596 q 681 423 729 469 q 563 350 632 376 q 411 324 494 324 l 185 324 l 185 0 l 104 0 l 104 1014 m 185 940 l 185 399 l 407 399 q 529 419 475 399 q 622 477 583 440 q 680 563 660 514 q 700 669 700 613 q 680 777 700 728 q 622 863 660 826 q 529 920 583 900 q 407 940 475 940 l 185 940 z "},"Q":{"ha":1189,"x_min":74,"x_max":1115,"o":"m 626 418 l 726 418 l 910 203 q 1000 340 967 263 q 1033 507 1033 417 q 999 680 1033 599 q 906 822 965 761 q 767 917 847 882 q 594 951 688 951 q 422 917 501 951 q 283 822 342 882 q 190 680 224 761 q 156 507 156 599 q 190 335 156 415 q 283 194 224 254 q 422 98 342 133 q 594 63 501 63 q 703 76 653 63 q 799 115 753 90 l 849 56 q 728 4 792 22 q 594 -14 665 -14 q 392 27 486 -14 q 226 139 297 68 q 115 304 156 210 q 74 507 74 399 q 115 710 74 615 q 226 875 156 804 q 392 987 297 946 q 594 1028 486 1028 q 797 987 703 1028 q 963 875 892 946 q 1074 710 1033 804 q 1115 507 1115 615 q 1074 306 1115 399 q 961 142 1032 214 l 1083 0 l 981 0 l 626 418 z "},"R":{"ha":828,"x_min":104,"x_max":760,"o":"m 458 378 l 185 378 l 185 0 l 104 0 l 104 1014 l 421 1014 q 553 989 492 1014 q 659 921 614 964 q 729 820 704 878 q 754 697 754 763 q 738 600 754 647 q 693 514 722 553 q 623 445 664 475 q 532 400 582 415 l 760 0 l 669 0 l 458 378 m 185 940 l 185 451 l 414 451 q 519 472 472 451 q 601 526 567 492 q 655 606 636 561 q 674 697 674 650 q 655 793 674 749 q 602 870 636 838 q 520 922 568 903 q 415 940 472 940 l 185 940 z "},"S":{"ha":774,"x_min":42,"x_max":703,"o":"m 379 -14 q 183 31 267 -14 q 42 153 99 76 l 108 204 q 225 97 157 133 q 379 60 293 60 q 475 75 431 60 q 552 118 519 90 q 603 185 585 146 q 622 274 622 225 q 601 360 622 325 q 543 421 579 396 q 460 463 507 446 q 364 497 414 481 q 260 535 311 514 q 169 586 210 556 q 104 661 129 617 q 79 771 79 706 q 103 874 79 826 q 167 955 126 921 q 262 1008 207 989 q 381 1028 317 1028 q 556 990 483 1028 q 679 889 629 953 l 617 840 q 519 927 576 897 q 381 957 461 957 q 294 943 335 957 q 224 905 254 929 q 178 847 194 881 q 161 771 161 813 q 182 689 161 722 q 238 633 203 656 q 319 593 274 610 q 414 560 365 576 q 519 521 467 542 q 612 467 571 500 q 678 388 653 435 q 703 274 703 342 q 679 162 703 214 q 613 71 656 110 q 510 9 569 32 q 379 -14 450 -14 z "},"T":{"ha":847,"x_min":67,"x_max":781,"o":"m 383 940 l 67 940 l 67 1014 l 781 1014 l 781 940 l 464 940 l 464 0 l 383 0 l 383 940 z "},"U":{"ha":890,"x_min":100,"x_max":790,"o":"m 444 -14 q 308 13 371 -14 q 199 85 244 39 q 126 195 153 132 q 100 331 100 258 l 100 1014 l 181 1014 l 181 326 q 201 224 181 272 q 256 140 221 175 q 340 83 292 104 q 444 63 389 63 q 549 83 500 63 q 633 140 597 104 q 689 224 668 176 q 710 328 710 272 l 710 1014 l 790 1014 l 790 331 q 764 195 790 258 q 691 85 738 132 q 581 13 644 39 q 444 -14 518 -14 z "},"V":{"ha":946,"x_min":51,"x_max":894,"o":"m 51 1014 l 135 1014 l 472 113 l 810 1014 l 894 1014 l 513 0 l 432 0 l 51 1014 z "},"W":{"ha":1489,"x_min":58,"x_max":1432,"o":"m 58 1014 l 143 1014 l 401 124 l 704 1014 l 781 1014 l 1081 124 l 1349 1014 l 1432 1014 l 1122 0 l 1040 0 l 740 889 l 439 0 l 357 0 l 58 1014 z "},"X":{"ha":906,"x_min":50,"x_max":856,"o":"m 453 460 l 140 0 l 50 0 l 407 524 l 76 1014 l 168 1014 l 454 590 l 740 1014 l 831 1014 l 501 528 l 856 0 l 765 0 l 453 460 z "},"Y":{"ha":850,"x_min":46,"x_max":804,"o":"m 386 482 l 46 1014 l 136 1014 l 425 558 l 714 1014 l 804 1014 l 467 485 l 467 0 l 386 0 l 386 482 z "},"Z":{"ha":833,"x_min":81,"x_max":754,"o":"m 81 74 l 657 938 l 103 938 l 103 1014 l 751 1014 l 751 940 l 175 76 l 754 76 l 754 0 l 81 0 l 81 74 z "},"[":{"ha":525,"x_min":74,"x_max":453,"o":"m 74 1014 l 453 1014 l 453 939 l 154 939 l 154 -244 l 453 -244 l 453 -319 l 74 -319 l 74 1014 z "},"\\":{"ha":643,"x_min":39,"x_max":606,"o":"m 39 1014 l 125 1014 l 606 0 l 519 0 l 39 1014 z "},"]":{"ha":525,"x_min":74,"x_max":453,"o":"m 74 -246 l 372 -246 l 372 939 l 74 939 l 74 1014 l 453 1014 l 453 -319 l 74 -319 l 74 -246 z "},"^":{"ha":697,"x_min":146,"x_max":553,"o":"m 317 949 l 378 949 l 553 717 l 469 717 l 347 879 l 229 717 l 146 717 l 317 949 z "},"_":{"ha":753,"x_min":74,"x_max":681,"o":"m 74 -14 l 681 -14 l 681 -83 l 74 -83 l 74 -14 z "},"`":{"ha":697,"x_min":204,"x_max":474,"o":"m 204 1000 l 307 1000 l 474 785 l 399 785 l 204 1000 z "},"a":{"ha":1038,"x_min":82,"x_max":919,"o":"m 501 -17 q 335 17 413 -17 q 202 108 258 50 q 114 242 146 165 q 82 406 82 318 q 114 570 82 493 q 202 705 146 647 q 335 796 258 763 q 501 829 413 829 q 602 816 551 829 q 698 776 653 803 q 781 712 743 750 q 842 625 818 674 l 842 813 l 919 813 l 919 0 l 842 0 l 842 186 q 781 99 818 138 q 698 35 743 61 q 602 -3 653 10 q 501 -17 551 -17 m 504 57 q 640 84 578 57 q 750 158 703 111 q 824 269 797 206 q 850 406 850 333 q 824 542 850 478 q 750 653 797 606 q 640 728 703 700 q 504 756 578 756 q 371 728 433 756 q 262 653 308 701 q 189 542 215 606 q 163 406 163 479 q 189 269 163 333 q 262 158 215 206 q 371 84 308 111 q 504 57 433 57 z "},"b":{"ha":1036,"x_min":119,"x_max":956,"o":"m 536 -17 q 435 -3 486 -17 q 340 35 385 10 q 257 99 294 61 q 196 183 219 136 l 196 0 l 119 0 l 119 1028 l 197 1028 l 197 631 q 258 715 221 678 q 341 777 296 751 q 436 816 386 803 q 536 829 486 829 q 702 796 625 829 q 835 705 779 763 q 924 570 892 647 q 956 406 956 493 q 923 242 956 318 q 834 108 890 165 q 701 17 778 50 q 536 -17 625 -17 m 533 57 q 667 84 604 57 q 775 158 729 111 q 847 269 821 206 q 874 406 874 333 q 847 542 874 479 q 775 653 821 606 q 667 728 729 701 q 533 756 604 756 q 397 728 460 756 q 287 653 333 700 q 214 542 240 606 q 188 406 188 478 q 214 269 188 333 q 287 158 240 206 q 397 84 333 111 q 533 57 460 57 z "},"c":{"ha":968,"x_min":82,"x_max":894,"o":"m 507 -17 q 339 17 417 -17 q 204 107 261 50 q 115 241 147 164 q 82 406 82 318 q 115 573 82 496 q 206 707 149 650 q 340 797 263 764 q 506 829 417 829 q 632 811 572 829 q 742 760 692 793 q 830 681 792 726 q 890 579 868 635 l 817 549 q 695 700 776 644 q 506 756 614 756 q 370 728 433 756 q 261 653 307 701 q 189 542 215 606 q 163 406 163 479 q 189 269 163 333 q 262 158 215 206 q 372 84 308 111 q 508 57 435 57 q 701 117 621 57 q 819 271 781 176 l 894 239 q 833 136 871 183 q 747 55 796 89 q 637 2 697 21 q 507 -17 576 -17 z "},"d":{"ha":1038,"x_min":82,"x_max":918,"o":"m 501 -17 q 335 17 413 -17 q 202 108 258 50 q 114 242 146 165 q 82 406 82 318 q 114 570 82 493 q 202 705 146 647 q 335 796 258 763 q 501 829 413 829 q 601 816 551 829 q 696 777 651 803 q 778 715 740 751 q 840 629 815 678 l 840 1028 l 918 1028 l 918 0 l 842 0 l 842 186 q 781 99 818 138 q 698 35 743 61 q 602 -3 653 10 q 501 -17 551 -17 m 504 57 q 640 84 578 57 q 750 158 703 111 q 824 269 797 206 q 850 406 850 333 q 824 542 850 478 q 750 653 797 606 q 640 728 703 700 q 504 756 578 756 q 371 728 433 756 q 262 653 308 701 q 189 542 215 606 q 163 406 163 479 q 189 269 163 333 q 262 158 215 206 q 371 84 308 111 q 504 57 433 57 z "},"e":{"ha":1003,"x_min":82,"x_max":918,"o":"m 508 -17 q 331 16 410 -17 q 197 105 251 49 q 112 238 142 161 q 82 403 82 314 q 114 571 82 493 q 202 706 146 649 q 336 796 258 763 q 504 829 414 829 q 669 799 593 829 q 800 713 744 768 q 887 581 856 657 q 918 415 918 506 l 918 379 l 158 379 q 189 250 163 310 q 261 147 215 190 q 369 80 307 104 q 508 56 432 56 q 707 113 626 56 q 828 272 788 171 l 899 239 q 749 50 844 117 q 508 -17 653 -17 m 504 757 q 378 733 436 757 q 274 669 319 710 q 199 574 229 629 q 161 453 169 518 l 838 453 q 805 576 832 519 q 735 672 778 632 q 633 735 692 713 q 504 757 575 757 z "},"f":{"ha":551,"x_min":54,"x_max":488,"o":"m 54 813 l 197 813 l 197 833 q 210 977 197 921 q 255 1066 222 1033 q 342 1111 288 1099 q 479 1124 396 1124 l 488 1124 l 488 1049 q 378 1041 419 1049 q 313 1010 336 1033 q 282 944 290 988 q 274 832 274 901 l 274 813 l 488 813 l 488 740 l 274 740 l 274 0 l 197 0 l 197 740 l 54 740 l 54 813 z "},"g":{"ha":1038,"x_min":82,"x_max":919,"o":"m 501 -17 q 335 17 413 -17 q 202 108 258 50 q 114 242 146 165 q 82 406 82 318 q 114 570 82 493 q 202 705 146 647 q 335 796 258 763 q 501 829 413 829 q 602 816 551 829 q 698 776 653 803 q 781 712 743 750 q 842 625 818 674 l 842 813 l 919 813 l 919 17 q 891 -153 919 -78 q 809 -282 863 -229 q 681 -364 756 -335 q 514 -393 606 -393 q 381 -378 439 -393 q 276 -334 322 -362 q 195 -265 231 -306 q 131 -171 160 -224 l 207 -136 q 324 -272 251 -222 q 514 -321 396 -321 q 650 -297 589 -321 q 753 -230 711 -274 q 819 -124 796 -186 q 842 14 842 -62 l 842 186 q 781 99 818 138 q 698 35 743 61 q 602 -3 653 10 q 501 -17 551 -17 m 504 57 q 640 84 578 57 q 750 158 703 111 q 824 269 797 206 q 850 406 850 333 q 824 542 850 478 q 750 653 797 606 q 640 728 703 700 q 504 756 578 756 q 371 728 433 756 q 262 653 308 701 q 189 542 215 606 q 163 406 163 479 q 189 269 163 333 q 262 158 215 206 q 371 84 308 111 q 504 57 433 57 z "},"h":{"ha":981,"x_min":119,"x_max":867,"o":"m 119 1028 l 196 1028 l 196 654 q 318 781 238 732 q 506 829 399 829 q 653 803 588 829 q 767 729 719 778 q 841 612 815 681 q 867 456 867 543 l 867 0 l 786 0 l 786 457 q 767 580 786 525 q 710 674 747 635 q 619 735 672 714 q 496 757 565 757 q 377 734 432 757 q 282 670 322 711 q 219 574 242 629 q 196 456 196 519 l 196 0 l 119 0 l 119 1028 z "},"i":{"ha":314,"x_min":90,"x_max":226,"o":"m 118 813 l 197 813 l 197 0 l 118 0 l 118 813 m 90 990 q 110 1038 90 1019 q 158 1057 129 1057 q 208 1038 190 1057 q 226 990 226 1019 q 208 942 226 961 q 158 922 190 922 q 108 942 126 922 q 90 990 90 961 z "},"j":{"ha":314,"x_min":-97,"x_max":226,"o":"m -97 -294 q 10 -287 -32 -294 q 76 -258 53 -281 q 109 -192 100 -235 q 118 -81 118 -150 l 118 813 l 197 813 l 197 -82 q 183 -224 197 -168 q 138 -312 169 -279 q 51 -359 106 -346 q -85 -372 -4 -372 l -97 -372 l -97 -294 m 90 990 q 110 1038 90 1019 q 158 1057 129 1057 q 208 1038 190 1057 q 226 990 226 1019 q 208 942 226 961 q 158 922 190 922 q 108 942 126 922 q 90 990 90 961 z "},"k":{"ha":843,"x_min":119,"x_max":792,"o":"m 386 424 l 197 228 l 197 0 l 119 0 l 119 1028 l 197 1028 l 197 321 l 669 813 l 771 813 l 443 472 l 792 0 l 699 0 l 386 424 z "},"l":{"ha":321,"x_min":119,"x_max":200,"o":"m 119 1028 l 200 1028 l 200 0 l 119 0 l 119 1028 z "},"m":{"ha":1604,"x_min":118,"x_max":1490,"o":"m 118 813 l 194 813 l 194 657 q 310 782 233 735 q 490 829 386 829 q 692 774 613 829 q 804 626 772 718 q 926 772 840 715 q 1128 829 1011 829 q 1280 803 1213 829 q 1394 729 1347 776 q 1465 616 1440 682 q 1490 469 1490 550 l 1490 0 l 1411 0 l 1411 475 q 1391 588 1411 536 q 1334 678 1371 640 q 1244 736 1297 715 q 1126 757 1192 757 q 1014 738 1067 757 q 922 681 961 718 q 861 592 883 644 q 839 475 839 540 l 839 0 l 760 0 l 760 490 q 740 599 760 550 q 685 683 721 649 q 599 738 650 718 q 485 757 549 757 q 369 735 422 757 q 278 675 317 714 q 219 581 240 636 q 197 460 197 526 l 197 0 l 118 0 l 118 813 z "},"n":{"ha":982,"x_min":118,"x_max":868,"o":"m 118 813 l 194 813 l 194 647 q 317 778 235 728 q 507 829 399 829 q 655 803 589 829 q 769 729 721 778 q 842 612 817 681 q 868 456 868 543 l 868 0 l 789 0 l 789 457 q 769 580 789 525 q 711 674 749 635 q 619 734 674 713 q 497 756 565 756 q 378 733 433 756 q 283 669 324 710 q 220 574 243 629 q 197 456 197 519 l 197 0 l 118 0 l 118 813 z "},"o":{"ha":1008,"x_min":82,"x_max":926,"o":"m 504 -17 q 340 16 417 -17 q 205 106 263 49 q 115 240 147 163 q 82 406 82 317 q 115 572 82 494 q 205 706 147 649 q 340 797 263 764 q 504 829 417 829 q 669 797 592 829 q 803 706 746 764 q 893 572 860 649 q 926 406 926 494 q 893 240 926 317 q 803 106 860 163 q 669 16 746 49 q 504 -17 592 -17 m 504 57 q 638 84 575 57 q 746 158 700 111 q 818 269 792 206 q 844 406 844 333 q 818 542 844 479 q 746 653 792 606 q 638 728 700 701 q 504 756 575 756 q 369 728 432 756 q 261 653 307 701 q 189 542 215 606 q 163 406 163 479 q 189 269 163 333 q 261 158 215 206 q 369 84 307 111 q 504 57 432 57 z "},"p":{"ha":1035,"x_min":118,"x_max":953,"o":"m 535 -17 q 431 -4 482 -17 q 336 33 381 8 q 255 95 292 58 q 194 179 218 132 l 194 -374 l 118 -374 l 118 813 l 193 813 l 193 626 q 254 713 217 675 q 338 776 292 750 q 434 816 383 803 q 535 829 485 829 q 700 796 624 829 q 833 705 776 763 q 921 570 889 647 q 953 406 953 493 q 921 242 953 318 q 833 108 889 165 q 700 17 776 50 q 535 -17 624 -17 m 531 57 q 664 84 601 57 q 773 158 726 111 q 846 269 819 206 q 872 406 872 333 q 846 542 872 479 q 773 653 819 606 q 664 728 726 701 q 531 756 601 756 q 395 728 458 756 q 285 653 332 700 q 211 542 238 606 q 185 406 185 478 q 211 269 185 333 q 285 158 238 206 q 395 84 332 111 q 531 57 458 57 z "},"q":{"ha":1036,"x_min":82,"x_max":918,"o":"m 501 -17 q 335 17 413 -17 q 202 108 258 50 q 114 242 146 165 q 82 406 82 318 q 114 570 82 493 q 202 705 146 647 q 335 796 258 763 q 501 829 413 829 q 602 816 551 829 q 698 776 653 803 q 781 712 743 750 q 842 625 818 674 l 842 813 l 918 813 l 918 -374 l 840 -374 l 840 181 q 780 95 817 132 q 699 33 743 58 q 604 -4 654 8 q 501 -17 554 -17 m 504 57 q 640 84 578 57 q 750 158 703 111 q 824 269 797 206 q 850 406 850 333 q 824 542 850 478 q 750 653 797 606 q 640 728 703 700 q 504 756 578 756 q 371 728 433 756 q 262 653 308 701 q 189 542 215 606 q 163 406 163 479 q 189 269 163 333 q 262 158 215 206 q 371 84 308 111 q 504 57 433 57 z "},"r":{"ha":636,"x_min":118,"x_max":603,"o":"m 118 813 l 194 813 l 194 668 q 288 781 226 742 q 435 821 349 821 q 527 809 489 821 q 603 775 565 797 l 556 706 q 499 736 528 725 q 432 747 471 747 q 260 676 324 747 q 197 476 197 604 l 197 0 l 118 0 l 118 813 z "},"s":{"ha":753,"x_min":51,"x_max":672,"o":"m 371 -17 q 183 26 267 -17 q 51 135 100 68 l 114 185 q 222 92 154 129 q 372 54 289 54 q 469 68 428 54 q 538 106 510 82 q 579 160 565 129 q 593 225 593 192 q 573 291 593 265 q 519 334 553 317 q 444 363 486 351 q 357 386 401 375 q 259 414 307 399 q 174 453 211 429 q 113 515 136 478 q 90 608 90 553 q 110 693 90 653 q 166 764 129 733 q 254 813 203 794 q 369 831 306 831 q 531 799 457 831 q 653 713 604 768 l 593 664 q 497 736 551 711 q 369 761 443 761 q 222 718 274 761 q 169 610 169 675 q 189 547 169 572 q 240 505 208 522 q 313 476 272 488 q 399 453 354 464 q 498 424 449 440 q 585 383 547 408 q 648 321 624 358 q 672 225 672 283 q 654 139 672 182 q 599 61 636 96 q 506 5 563 26 q 371 -17 449 -17 z "},"t":{"ha":558,"x_min":50,"x_max":485,"o":"m 50 813 l 194 813 l 194 1001 l 271 1051 l 271 813 l 485 813 l 485 740 l 271 740 l 271 292 q 280 179 271 222 q 313 113 289 136 q 378 81 336 89 q 485 74 419 74 l 485 0 l 472 0 q 335 13 389 0 q 251 58 282 25 q 207 147 219 90 q 194 290 194 203 l 194 740 l 50 740 l 50 813 z "},"u":{"ha":982,"x_min":114,"x_max":865,"o":"m 479 -17 q 326 9 394 -17 q 211 83 258 35 q 139 201 164 132 q 114 357 114 269 l 114 813 l 194 813 l 194 356 q 214 233 194 288 q 271 139 233 178 q 363 78 308 100 q 485 57 417 57 q 603 80 549 57 q 699 143 658 103 q 763 238 740 183 q 786 357 786 293 l 786 813 l 865 813 l 865 0 l 788 0 l 788 165 q 667 34 747 85 q 479 -17 586 -17 z "},"v":{"ha":833,"x_min":58,"x_max":775,"o":"m 58 813 l 146 813 l 418 107 l 690 813 l 775 813 l 457 0 l 376 0 l 58 813 z "},"w":{"ha":1360,"x_min":65,"x_max":1294,"o":"m 65 813 l 150 813 l 371 117 l 647 813 l 715 813 l 983 114 l 1211 813 l 1294 813 l 1025 0 l 950 0 l 679 697 l 401 0 l 326 0 l 65 813 z "},"x":{"ha":857,"x_min":49,"x_max":808,"o":"m 379 418 l 65 813 l 163 813 l 431 472 l 694 813 l 793 813 l 478 418 l 808 0 l 710 0 l 428 364 l 149 0 l 49 0 l 379 418 z "},"y":{"ha":908,"x_min":60,"x_max":850,"o":"m 424 46 l 60 813 l 149 813 l 467 136 l 764 813 l 850 813 l 319 -375 l 233 -375 l 424 46 z "},"z":{"ha":872,"x_min":79,"x_max":793,"o":"m 79 75 l 689 740 l 100 740 l 100 813 l 788 813 l 788 738 l 181 74 l 793 74 l 793 0 l 79 0 l 79 75 z "},"{":{"ha":563,"x_min":53,"x_max":504,"o":"m 489 -319 q 343 -304 401 -319 q 249 -253 285 -289 q 199 -160 214 -218 q 183 -18 183 -103 l 183 160 q 179 228 183 200 q 162 274 175 257 q 123 299 149 292 q 53 307 97 307 l 53 383 q 123 392 97 383 q 162 417 149 400 q 179 463 175 435 q 183 532 183 492 l 183 713 q 199 855 183 797 q 249 948 214 913 q 343 999 285 983 q 489 1014 401 1014 l 504 1014 l 504 942 q 383 931 431 942 q 309 894 336 921 q 272 824 282 868 q 263 711 263 779 l 263 531 q 244 410 263 456 q 174 346 225 365 q 244 281 226 326 q 263 161 263 236 l 263 -17 q 272 -129 263 -85 q 309 -200 282 -174 q 383 -237 336 -226 q 504 -247 431 -247 l 504 -319 l 489 -319 z "},"|":{"ha":264,"x_min":92,"x_max":172,"o":"m 92 1014 l 172 1014 l 172 -319 l 92 -319 l 92 1014 z "},"}":{"ha":563,"x_min":60,"x_max":511,"o":"m 60 -246 q 181 -235 133 -246 q 255 -199 228 -225 q 292 -129 282 -174 q 301 -17 301 -85 l 301 161 q 319 281 301 236 q 389 346 336 326 q 320 410 339 365 q 301 531 301 456 l 301 711 q 292 824 301 779 q 255 894 282 868 q 181 930 228 919 q 60 940 133 940 l 60 1014 l 75 1014 q 221 999 163 1014 q 315 948 279 983 q 365 855 350 913 q 381 713 381 797 l 381 532 q 385 463 381 492 q 402 417 389 435 q 442 392 415 400 q 511 383 468 383 l 511 307 q 442 299 468 307 q 402 274 415 292 q 385 228 389 257 q 381 160 381 200 l 381 -18 q 365 -160 381 -103 q 315 -253 350 -218 q 221 -304 279 -289 q 75 -319 163 -319 l 60 -319 l 60 -246 z "},"~":{"ha":632,"x_min":93,"x_max":546,"o":"m 93 775 q 131 877 96 839 q 219 915 165 915 q 280 904 256 915 q 328 878 304 893 q 372 852 350 865 q 418 839 393 839 q 482 908 474 839 l 546 908 q 510 806 543 844 q 419 768 478 768 q 351 783 379 768 q 297 814 322 799 q 260 834 278 825 q 219 843 242 843 q 160 775 168 843 l 93 775 z "},"¡":{"ha":336,"x_min":103,"x_max":239,"o":"m 192 483 q 198 372 194 439 q 204 230 201 306 q 208 75 207 154 q 210 -74 210 -4 l 210 -319 l 129 -319 l 129 -74 q 131 75 129 -4 q 134 230 132 154 q 140 372 136 306 q 146 483 143 439 l 192 483 m 239 640 q 219 592 239 611 q 171 574 200 574 q 121 592 139 574 q 103 640 103 611 q 121 689 103 669 q 171 708 139 708 q 221 689 203 708 q 239 640 239 669 z "},"¢":{"ha":817,"x_min":75,"x_max":754,"o":"m 385 -11 q 260 24 317 -4 q 162 99 203 53 q 98 208 121 146 q 75 347 75 271 q 99 488 75 425 q 164 597 122 550 q 263 671 206 643 q 385 706 319 699 l 385 875 l 465 875 l 465 706 q 640 640 564 696 q 749 493 717 585 l 676 463 q 580 592 646 549 q 426 636 514 636 q 320 616 369 636 q 234 558 271 596 q 176 467 197 521 q 156 347 156 414 q 176 227 156 281 q 234 136 197 174 q 321 78 271 99 q 429 58 371 58 q 587 106 521 58 q 681 238 653 154 l 754 207 q 644 54 719 111 q 465 -12 569 -3 l 465 -181 l 385 -181 l 385 -11 z "},"£":{"ha":817,"x_min":67,"x_max":726,"o":"m 104 533 l 239 533 q 183 639 207 583 q 158 768 158 694 q 178 873 158 825 q 235 955 199 921 q 319 1008 271 989 q 425 1028 368 1028 q 592 985 525 1028 q 699 874 658 942 l 628 832 q 544 924 593 893 q 422 954 494 954 q 350 940 383 954 q 292 902 317 926 q 253 844 267 878 q 239 768 239 810 q 265 644 239 700 q 326 533 292 589 l 619 533 l 619 468 l 365 468 q 416 360 394 417 q 438 232 438 303 q 434 185 438 208 q 424 142 431 163 q 499 85 463 110 q 575 60 535 60 q 631 81 615 60 q 646 143 646 103 l 646 235 l 726 235 l 726 144 q 685 21 726 56 q 572 -14 644 -14 q 478 14 522 -14 q 392 78 433 42 q 322 12 364 38 q 222 -14 281 -14 q 107 23 147 -14 q 67 118 67 60 q 105 211 67 175 q 207 247 143 247 q 293 229 254 247 q 367 186 332 211 q 369 207 368 197 q 369 228 369 217 q 343 359 369 303 q 282 468 317 415 l 104 468 l 104 533 m 221 50 q 296 68 265 50 q 344 118 326 86 q 279 163 313 144 q 211 182 246 182 q 157 163 176 182 q 138 115 138 143 q 160 67 138 83 q 221 50 183 50 z "},"¤":{"ha":1074,"x_min":138,"x_max":938,"o":"m 543 142 q 420 163 478 142 q 315 221 363 183 l 186 86 l 138 135 l 267 269 q 205 376 226 317 q 183 503 183 435 q 205 629 183 569 q 267 736 226 689 l 138 871 l 185 919 l 315 783 q 419 842 361 821 q 543 864 476 864 q 665 843 607 864 q 768 785 722 822 l 890 913 l 938 864 l 817 739 q 881 631 857 690 q 904 503 904 571 q 881 373 904 433 q 815 265 857 313 l 936 142 l 888 93 l 765 218 q 663 162 719 182 q 543 142 607 142 m 543 214 q 653 237 601 214 q 742 299 704 260 q 802 390 781 338 q 824 503 824 443 q 802 615 824 563 q 742 707 781 668 q 653 769 704 746 q 543 792 601 792 q 433 769 485 792 q 344 707 382 746 q 285 615 307 668 q 264 503 264 563 q 285 390 264 443 q 344 299 307 338 q 433 237 382 260 q 543 214 485 214 z "},"¥":{"ha":817,"x_min":72,"x_max":749,"o":"m 135 536 l 372 536 l 372 544 l 72 1014 l 163 1014 l 411 622 l 660 1014 l 749 1014 l 451 546 l 451 536 l 686 536 l 686 469 l 451 469 l 451 303 l 686 303 l 686 236 l 451 236 l 451 0 l 372 0 l 372 236 l 135 236 l 135 303 l 372 303 l 372 469 l 135 469 l 135 536 z "},"¦":{"ha":301,"x_min":92,"x_max":172,"o":"m 92 1014 l 172 1014 l 172 431 l 92 431 l 92 1014 m 92 264 l 172 264 l 172 -319 l 92 -319 l 92 264 z "},"§":{"ha":842,"x_min":83,"x_max":751,"o":"m 419 -14 q 285 5 343 -14 q 189 54 228 24 q 130 124 150 85 q 106 204 110 163 l 186 222 q 203 156 189 188 q 247 102 218 125 q 320 65 276 79 q 422 51 364 51 q 496 59 458 51 q 563 83 533 67 q 612 126 593 100 q 631 190 631 153 q 613 246 631 224 q 561 283 594 268 q 482 308 528 297 q 382 329 436 318 q 258 360 314 344 q 164 399 203 376 q 104 453 125 422 q 83 526 83 483 q 118 626 83 581 q 215 690 153 671 q 156 745 176 714 q 135 824 135 776 q 156 910 135 872 q 213 975 176 949 q 299 1015 249 1001 q 408 1028 350 1028 q 535 1010 482 1028 q 625 964 589 993 q 681 897 661 935 q 704 819 700 860 l 626 804 q 571 919 621 874 q 407 964 521 964 q 334 956 369 964 q 271 933 299 949 q 226 890 243 917 q 210 826 210 864 q 228 772 210 793 q 278 735 246 750 q 356 708 311 719 q 456 686 401 697 q 578 656 524 672 q 672 617 633 639 q 731 564 710 594 q 751 490 751 533 q 717 394 751 439 q 622 328 682 349 q 684 274 663 306 q 706 193 706 242 q 683 106 706 144 q 622 41 661 68 q 531 0 583 14 q 419 -14 479 -14 m 424 390 q 492 376 460 383 q 553 358 525 368 q 645 410 615 375 q 675 485 675 444 q 653 537 675 515 q 597 574 632 558 q 514 602 561 590 q 414 625 467 614 q 345 640 378 632 q 285 658 313 649 q 192 615 225 650 q 160 536 158 579 q 181 480 160 503 q 239 440 203 457 q 323 413 275 424 q 424 390 371 401 z "},"¨":{"ha":703,"x_min":165,"x_max":519,"o":"m 165 903 q 183 946 165 929 q 226 963 200 963 q 270 946 254 963 q 286 903 286 929 q 270 859 286 876 q 226 842 254 842 q 182 859 199 842 q 165 903 165 876 m 399 903 q 416 946 399 929 q 460 963 433 963 q 503 946 488 963 q 519 903 519 929 q 503 859 519 876 q 460 842 488 842 q 415 859 432 842 q 399 903 399 876 z "},"©":{"ha":1192,"x_min":75,"x_max":1117,"o":"m 596 -14 q 393 27 488 -14 q 228 139 299 68 q 116 304 157 210 q 75 507 75 399 q 116 710 75 615 q 228 875 157 804 q 393 987 299 946 q 596 1028 488 1028 q 799 987 704 1028 q 964 875 893 946 q 1076 710 1035 804 q 1117 507 1117 615 q 1076 304 1117 399 q 964 139 1035 210 q 799 27 893 68 q 596 -14 704 -14 m 596 57 q 771 92 690 57 q 911 189 851 128 q 1005 332 971 250 q 1039 507 1039 414 q 1005 682 1039 600 q 911 825 971 764 q 771 922 851 886 q 596 957 690 957 q 422 922 503 957 q 281 825 340 886 q 187 682 221 764 q 153 507 153 600 q 187 332 153 414 q 281 189 221 250 q 422 92 340 128 q 596 57 503 57 m 601 232 q 492 253 543 232 q 405 313 442 275 q 347 400 368 350 q 325 507 325 450 q 347 614 325 564 q 406 701 368 664 q 493 760 443 739 q 601 782 543 782 q 741 744 678 782 q 839 649 804 707 l 771 606 q 703 678 747 650 q 600 707 658 707 q 524 691 560 707 q 460 648 488 675 q 417 585 433 621 q 401 507 401 549 q 417 428 401 465 q 460 365 433 392 q 524 322 488 338 q 600 306 560 306 q 707 336 661 306 q 775 415 753 367 l 844 376 q 746 272 811 313 q 601 232 681 232 z "},"ª":{"ha":581,"x_min":83,"x_max":503,"o":"m 285 604 q 211 619 247 604 q 147 660 175 633 q 101 726 118 688 q 83 813 83 765 q 101 900 83 861 q 147 966 118 939 q 213 1008 176 993 q 286 1022 249 1022 q 376 1002 335 1022 q 442 947 417 982 l 442 1014 l 503 1014 l 503 613 l 442 613 l 442 679 q 376 624 417 644 q 285 604 335 604 m 296 661 q 355 674 328 661 q 401 707 382 686 q 432 756 421 728 q 443 814 443 783 q 432 873 443 846 q 401 921 421 900 q 355 953 382 942 q 296 965 328 965 q 237 953 264 965 q 190 922 210 942 q 158 874 169 901 q 146 814 146 846 q 158 754 146 782 q 190 706 169 726 q 237 673 210 685 q 296 661 264 661 z "},"«":{"ha":626,"x_min":93,"x_max":532,"o":"m 93 322 l 93 372 l 308 535 l 308 472 l 143 346 l 308 221 l 308 160 l 93 322 m 318 322 l 318 372 l 532 535 l 532 472 l 368 346 l 532 221 l 532 160 l 318 322 z "},"¬":{"ha":838,"x_min":47,"x_max":782,"o":"m 701 633 l 47 633 l 47 710 l 782 710 l 782 279 l 701 279 l 701 633 z "},"­":{"ha":660,"x_min":74,"x_max":588,"o":"m 74 385 l 588 385 l 588 314 l 74 314 l 74 385 z "},"®":{"ha":1192,"x_min":75,"x_max":1117,"o":"m 596 -174 q 393 -133 488 -174 q 228 -21 299 -92 q 116 144 157 50 q 75 347 75 239 q 116 550 75 456 q 228 715 157 644 q 393 827 299 786 q 596 868 488 868 q 799 827 704 868 q 964 715 893 786 q 1076 550 1035 644 q 1117 347 1117 456 q 1076 144 1117 239 q 964 -21 1035 50 q 799 -133 893 -92 q 596 -174 704 -174 m 596 -103 q 771 -67 690 -103 q 911 29 851 -32 q 1005 172 971 90 q 1039 347 1039 254 q 1005 522 1039 440 q 911 665 971 604 q 771 762 851 726 q 596 797 690 797 q 422 762 503 797 q 281 665 340 726 q 187 522 221 604 q 153 347 153 440 q 187 172 153 254 q 281 29 221 90 q 422 -67 340 -32 q 596 -103 503 -103 m 415 615 l 621 615 q 701 602 665 615 q 761 567 736 589 q 799 514 786 544 q 813 450 813 483 q 781 343 813 390 q 688 281 749 296 l 813 96 l 724 96 l 572 331 l 610 331 q 699 363 664 331 q 735 447 735 394 q 699 524 735 499 q 613 550 663 550 l 490 550 l 490 96 l 415 96 l 415 615 z "},"¯":{"ha":697,"x_min":167,"x_max":533,"o":"m 167 854 l 533 854 l 533 785 l 167 785 l 167 854 z "},"°":{"ha":601,"x_min":146,"x_max":456,"o":"m 301 718 q 241 731 269 718 q 192 764 213 743 q 158 813 171 785 q 146 874 146 842 q 158 933 146 906 q 192 982 171 961 q 241 1015 213 1003 q 301 1028 269 1028 q 362 1015 333 1028 q 411 982 390 1003 q 444 933 432 961 q 456 874 456 906 q 444 813 456 842 q 411 764 432 785 q 362 731 390 743 q 301 718 333 718 m 301 785 q 363 810 338 785 q 389 872 389 836 q 363 934 389 908 q 301 960 338 960 q 240 934 265 960 q 214 872 214 908 q 240 810 214 836 q 301 785 265 785 z "},"±":{"ha":660,"x_min":74,"x_max":588,"o":"m 74 676 l 296 676 l 296 899 l 365 899 l 365 676 l 588 676 l 588 607 l 365 607 l 365 385 l 296 385 l 296 607 l 74 607 l 74 676 m 74 251 l 588 251 l 588 182 l 74 182 l 74 251 z "},"²":{"ha":478,"x_min":47,"x_max":428,"o":"m 54 497 q 69 563 54 533 q 107 619 83 593 q 160 667 131 644 q 218 710 189 689 q 269 745 244 728 q 312 781 293 763 q 342 819 331 799 q 353 861 353 839 q 322 931 353 903 q 239 958 292 958 q 161 933 193 958 q 110 868 129 908 l 47 900 q 122 989 74 956 q 239 1022 171 1022 q 376 976 326 1022 q 426 861 426 929 q 413 798 426 826 q 376 745 399 769 q 326 700 354 721 q 269 660 299 679 q 217 624 243 642 q 172 585 192 606 q 140 544 153 565 q 128 497 128 522 l 428 497 l 428 428 l 54 428 l 54 497 z "},"³":{"ha":457,"x_min":35,"x_max":413,"o":"m 219 419 q 115 439 163 419 q 35 499 68 458 l 96 546 q 219 486 140 486 q 306 515 272 486 q 340 592 340 544 q 304 669 340 642 q 213 697 268 697 l 154 697 l 154 764 l 213 764 q 300 792 269 764 q 331 864 331 819 q 299 933 331 907 q 217 958 268 958 q 147 941 176 958 q 101 897 118 924 l 40 932 q 111 997 65 971 q 217 1022 157 1022 q 351 979 301 1022 q 400 864 400 936 q 379 786 400 819 q 321 732 358 753 q 388 677 363 713 q 413 592 413 642 q 362 468 413 517 q 219 419 311 419 z "},"´":{"ha":697,"x_min":204,"x_max":474,"o":"m 369 1000 l 474 1000 l 279 785 l 204 785 l 369 1000 z "},"µ":{"ha":839,"x_min":99,"x_max":742,"o":"m 99 694 l 179 694 l 179 311 q 197 208 179 254 q 247 128 215 161 q 322 76 278 94 q 417 58 365 58 q 515 77 469 58 q 592 129 560 96 q 644 208 625 163 q 663 307 663 254 l 663 694 l 742 694 l 742 0 l 664 0 l 664 129 q 562 26 628 65 q 408 -14 496 -14 q 273 19 332 -14 q 178 101 214 53 l 178 -319 l 99 -319 l 99 694 z "},"¶":{"ha":799,"x_min":53,"x_max":707,"o":"m 481 419 l 354 419 q 235 442 290 419 q 139 506 179 465 q 76 600 99 546 q 53 717 53 654 q 76 833 53 779 q 139 928 99 888 q 234 991 179 968 q 353 1014 289 1014 l 707 1014 l 707 0 l 635 0 l 635 942 l 551 942 l 551 0 l 481 0 l 481 419 z "},"·":{"ha":265,"x_min":92,"x_max":172,"o":"m 92 442 l 172 442 l 172 251 l 92 251 l 92 442 z "},"¸":{"ha":697,"x_min":151,"x_max":531,"o":"m 344 -315 q 233 -294 279 -315 q 151 -242 186 -274 l 215 -203 q 271 -241 243 -226 q 344 -256 299 -256 q 424 -236 393 -256 q 456 -186 456 -217 q 426 -142 456 -158 q 340 -125 396 -125 l 294 -125 l 294 0 l 363 0 l 363 -74 q 484 -105 438 -75 q 531 -183 531 -135 q 516 -237 531 -212 q 476 -278 501 -261 q 417 -306 451 -296 q 344 -315 383 -315 z "},"¹":{"ha":397,"x_min":51,"x_max":353,"o":"m 51 496 l 168 496 l 168 892 q 127 856 156 871 q 71 842 99 842 l 63 842 l 63 918 l 67 918 q 115 927 96 918 q 147 950 135 936 q 164 981 158 964 q 169 1014 169 999 l 240 1014 l 240 496 l 353 496 l 353 428 l 51 428 l 51 496 z "},"º":{"ha":585,"x_min":83,"x_max":501,"o":"m 292 604 q 210 621 249 604 q 144 665 172 638 q 100 731 117 693 q 83 813 83 769 q 100 895 83 857 q 144 961 117 933 q 210 1006 172 989 q 292 1022 249 1022 q 374 1006 336 1022 q 440 961 413 989 q 485 895 468 933 q 501 813 501 857 q 485 731 501 769 q 440 665 468 693 q 374 621 413 638 q 292 604 336 604 m 292 664 q 350 676 324 664 q 397 708 376 688 q 428 755 417 728 q 439 813 439 782 q 428 872 439 844 q 397 919 417 899 q 350 951 376 939 q 292 963 324 963 q 235 951 261 963 q 189 919 208 939 q 158 872 169 899 q 146 813 146 844 q 158 755 146 782 q 189 708 169 728 q 235 676 208 688 q 292 664 261 664 z "},"»":{"ha":626,"x_min":93,"x_max":532,"o":"m 93 222 l 258 347 l 93 472 l 93 535 l 308 372 l 308 324 l 93 161 l 93 222 m 318 222 l 483 347 l 318 472 l 318 535 l 532 372 l 532 324 l 318 161 l 318 222 z "},"¼":{"ha":1085,"x_min":51,"x_max":1028,"o":"m 871 135 l 600 135 l 600 201 l 868 586 l 943 586 l 943 201 l 1028 201 l 1028 135 l 943 135 l 943 0 l 871 0 l 871 135 m 878 1014 l 972 1014 l 240 0 l 146 0 l 878 1014 m 51 496 l 168 496 l 168 892 q 127 856 156 871 q 71 842 99 842 l 63 842 l 63 918 l 67 918 q 115 927 96 918 q 147 950 135 936 q 164 981 158 964 q 169 1014 169 999 l 240 1014 l 240 496 l 353 496 l 353 428 l 51 428 l 51 496 m 871 201 l 871 474 l 679 201 l 871 201 z "},"½":{"ha":1154,"x_min":51,"x_max":1100,"o":"m 878 1014 l 972 1014 l 240 0 l 146 0 l 878 1014 m 726 69 q 741 135 726 106 q 779 191 756 165 q 832 239 803 217 q 890 282 861 261 q 941 317 917 300 q 984 353 965 335 q 1014 391 1003 371 q 1025 433 1025 411 q 994 503 1025 475 q 911 531 964 531 q 833 506 865 531 q 782 440 801 481 l 719 472 q 794 561 746 528 q 911 594 843 594 q 1049 548 999 594 q 1099 433 1099 501 q 1085 370 1099 399 q 1049 317 1071 342 q 999 272 1026 293 q 942 232 971 251 q 890 196 915 214 q 844 158 864 178 q 813 116 825 138 q 800 69 800 94 l 1100 69 l 1100 0 l 726 0 l 726 69 m 51 496 l 168 496 l 168 892 q 127 856 156 871 q 71 842 99 842 l 63 842 l 63 918 l 67 918 q 115 927 96 918 q 147 950 135 936 q 164 981 158 964 q 169 1014 169 999 l 240 1014 l 240 496 l 353 496 l 353 428 l 51 428 l 51 496 z "},"¾":{"ha":1126,"x_min":35,"x_max":1071,"o":"m 914 135 l 643 135 l 643 201 l 911 586 l 986 586 l 986 201 l 1071 201 l 1071 135 l 986 135 l 986 0 l 914 0 l 914 135 m 921 1014 l 1015 1014 l 283 0 l 189 0 l 921 1014 m 219 419 q 115 439 163 419 q 35 499 68 458 l 96 546 q 219 486 140 486 q 306 515 272 486 q 340 592 340 544 q 304 669 340 642 q 213 697 268 697 l 154 697 l 154 764 l 213 764 q 300 792 269 764 q 331 864 331 819 q 299 933 331 907 q 217 958 268 958 q 147 941 176 958 q 101 897 118 924 l 40 932 q 111 997 65 971 q 217 1022 157 1022 q 351 979 301 1022 q 400 864 400 936 q 379 786 400 819 q 321 732 358 753 q 388 677 363 713 q 413 592 413 642 q 362 468 413 517 q 219 419 311 419 m 914 201 l 914 474 l 722 201 l 914 201 z "},"¿":{"ha":749,"x_min":78,"x_max":668,"o":"m 371 -333 q 255 -316 308 -333 q 162 -266 201 -299 q 100 -188 122 -233 q 78 -87 78 -143 q 98 19 78 -22 q 149 89 118 60 q 216 144 181 118 q 283 203 251 169 q 334 288 314 238 q 354 418 354 339 l 354 471 l 428 471 l 428 418 q 408 274 428 331 q 358 178 388 217 q 293 114 328 140 q 228 60 258 88 q 178 -1 199 33 q 158 -89 158 -35 q 175 -160 158 -128 q 220 -215 192 -192 q 288 -250 249 -237 q 371 -262 326 -262 q 511 -226 458 -262 q 597 -128 564 -189 l 668 -161 q 556 -283 632 -233 q 371 -333 481 -333 m 321 642 q 340 690 321 671 q 389 708 360 708 q 439 690 421 708 q 457 642 457 671 q 439 593 457 613 q 389 574 421 574 q 339 593 357 574 q 321 642 321 613 z "},"À":{"ha":969,"x_min":51,"x_max":918,"o":"m 442 1014 l 528 1014 l 918 0 l 833 0 l 724 283 l 244 283 l 136 0 l 51 0 l 442 1014 m 274 360 l 694 360 l 485 907 l 274 360 m 247 1319 l 350 1319 l 517 1104 l 442 1104 l 247 1319 z "},"Á":{"ha":969,"x_min":51,"x_max":918,"o":"m 442 1014 l 528 1014 l 918 0 l 833 0 l 724 283 l 244 283 l 136 0 l 51 0 l 442 1014 m 274 360 l 694 360 l 485 907 l 274 360 m 603 1319 l 707 1319 l 513 1104 l 438 1104 l 603 1319 z "},"Â":{"ha":969,"x_min":51,"x_max":918,"o":"m 442 1014 l 528 1014 l 918 0 l 833 0 l 724 283 l 244 283 l 136 0 l 51 0 l 442 1014 m 274 360 l 694 360 l 485 907 l 274 360 m 443 1319 l 511 1319 l 676 1104 l 592 1104 l 476 1257 l 361 1104 l 278 1104 l 443 1319 z "},"Ã":{"ha":969,"x_min":51,"x_max":918,"o":"m 442 1014 l 528 1014 l 918 0 l 833 0 l 724 283 l 244 283 l 136 0 l 51 0 l 442 1014 m 274 360 l 694 360 l 485 907 l 274 360 m 236 1104 q 272 1214 236 1174 q 365 1254 308 1254 q 428 1242 400 1254 q 485 1213 457 1229 q 535 1183 511 1197 q 585 1169 560 1169 q 635 1189 617 1169 q 654 1250 654 1208 l 718 1250 q 684 1139 718 1179 q 586 1099 650 1099 q 515 1115 546 1099 q 456 1147 483 1131 q 411 1173 432 1161 q 365 1185 390 1185 q 319 1165 338 1185 q 301 1104 301 1144 l 236 1104 z "},"Ä":{"ha":969,"x_min":51,"x_max":918,"o":"m 442 1014 l 528 1014 l 918 0 l 833 0 l 724 283 l 244 283 l 136 0 l 51 0 l 442 1014 m 274 360 l 694 360 l 485 907 l 274 360 m 304 1222 q 322 1265 304 1249 q 365 1282 339 1282 q 409 1265 393 1282 q 425 1222 425 1249 q 409 1178 425 1196 q 365 1161 393 1161 q 321 1178 338 1161 q 304 1222 304 1196 m 538 1222 q 555 1265 538 1249 q 599 1282 572 1282 q 642 1265 626 1282 q 658 1222 658 1249 q 642 1178 658 1196 q 599 1161 626 1161 q 554 1178 571 1161 q 538 1222 538 1196 z "},"Å":{"ha":969,"x_min":51,"x_max":918,"o":"m 424 968 q 365 1017 388 983 q 342 1094 342 1051 q 381 1193 342 1153 q 478 1233 421 1233 q 578 1193 538 1233 q 618 1094 618 1153 q 597 1022 618 1054 q 543 972 576 990 l 918 0 l 833 0 l 724 283 l 244 283 l 136 0 l 51 0 l 424 968 m 274 360 l 694 360 l 485 907 l 274 360 m 478 1019 q 533 1041 510 1019 q 556 1094 556 1063 q 533 1149 556 1126 q 478 1171 510 1171 q 425 1149 447 1171 q 403 1094 403 1126 q 425 1041 403 1063 q 478 1019 447 1019 z "},"Æ":{"ha":1440,"x_min":43,"x_max":1336,"o":"m 557 1014 l 1336 1014 l 1336 938 l 663 938 l 750 546 l 1336 546 l 1336 471 l 767 471 l 854 76 l 1336 76 l 1336 0 l 790 0 l 728 276 l 274 276 l 135 0 l 43 0 l 557 1014 m 311 350 l 711 350 l 589 899 l 311 350 z "},"Ç":{"ha":1106,"x_min":74,"x_max":1056,"o":"m 597 -315 q 485 -294 532 -315 q 404 -242 439 -274 l 468 -203 q 524 -241 496 -226 q 597 -256 551 -256 q 677 -236 646 -256 q 708 -186 708 -217 q 678 -142 708 -158 q 593 -125 649 -125 l 547 -125 l 547 -11 q 361 41 447 -3 q 211 154 275 85 q 110 315 147 224 q 74 507 74 406 q 115 710 74 615 q 226 875 156 804 q 392 987 297 946 q 594 1028 486 1028 q 731 1009 665 1028 q 855 957 797 990 q 960 876 913 924 q 1042 772 1007 829 l 972 732 q 817 892 915 831 q 594 953 718 953 q 422 917 501 953 q 283 822 342 882 q 190 680 224 761 q 156 507 156 599 q 190 335 156 415 q 283 194 224 254 q 422 98 342 133 q 594 63 501 63 q 830 127 729 63 q 985 296 931 192 l 1056 260 q 876 66 990 140 q 615 -14 763 -8 l 615 -74 q 737 -105 690 -75 q 783 -183 783 -135 q 769 -237 783 -212 q 729 -278 754 -261 q 670 -306 704 -296 q 597 -315 636 -315 z "},"È":{"ha":815,"x_min":104,"x_max":725,"o":"m 104 1014 l 725 1014 l 725 938 l 185 938 l 185 546 l 725 546 l 725 471 l 185 471 l 185 76 l 725 76 l 725 0 l 104 0 l 104 1014 m 194 1319 l 297 1319 l 464 1104 l 389 1104 l 194 1319 z "},"É":{"ha":815,"x_min":104,"x_max":725,"o":"m 104 1014 l 725 1014 l 725 938 l 185 938 l 185 546 l 725 546 l 725 471 l 185 471 l 185 76 l 725 76 l 725 0 l 104 0 l 104 1014 m 517 1319 l 621 1319 l 426 1104 l 351 1104 l 517 1319 z "},"Ê":{"ha":815,"x_min":104,"x_max":725,"o":"m 104 1014 l 725 1014 l 725 938 l 185 938 l 185 546 l 725 546 l 725 471 l 185 471 l 185 76 l 725 76 l 725 0 l 104 0 l 104 1014 m 375 1319 l 443 1319 l 608 1104 l 524 1104 l 408 1257 l 293 1104 l 210 1104 l 375 1319 z "},"Ë":{"ha":815,"x_min":104,"x_max":725,"o":"m 104 1014 l 725 1014 l 725 938 l 185 938 l 185 546 l 725 546 l 725 471 l 185 471 l 185 76 l 725 76 l 725 0 l 104 0 l 104 1014 m 469 1222 q 487 1265 469 1249 q 531 1282 504 1282 q 574 1265 558 1282 q 590 1222 590 1249 q 574 1178 590 1196 q 531 1161 558 1161 q 486 1178 503 1161 q 469 1222 469 1196 m 236 1222 q 253 1265 236 1249 q 297 1282 271 1282 q 341 1265 325 1282 q 357 1222 357 1249 q 341 1178 357 1196 q 297 1161 325 1161 q 253 1178 269 1161 q 236 1222 236 1196 z "},"Ì":{"ha":315,"x_min":-74,"x_max":197,"o":"m 118 1014 l 197 1014 l 197 0 l 118 0 l 118 1014 m -74 1319 l 29 1319 l 196 1104 l 121 1104 l -74 1319 z "},"Í":{"ha":315,"x_min":115,"x_max":385,"o":"m 118 1014 l 197 1014 l 197 0 l 118 0 l 118 1014 m 281 1319 l 385 1319 l 190 1104 l 115 1104 l 281 1319 z "},"Î":{"ha":315,"x_min":-43,"x_max":356,"o":"m 118 1014 l 197 1014 l 197 0 l 118 0 l 118 1014 m 122 1319 l 190 1319 l 356 1104 l 271 1104 l 156 1257 l 40 1104 l -43 1104 l 122 1319 z "},"Ï":{"ha":315,"x_min":-21,"x_max":335,"o":"m 257 1304 l 335 1304 l 335 1111 l 257 1111 l 257 1304 m -21 1304 l 57 1304 l 57 1111 l -21 1111 l -21 1304 m 118 1014 l 197 1014 l 197 0 l 118 0 l 118 1014 z "},"Ð":{"ha":1015,"x_min":31,"x_max":943,"o":"m 31 551 l 135 551 l 135 1014 l 417 1014 q 628 975 532 1014 q 795 868 725 936 q 904 708 865 800 q 943 507 943 615 q 903 306 943 399 q 792 145 863 213 q 626 39 722 78 q 419 0 531 0 l 135 0 l 135 474 l 31 474 l 31 551 m 215 940 l 215 551 l 536 551 l 536 474 l 215 474 l 215 75 l 413 75 q 591 108 508 75 q 734 199 674 140 q 828 336 794 257 q 863 507 863 415 q 829 678 863 599 q 735 815 796 757 q 592 907 675 874 q 410 940 510 940 l 215 940 z "},"Ñ":{"ha":1031,"x_min":104,"x_max":926,"o":"m 104 1014 l 193 1014 l 846 125 l 846 1014 l 926 1014 l 926 0 l 840 0 l 185 893 l 185 0 l 104 0 l 104 1014 m 274 1104 q 310 1214 274 1174 q 403 1254 346 1254 q 466 1242 438 1254 q 522 1213 494 1229 q 573 1183 549 1197 q 622 1169 597 1169 q 673 1189 654 1169 q 692 1250 692 1208 l 756 1250 q 722 1139 756 1179 q 624 1099 688 1099 q 552 1115 583 1099 q 493 1147 521 1131 q 449 1173 469 1161 q 403 1185 428 1185 q 357 1165 375 1185 q 339 1104 339 1144 l 274 1104 z "},"Ò":{"ha":1188,"x_min":74,"x_max":1115,"o":"m 594 -14 q 392 27 486 -14 q 226 139 297 68 q 115 304 156 210 q 74 507 74 399 q 115 710 74 615 q 226 875 156 804 q 392 987 297 946 q 594 1028 486 1028 q 797 987 703 1028 q 963 875 892 946 q 1074 710 1033 804 q 1115 507 1115 615 q 1074 304 1115 399 q 963 139 1033 210 q 797 27 892 68 q 594 -14 703 -14 m 594 63 q 767 98 688 63 q 906 194 847 133 q 999 335 965 254 q 1032 507 1032 415 q 999 680 1032 599 q 906 822 965 761 q 767 917 847 882 q 594 951 688 951 q 422 917 501 951 q 283 822 342 882 q 190 680 224 761 q 156 507 156 599 q 190 335 156 415 q 283 194 224 254 q 422 98 342 133 q 594 63 501 63 m 358 1319 l 461 1319 l 628 1104 l 553 1104 l 358 1319 z "},"Ó":{"ha":1188,"x_min":74,"x_max":1115,"o":"m 708 1319 l 813 1319 l 618 1104 l 543 1104 l 708 1319 m 594 -14 q 392 27 486 -14 q 226 139 297 68 q 115 304 156 210 q 74 507 74 399 q 115 710 74 615 q 226 875 156 804 q 392 987 297 946 q 594 1028 486 1028 q 797 987 703 1028 q 963 875 892 946 q 1074 710 1033 804 q 1115 507 1115 615 q 1074 304 1115 399 q 963 139 1033 210 q 797 27 892 68 q 594 -14 703 -14 m 594 63 q 767 98 688 63 q 906 194 847 133 q 999 335 965 254 q 1032 507 1032 415 q 999 680 1032 599 q 906 822 965 761 q 767 917 847 882 q 594 951 688 951 q 422 917 501 951 q 283 822 342 882 q 190 680 224 761 q 156 507 156 599 q 190 335 156 415 q 283 194 224 254 q 422 98 342 133 q 594 63 501 63 z "},"Ô":{"ha":1188,"x_min":74,"x_max":1115,"o":"m 594 -14 q 392 27 486 -14 q 226 139 297 68 q 115 304 156 210 q 74 507 74 399 q 115 710 74 615 q 226 875 156 804 q 392 987 297 946 q 594 1028 486 1028 q 797 987 703 1028 q 963 875 892 946 q 1074 710 1033 804 q 1115 507 1115 615 q 1074 304 1115 399 q 963 139 1033 210 q 797 27 892 68 q 594 -14 703 -14 m 594 63 q 767 98 688 63 q 906 194 847 133 q 999 335 965 254 q 1032 507 1032 415 q 999 680 1032 599 q 906 822 965 761 q 767 917 847 882 q 594 951 688 951 q 422 917 501 951 q 283 822 342 882 q 190 680 224 761 q 156 507 156 599 q 190 335 156 415 q 283 194 224 254 q 422 98 342 133 q 594 63 501 63 m 554 1319 l 622 1319 l 788 1104 l 703 1104 l 588 1257 l 472 1104 l 389 1104 l 554 1319 z "},"Õ":{"ha":1188,"x_min":74,"x_max":1115,"o":"m 594 -14 q 392 27 486 -14 q 226 139 297 68 q 115 304 156 210 q 74 507 74 399 q 115 710 74 615 q 226 875 156 804 q 392 987 297 946 q 594 1028 486 1028 q 797 987 703 1028 q 963 875 892 946 q 1074 710 1033 804 q 1115 507 1115 615 q 1074 304 1115 399 q 963 139 1033 210 q 797 27 892 68 q 594 -14 703 -14 m 594 63 q 767 98 688 63 q 906 194 847 133 q 999 335 965 254 q 1032 507 1032 415 q 999 680 1032 599 q 906 822 965 761 q 767 917 847 882 q 594 951 688 951 q 422 917 501 951 q 283 822 342 882 q 190 680 224 761 q 156 507 156 599 q 190 335 156 415 q 283 194 224 254 q 422 98 342 133 q 594 63 501 63 m 344 1104 q 381 1214 344 1174 q 474 1254 417 1254 q 537 1242 508 1254 q 593 1213 565 1229 q 644 1183 619 1197 q 693 1169 668 1169 q 744 1189 725 1169 q 763 1250 763 1208 l 826 1250 q 792 1139 826 1179 q 694 1099 758 1099 q 623 1115 654 1099 q 564 1147 592 1131 q 519 1173 540 1161 q 474 1185 499 1185 q 428 1165 446 1185 q 410 1104 410 1144 l 344 1104 z "},"Ö":{"ha":1188,"x_min":74,"x_max":1115,"o":"m 414 1222 q 431 1265 414 1249 q 475 1282 449 1282 q 519 1265 503 1282 q 535 1222 535 1249 q 519 1178 535 1196 q 475 1161 503 1161 q 431 1178 447 1161 q 414 1222 414 1196 m 647 1222 q 665 1265 647 1249 q 708 1282 682 1282 q 752 1265 736 1282 q 768 1222 768 1249 q 752 1178 768 1196 q 708 1161 736 1161 q 664 1178 681 1161 q 647 1222 647 1196 m 594 -14 q 392 27 486 -14 q 226 139 297 68 q 115 304 156 210 q 74 507 74 399 q 115 710 74 615 q 226 875 156 804 q 392 987 297 946 q 594 1028 486 1028 q 797 987 703 1028 q 963 875 892 946 q 1074 710 1033 804 q 1115 507 1115 615 q 1074 304 1115 399 q 963 139 1033 210 q 797 27 892 68 q 594 -14 703 -14 m 594 63 q 767 98 688 63 q 906 194 847 133 q 999 335 965 254 q 1032 507 1032 415 q 999 680 1032 599 q 906 822 965 761 q 767 917 847 882 q 594 951 688 951 q 422 917 501 951 q 283 822 342 882 q 190 680 224 761 q 156 507 156 599 q 190 335 156 415 q 283 194 224 254 q 422 98 342 133 q 594 63 501 63 z "},"×":{"ha":660,"x_min":106,"x_max":556,"o":"m 106 328 l 283 506 l 106 685 l 153 732 l 331 553 l 508 731 l 556 683 l 378 506 l 556 329 l 508 282 l 331 458 l 153 281 l 106 328 z "},"Ø":{"ha":1188,"x_min":74,"x_max":1115,"o":"m 253 114 q 122 288 169 186 q 74 507 74 389 q 115 710 74 615 q 226 875 156 804 q 392 987 297 946 q 594 1028 486 1028 q 744 1006 674 1028 q 876 944 815 985 l 929 1014 l 1024 1014 l 936 899 q 1067 726 1019 826 q 1115 507 1115 625 q 1074 304 1115 399 q 963 139 1033 210 q 797 27 892 68 q 594 -14 703 -14 q 444 7 515 -14 q 313 68 374 28 l 261 0 l 167 0 l 253 114 m 156 507 q 194 323 156 408 q 299 176 232 238 l 831 882 q 720 933 779 915 q 594 951 661 951 q 422 917 501 951 q 283 822 342 882 q 190 680 224 761 q 156 507 156 599 m 594 63 q 767 98 688 63 q 906 194 847 133 q 999 335 965 254 q 1032 507 1032 415 q 994 690 1032 606 q 889 836 956 774 l 358 131 q 469 81 410 99 q 594 63 528 63 z "},"Ù":{"ha":890,"x_min":100,"x_max":790,"o":"m 444 -14 q 308 13 371 -14 q 199 85 244 39 q 126 195 153 132 q 100 331 100 258 l 100 1014 l 181 1014 l 181 326 q 201 224 181 272 q 256 140 221 175 q 340 83 292 104 q 444 63 389 63 q 549 83 500 63 q 633 140 597 104 q 689 224 668 176 q 710 328 710 272 l 710 1014 l 790 1014 l 790 331 q 764 195 790 258 q 691 85 738 132 q 581 13 644 39 q 444 -14 518 -14 m 218 1319 l 321 1319 l 488 1104 l 413 1104 l 218 1319 z "},"Ú":{"ha":890,"x_min":100,"x_max":790,"o":"m 554 1319 l 658 1319 l 464 1104 l 389 1104 l 554 1319 m 444 -14 q 308 13 371 -14 q 199 85 244 39 q 126 195 153 132 q 100 331 100 258 l 100 1014 l 181 1014 l 181 326 q 201 224 181 272 q 256 140 221 175 q 340 83 292 104 q 444 63 389 63 q 549 83 500 63 q 633 140 597 104 q 689 224 668 176 q 710 328 710 272 l 710 1014 l 790 1014 l 790 331 q 764 195 790 258 q 691 85 738 132 q 581 13 644 39 q 444 -14 518 -14 z "},"Û":{"ha":890,"x_min":100,"x_max":790,"o":"m 444 -14 q 308 13 371 -14 q 199 85 244 39 q 126 195 153 132 q 100 331 100 258 l 100 1014 l 181 1014 l 181 326 q 201 224 181 272 q 256 140 221 175 q 340 83 292 104 q 444 63 389 63 q 549 83 500 63 q 633 140 597 104 q 689 224 668 176 q 710 328 710 272 l 710 1014 l 790 1014 l 790 331 q 764 195 790 258 q 691 85 738 132 q 581 13 644 39 q 444 -14 518 -14 m 407 1319 l 475 1319 l 640 1104 l 556 1104 l 440 1257 l 325 1104 l 242 1104 l 407 1319 z "},"Ü":{"ha":890,"x_min":100,"x_max":790,"o":"m 267 1222 q 284 1265 267 1249 q 328 1282 301 1282 q 372 1265 356 1282 q 388 1222 388 1249 q 372 1178 388 1196 q 328 1161 356 1161 q 283 1178 300 1161 q 267 1222 267 1196 m 500 1222 q 517 1265 500 1249 q 561 1282 535 1282 q 605 1265 589 1282 q 621 1222 621 1249 q 605 1178 621 1196 q 561 1161 589 1161 q 517 1178 533 1161 q 500 1222 500 1196 m 444 -14 q 308 13 371 -14 q 199 85 244 39 q 126 195 153 132 q 100 331 100 258 l 100 1014 l 181 1014 l 181 326 q 201 224 181 272 q 256 140 221 175 q 340 83 292 104 q 444 63 389 63 q 549 83 500 63 q 633 140 597 104 q 689 224 668 176 q 710 328 710 272 l 710 1014 l 790 1014 l 790 331 q 764 195 790 258 q 691 85 738 132 q 581 13 644 39 q 444 -14 518 -14 z "},"Ý":{"ha":850,"x_min":46,"x_max":804,"o":"m 386 482 l 46 1014 l 136 1014 l 425 558 l 714 1014 l 804 1014 l 467 485 l 467 0 l 386 0 l 386 482 m 543 1319 l 647 1319 l 453 1104 l 378 1104 l 543 1319 z "},"Þ":{"ha":793,"x_min":101,"x_max":714,"o":"m 101 1014 l 182 1014 l 182 801 l 400 801 q 529 781 471 801 q 628 722 588 760 q 692 633 669 685 q 714 518 714 581 q 692 403 714 456 q 628 314 669 351 q 530 255 588 276 q 400 233 472 233 l 182 233 l 182 0 l 101 0 l 101 1014 m 182 726 l 182 307 l 394 307 q 569 366 506 307 q 632 518 632 425 q 569 668 632 610 q 394 726 506 726 l 182 726 z "},"ß":{"ha":892,"x_min":-83,"x_max":810,"o":"m -83 -297 q 75 -242 32 -297 q 118 -75 118 -186 l 118 883 q 140 1010 118 953 q 204 1110 163 1068 q 303 1175 246 1151 q 431 1199 361 1199 q 556 1175 499 1199 q 656 1110 614 1151 q 721 1014 697 1069 q 744 893 744 958 q 699 734 744 803 q 578 631 654 665 q 747 517 683 597 q 810 325 810 438 q 785 192 810 253 q 717 85 761 131 q 613 15 674 40 q 476 -11 551 -11 q 307 28 374 -11 l 314 103 q 476 63 379 63 q 575 83 529 63 q 655 140 621 104 q 709 223 689 175 q 729 325 729 271 q 709 426 729 379 q 651 509 689 474 q 561 565 614 544 q 444 585 508 585 l 415 585 l 415 660 l 444 660 q 526 677 486 660 q 596 726 565 694 q 645 801 626 757 q 664 896 664 844 q 647 985 664 943 q 598 1060 629 1028 q 524 1112 567 1093 q 431 1131 481 1131 q 339 1114 382 1131 q 264 1066 296 1097 q 213 991 232 1035 q 194 893 194 947 l 194 -72 q 134 -299 194 -226 q -69 -372 74 -372 l -83 -372 l -83 -297 z "},"à":{"ha":1038,"x_min":82,"x_max":919,"o":"m 501 -17 q 335 17 413 -17 q 202 108 258 50 q 114 242 146 165 q 82 406 82 318 q 114 570 82 493 q 202 705 146 647 q 335 796 258 763 q 501 829 413 829 q 602 816 551 829 q 698 776 653 803 q 781 712 743 750 q 842 625 818 674 l 842 813 l 919 813 l 919 0 l 842 0 l 842 186 q 781 99 818 138 q 698 35 743 61 q 602 -3 653 10 q 501 -17 551 -17 m 504 57 q 640 84 578 57 q 750 158 703 111 q 824 269 797 206 q 850 406 850 333 q 824 542 850 478 q 750 653 797 606 q 640 728 703 700 q 504 756 578 756 q 371 728 433 756 q 262 653 308 701 q 189 542 215 606 q 163 406 163 479 q 189 269 163 333 q 262 158 215 206 q 371 84 308 111 q 504 57 433 57 m 283 1132 l 386 1132 l 553 917 l 478 917 l 283 1132 z "},"á":{"ha":1038,"x_min":82,"x_max":919,"o":"m 501 -17 q 335 17 413 -17 q 202 108 258 50 q 114 242 146 165 q 82 406 82 318 q 114 570 82 493 q 202 705 146 647 q 335 796 258 763 q 501 829 413 829 q 602 816 551 829 q 698 776 653 803 q 781 712 743 750 q 842 625 818 674 l 842 813 l 919 813 l 919 0 l 842 0 l 842 186 q 781 99 818 138 q 698 35 743 61 q 602 -3 653 10 q 501 -17 551 -17 m 504 57 q 640 84 578 57 q 750 158 703 111 q 824 269 797 206 q 850 406 850 333 q 824 542 850 478 q 750 653 797 606 q 640 728 703 700 q 504 756 578 756 q 371 728 433 756 q 262 653 308 701 q 189 542 215 606 q 163 406 163 479 q 189 269 163 333 q 262 158 215 206 q 371 84 308 111 q 504 57 433 57 m 615 1132 l 719 1132 l 525 917 l 450 917 l 615 1132 z "},"â":{"ha":1038,"x_min":82,"x_max":919,"o":"m 501 -17 q 335 17 413 -17 q 202 108 258 50 q 114 242 146 165 q 82 406 82 318 q 114 570 82 493 q 202 705 146 647 q 335 796 258 763 q 501 829 413 829 q 602 816 551 829 q 698 776 653 803 q 781 712 743 750 q 842 625 818 674 l 842 813 l 919 813 l 919 0 l 842 0 l 842 186 q 781 99 818 138 q 698 35 743 61 q 602 -3 653 10 q 501 -17 551 -17 m 504 57 q 640 84 578 57 q 750 158 703 111 q 824 269 797 206 q 850 406 850 333 q 824 542 850 478 q 750 653 797 606 q 640 728 703 700 q 504 756 578 756 q 371 728 433 756 q 262 653 308 701 q 189 542 215 606 q 163 406 163 479 q 189 269 163 333 q 262 158 215 206 q 371 84 308 111 q 504 57 433 57 m 465 1124 l 533 1124 l 699 908 l 614 908 l 499 1061 l 383 908 l 300 908 l 465 1124 z "},"ã":{"ha":1038,"x_min":82,"x_max":919,"o":"m 501 -17 q 335 17 413 -17 q 202 108 258 50 q 114 242 146 165 q 82 406 82 318 q 114 570 82 493 q 202 705 146 647 q 335 796 258 763 q 501 829 413 829 q 602 816 551 829 q 698 776 653 803 q 781 712 743 750 q 842 625 818 674 l 842 813 l 919 813 l 919 0 l 842 0 l 842 186 q 781 99 818 138 q 698 35 743 61 q 602 -3 653 10 q 501 -17 551 -17 m 504 57 q 640 84 578 57 q 750 158 703 111 q 824 269 797 206 q 850 406 850 333 q 824 542 850 478 q 750 653 797 606 q 640 728 703 700 q 504 756 578 756 q 371 728 433 756 q 262 653 308 701 q 189 542 215 606 q 163 406 163 479 q 189 269 163 333 q 262 158 215 206 q 371 84 308 111 q 504 57 433 57 m 271 917 q 307 1026 271 986 q 400 1067 343 1067 q 463 1054 435 1067 q 519 1025 492 1042 q 570 996 546 1010 q 619 982 594 982 q 670 1001 651 982 q 689 1063 689 1021 l 753 1063 q 719 951 753 992 q 621 911 685 911 q 549 927 581 911 q 490 960 518 943 q 446 985 467 974 q 400 997 425 997 q 354 977 372 997 q 336 917 336 957 l 271 917 z "},"ä":{"ha":1038,"x_min":82,"x_max":919,"o":"m 501 -17 q 335 17 413 -17 q 202 108 258 50 q 114 242 146 165 q 82 406 82 318 q 114 570 82 493 q 202 705 146 647 q 335 796 258 763 q 501 829 413 829 q 602 816 551 829 q 698 776 653 803 q 781 712 743 750 q 842 625 818 674 l 842 813 l 919 813 l 919 0 l 842 0 l 842 186 q 781 99 818 138 q 698 35 743 61 q 602 -3 653 10 q 501 -17 551 -17 m 504 57 q 640 84 578 57 q 750 158 703 111 q 824 269 797 206 q 850 406 850 333 q 824 542 850 478 q 750 653 797 606 q 640 728 703 700 q 504 756 578 756 q 371 728 433 756 q 262 653 308 701 q 189 542 215 606 q 163 406 163 479 q 189 269 163 333 q 262 158 215 206 q 371 84 308 111 q 504 57 433 57 m 322 972 q 340 1015 322 999 q 383 1032 357 1032 q 427 1015 411 1032 q 443 972 443 999 q 427 928 443 946 q 383 911 411 911 q 339 928 356 911 q 322 972 322 946 m 556 972 q 573 1015 556 999 q 617 1032 590 1032 q 660 1015 644 1032 q 676 972 676 999 q 660 928 676 946 q 617 911 644 911 q 572 928 589 911 q 556 972 556 946 z "},"å":{"ha":1038,"x_min":82,"x_max":919,"o":"m 501 -17 q 335 17 413 -17 q 202 108 258 50 q 114 242 146 165 q 82 406 82 318 q 114 570 82 493 q 202 705 146 647 q 335 796 258 763 q 501 829 413 829 q 602 816 551 829 q 698 776 653 803 q 781 712 743 750 q 842 625 818 674 l 842 813 l 919 813 l 919 0 l 842 0 l 842 186 q 781 99 818 138 q 698 35 743 61 q 602 -3 653 10 q 501 -17 551 -17 m 504 57 q 640 84 578 57 q 750 158 703 111 q 824 269 797 206 q 850 406 850 333 q 824 542 850 478 q 750 653 797 606 q 640 728 703 700 q 504 756 578 756 q 371 728 433 756 q 262 653 308 701 q 189 542 215 606 q 163 406 163 479 q 189 269 163 333 q 262 158 215 206 q 371 84 308 111 q 504 57 433 57 m 507 910 q 410 949 450 910 q 371 1047 371 989 q 410 1146 371 1106 q 507 1186 450 1186 q 607 1146 567 1186 q 647 1047 647 1106 q 607 949 647 989 q 507 910 567 910 m 507 972 q 562 994 539 972 q 585 1047 585 1015 q 562 1101 585 1079 q 507 1124 539 1124 q 454 1101 476 1124 q 432 1047 432 1079 q 454 994 432 1015 q 507 972 476 972 z "},"æ":{"ha":1593,"x_min":82,"x_max":1508,"o":"m 1096 -17 q 873 39 969 -17 q 724 188 776 94 q 671 115 704 151 q 592 49 638 78 q 490 1 547 19 q 364 -17 432 -17 q 235 1 288 -17 q 149 48 182 18 q 99 117 115 78 q 83 201 83 157 q 106 303 82 261 q 172 373 131 344 q 270 419 214 401 q 389 450 326 438 q 498 473 444 463 q 593 499 551 483 q 660 540 635 515 q 685 601 685 564 q 624 718 685 672 q 440 764 564 764 q 244 703 314 764 q 174 544 174 642 l 174 539 l 99 539 l 99 542 q 123 660 99 607 q 192 750 147 713 q 299 808 236 788 q 439 829 361 829 q 647 783 569 829 q 749 658 725 738 q 894 783 806 738 q 1090 829 982 829 q 1256 799 1179 829 q 1388 713 1332 768 q 1476 581 1444 657 q 1508 414 1508 504 l 1508 386 l 746 386 q 776 255 749 315 q 851 150 804 194 q 960 81 897 106 q 1096 56 1024 56 q 1303 121 1218 56 q 1421 290 1389 186 l 1493 258 q 1435 145 1472 196 q 1346 58 1397 94 q 1232 3 1294 22 q 1096 -17 1169 -17 m 1090 757 q 965 734 1024 757 q 863 671 907 711 q 789 576 818 631 q 750 458 760 522 l 1425 458 q 1391 580 1418 525 q 1320 674 1364 635 q 1218 735 1276 714 q 1090 757 1160 757 m 367 51 q 485 72 432 51 q 578 123 538 92 q 646 192 618 154 q 689 264 674 229 q 668 403 668 329 q 669 440 668 422 q 674 476 671 458 q 583 425 646 442 q 419 389 519 408 q 317 366 364 379 q 237 332 271 353 q 183 280 203 311 q 164 203 164 249 q 175 144 164 172 q 210 96 186 117 q 274 63 235 75 q 367 51 313 51 z "},"ç":{"ha":968,"x_min":82,"x_max":894,"o":"m 499 -324 q 387 -303 433 -324 q 306 -250 340 -282 l 369 -211 q 425 -249 397 -235 q 499 -264 453 -264 q 578 -244 547 -264 q 610 -194 610 -225 q 580 -150 610 -167 q 494 -133 550 -133 l 449 -133 l 449 -12 q 302 34 369 -3 q 185 126 235 71 q 109 253 136 182 q 82 406 82 325 q 115 573 82 496 q 206 707 149 650 q 340 797 263 764 q 506 829 417 829 q 632 811 572 829 q 742 760 692 793 q 830 681 792 726 q 890 579 868 635 l 817 549 q 695 700 776 644 q 506 756 614 756 q 370 728 433 756 q 261 653 307 701 q 189 542 215 606 q 163 406 163 479 q 189 269 163 333 q 262 158 215 206 q 372 84 308 111 q 508 57 435 57 q 701 117 621 57 q 819 271 781 176 l 894 239 q 834 138 871 183 q 749 58 797 92 q 642 4 701 24 q 517 -17 583 -15 l 517 -82 q 638 -113 592 -83 q 685 -192 685 -143 q 670 -245 685 -221 q 631 -287 656 -269 q 572 -314 606 -304 q 499 -324 538 -324 z "},"è":{"ha":1003,"x_min":82,"x_max":918,"o":"m 508 -17 q 331 16 410 -17 q 197 105 251 49 q 112 238 142 161 q 82 403 82 314 q 114 571 82 493 q 202 706 146 649 q 336 796 258 763 q 504 829 414 829 q 669 799 593 829 q 800 713 744 768 q 887 581 856 657 q 918 415 918 506 l 918 379 l 158 379 q 189 250 163 310 q 261 147 215 190 q 369 80 307 104 q 508 56 432 56 q 707 113 626 56 q 828 272 788 171 l 899 239 q 749 50 844 117 q 508 -17 653 -17 m 504 757 q 378 733 436 757 q 274 669 319 710 q 199 574 229 629 q 161 453 169 518 l 838 453 q 805 576 832 519 q 735 672 778 632 q 633 735 692 713 q 504 757 575 757 m 294 1132 l 397 1132 l 564 917 l 489 917 l 294 1132 z "},"é":{"ha":1003,"x_min":82,"x_max":918,"o":"m 508 -17 q 331 16 410 -17 q 197 105 251 49 q 112 238 142 161 q 82 403 82 314 q 114 571 82 493 q 202 706 146 649 q 336 796 258 763 q 504 829 414 829 q 669 799 593 829 q 800 713 744 768 q 887 581 856 657 q 918 415 918 506 l 918 379 l 158 379 q 189 250 163 310 q 261 147 215 190 q 369 80 307 104 q 508 56 432 56 q 707 113 626 56 q 828 272 788 171 l 899 239 q 749 50 844 117 q 508 -17 653 -17 m 504 757 q 378 733 436 757 q 274 669 319 710 q 199 574 229 629 q 161 453 169 518 l 838 453 q 805 576 832 519 q 735 672 778 632 q 633 735 692 713 q 504 757 575 757 m 632 1132 l 736 1132 l 542 917 l 467 917 l 632 1132 z "},"ê":{"ha":1003,"x_min":82,"x_max":918,"o":"m 508 -17 q 331 16 410 -17 q 197 105 251 49 q 112 238 142 161 q 82 403 82 314 q 114 571 82 493 q 202 706 146 649 q 336 796 258 763 q 504 829 414 829 q 669 799 593 829 q 800 713 744 768 q 887 581 856 657 q 918 415 918 506 l 918 379 l 158 379 q 189 250 163 310 q 261 147 215 190 q 369 80 307 104 q 508 56 432 56 q 707 113 626 56 q 828 272 788 171 l 899 239 q 749 50 844 117 q 508 -17 653 -17 m 504 757 q 378 733 436 757 q 274 669 319 710 q 199 574 229 629 q 161 453 169 518 l 838 453 q 805 576 832 519 q 735 672 778 632 q 633 735 692 713 q 504 757 575 757 m 478 1126 l 546 1126 l 711 911 l 626 911 l 511 1064 l 396 911 l 313 911 l 478 1126 z "},"ë":{"ha":1003,"x_min":82,"x_max":918,"o":"m 508 -17 q 331 16 410 -17 q 197 105 251 49 q 112 238 142 161 q 82 403 82 314 q 114 571 82 493 q 202 706 146 649 q 336 796 258 763 q 504 829 414 829 q 669 799 593 829 q 800 713 744 768 q 887 581 856 657 q 918 415 918 506 l 918 379 l 158 379 q 189 250 163 310 q 261 147 215 190 q 369 80 307 104 q 508 56 432 56 q 707 113 626 56 q 828 272 788 171 l 899 239 q 749 50 844 117 q 508 -17 653 -17 m 504 757 q 378 733 436 757 q 274 669 319 710 q 199 574 229 629 q 161 453 169 518 l 838 453 q 805 576 832 519 q 735 672 778 632 q 633 735 692 713 q 504 757 575 757 m 564 971 q 581 1014 564 997 q 625 1031 599 1031 q 669 1014 653 1031 q 685 971 685 997 q 669 927 685 944 q 625 910 653 910 q 581 927 597 910 q 564 971 564 944 m 331 971 q 348 1014 331 997 q 392 1031 365 1031 q 435 1014 419 1031 q 451 971 451 997 q 435 927 451 944 q 392 910 419 910 q 347 927 364 910 q 331 971 331 944 z "},"ì":{"ha":314,"x_min":-75,"x_max":197,"o":"m 118 813 l 197 813 l 197 0 l 118 0 l 118 813 m -75 1118 l 28 1118 l 194 903 l 119 903 l -75 1118 z "},"í":{"ha":314,"x_min":118,"x_max":392,"o":"m 288 1118 l 392 1118 l 197 903 l 122 903 l 288 1118 m 118 813 l 197 813 l 197 0 l 118 0 l 118 813 z "},"î":{"ha":314,"x_min":-42,"x_max":357,"o":"m 118 813 l 197 813 l 197 0 l 118 0 l 118 813 m 124 1093 l 192 1093 l 357 878 l 272 878 l 157 1031 l 42 878 l -42 878 l 124 1093 z "},"ï":{"ha":314,"x_min":-39,"x_max":353,"o":"m 274 1131 l 353 1131 l 353 903 l 274 903 l 274 1131 m -39 1131 l 39 1131 l 39 903 l -39 903 l -39 1131 m 118 813 l 197 813 l 197 0 l 118 0 l 118 813 z "},"ð":{"ha":999,"x_min":85,"x_max":913,"o":"m 454 1046 q 369 1115 414 1081 q 275 1186 324 1150 l 397 1186 q 460 1137 429 1161 q 518 1089 490 1113 l 665 1186 l 783 1186 l 568 1043 q 828 722 744 881 q 913 397 913 563 q 881 238 913 313 q 792 108 849 163 q 661 21 736 53 q 499 -11 586 -11 q 338 20 413 -11 q 206 106 263 51 q 117 236 150 161 q 85 397 85 311 q 117 558 85 483 q 204 688 149 633 q 333 775 260 743 q 490 807 407 807 q 654 772 585 807 q 768 679 724 738 q 506 1001 692 833 l 344 896 l 225 896 l 454 1046 m 500 63 q 630 89 569 63 q 735 160 690 115 q 806 267 781 206 q 832 397 832 328 q 806 526 832 465 q 735 633 781 588 q 630 706 690 679 q 500 732 569 732 q 371 706 432 732 q 265 634 310 679 q 193 528 219 589 q 167 397 167 467 q 193 267 167 328 q 265 160 219 206 q 371 89 310 115 q 500 63 432 63 z "},"ñ":{"ha":982,"x_min":118,"x_max":868,"o":"m 118 813 l 194 813 l 194 647 q 317 778 235 728 q 507 829 399 829 q 655 803 589 829 q 769 729 721 778 q 842 612 817 681 q 868 456 868 543 l 868 0 l 789 0 l 789 457 q 769 580 789 525 q 711 674 749 635 q 619 734 674 713 q 497 756 565 756 q 378 733 433 756 q 283 669 324 710 q 220 574 243 629 q 197 456 197 519 l 197 0 l 118 0 l 118 813 m 261 917 q 297 1026 261 986 q 390 1067 333 1067 q 453 1054 425 1067 q 510 1025 482 1042 q 560 996 536 1010 q 610 982 585 982 q 660 1001 642 982 q 679 1063 679 1021 l 743 1063 q 709 951 743 992 q 611 911 675 911 q 540 927 571 911 q 481 960 508 943 q 436 985 457 974 q 390 997 415 997 q 344 977 363 997 q 326 917 326 957 l 261 917 z "},"ò":{"ha":1008,"x_min":82,"x_max":926,"o":"m 504 -17 q 340 16 417 -17 q 205 106 263 49 q 115 240 147 163 q 82 406 82 317 q 115 572 82 494 q 205 706 147 649 q 340 797 263 764 q 504 829 417 829 q 669 797 592 829 q 803 706 746 764 q 893 572 860 649 q 926 406 926 494 q 893 240 926 317 q 803 106 860 163 q 669 16 746 49 q 504 -17 592 -17 m 504 57 q 638 84 575 57 q 746 158 700 111 q 818 269 792 206 q 844 406 844 333 q 818 542 844 479 q 746 653 792 606 q 638 728 700 701 q 504 756 575 756 q 369 728 432 756 q 261 653 307 701 q 189 542 215 606 q 163 406 163 479 q 189 269 163 333 q 261 158 215 206 q 369 84 307 111 q 504 57 432 57 m 276 1132 l 379 1132 l 546 917 l 471 917 l 276 1132 z "},"ó":{"ha":1008,"x_min":82,"x_max":926,"o":"m 633 1132 l 738 1132 l 543 917 l 468 917 l 633 1132 m 504 -17 q 340 16 417 -17 q 205 106 263 49 q 115 240 147 163 q 82 406 82 317 q 115 572 82 494 q 205 706 147 649 q 340 797 263 764 q 504 829 417 829 q 669 797 592 829 q 803 706 746 764 q 893 572 860 649 q 926 406 926 494 q 893 240 926 317 q 803 106 860 163 q 669 16 746 49 q 504 -17 592 -17 m 504 57 q 638 84 575 57 q 746 158 700 111 q 818 269 792 206 q 844 406 844 333 q 818 542 844 479 q 746 653 792 606 q 638 728 700 701 q 504 756 575 756 q 369 728 432 756 q 261 653 307 701 q 189 542 215 606 q 163 406 163 479 q 189 269 163 333 q 261 158 215 206 q 369 84 307 111 q 504 57 432 57 z "},"ô":{"ha":1008,"x_min":82,"x_max":926,"o":"m 504 -17 q 340 16 417 -17 q 205 106 263 49 q 115 240 147 163 q 82 406 82 317 q 115 572 82 494 q 205 706 147 649 q 340 797 263 764 q 504 829 417 829 q 669 797 592 829 q 803 706 746 764 q 893 572 860 649 q 926 406 926 494 q 893 240 926 317 q 803 106 860 163 q 669 16 746 49 q 504 -17 592 -17 m 504 57 q 638 84 575 57 q 746 158 700 111 q 818 269 792 206 q 844 406 844 333 q 818 542 844 479 q 746 653 792 606 q 638 728 700 701 q 504 756 575 756 q 369 728 432 756 q 261 653 307 701 q 189 542 215 606 q 163 406 163 479 q 189 269 163 333 q 261 158 215 206 q 369 84 307 111 q 504 57 432 57 m 469 1126 l 538 1126 l 703 911 l 618 911 l 503 1064 l 388 911 l 304 911 l 469 1126 z "},"õ":{"ha":1008,"x_min":82,"x_max":926,"o":"m 504 -17 q 340 16 417 -17 q 205 106 263 49 q 115 240 147 163 q 82 406 82 317 q 115 572 82 494 q 205 706 147 649 q 340 797 263 764 q 504 829 417 829 q 669 797 592 829 q 803 706 746 764 q 893 572 860 649 q 926 406 926 494 q 893 240 926 317 q 803 106 860 163 q 669 16 746 49 q 504 -17 592 -17 m 504 57 q 638 84 575 57 q 746 158 700 111 q 818 269 792 206 q 844 406 844 333 q 818 542 844 479 q 746 653 792 606 q 638 728 700 701 q 504 756 575 756 q 369 728 432 756 q 261 653 307 701 q 189 542 215 606 q 163 406 163 479 q 189 269 163 333 q 261 158 215 206 q 369 84 307 111 q 504 57 432 57 m 264 917 q 300 1026 264 986 q 393 1067 336 1067 q 456 1054 428 1067 q 513 1025 485 1042 q 563 996 539 1010 q 613 982 588 982 q 663 1001 644 982 q 682 1063 682 1021 l 746 1063 q 712 951 746 992 q 614 911 678 911 q 542 927 574 911 q 483 960 511 943 q 439 985 460 974 q 393 997 418 997 q 347 977 365 997 q 329 917 329 957 l 264 917 z "},"ö":{"ha":1008,"x_min":82,"x_max":926,"o":"m 328 969 q 345 1013 328 996 q 389 1029 363 1029 q 433 1013 417 1029 q 449 969 449 996 q 433 926 449 943 q 389 908 417 908 q 344 926 361 908 q 328 969 328 943 m 561 969 q 578 1013 561 996 q 622 1029 596 1029 q 666 1013 650 1029 q 682 969 682 996 q 666 926 682 943 q 622 908 650 908 q 578 926 594 908 q 561 969 561 943 m 504 -17 q 340 16 417 -17 q 205 106 263 49 q 115 240 147 163 q 82 406 82 317 q 115 572 82 494 q 205 706 147 649 q 340 797 263 764 q 504 829 417 829 q 669 797 592 829 q 803 706 746 764 q 893 572 860 649 q 926 406 926 494 q 893 240 926 317 q 803 106 860 163 q 669 16 746 49 q 504 -17 592 -17 m 504 57 q 638 84 575 57 q 746 158 700 111 q 818 269 792 206 q 844 406 844 333 q 818 542 844 479 q 746 653 792 606 q 638 728 700 701 q 504 756 575 756 q 369 728 432 756 q 261 653 307 701 q 189 542 215 606 q 163 406 163 479 q 189 269 163 333 q 261 158 215 206 q 369 84 307 111 q 504 57 432 57 z "},"÷":{"ha":660,"x_min":74,"x_max":588,"o":"m 74 542 l 588 542 l 588 472 l 74 472 l 74 542 m 296 786 l 365 786 l 365 617 l 296 617 l 296 786 m 296 394 l 365 394 l 365 226 l 296 226 l 296 394 z "},"ø":{"ha":1008,"x_min":82,"x_max":926,"o":"m 504 -17 q 385 0 442 -17 q 279 47 328 17 l 244 0 l 157 0 l 222 89 q 119 228 157 147 q 82 406 82 310 q 115 572 82 494 q 205 706 147 649 q 340 797 263 764 q 504 829 417 829 q 623 813 567 829 q 728 765 679 796 l 763 813 l 853 813 l 785 722 q 889 583 851 664 q 926 406 926 501 q 893 240 926 317 q 803 106 860 163 q 669 16 746 49 q 504 -17 592 -17 m 163 406 q 191 264 163 329 q 269 150 219 199 l 682 704 q 504 756 603 756 q 369 728 432 756 q 261 653 307 701 q 189 542 215 606 q 163 406 163 479 m 504 57 q 638 84 575 57 q 746 158 700 111 q 818 269 792 206 q 844 406 844 333 q 816 546 844 481 q 739 660 788 611 l 325 107 q 409 70 364 83 q 504 57 454 57 z "},"ù":{"ha":982,"x_min":114,"x_max":865,"o":"m 479 -17 q 326 9 394 -17 q 211 83 258 35 q 139 201 164 132 q 114 357 114 269 l 114 813 l 194 813 l 194 356 q 214 233 194 288 q 271 139 233 178 q 363 78 308 100 q 485 57 417 57 q 603 80 549 57 q 699 143 658 103 q 763 238 740 183 q 786 357 786 293 l 786 813 l 865 813 l 865 0 l 788 0 l 788 165 q 667 34 747 85 q 479 -17 586 -17 m 264 1115 l 367 1115 l 533 900 l 458 900 l 264 1115 z "},"ú":{"ha":982,"x_min":114,"x_max":865,"o":"m 479 -17 q 326 9 394 -17 q 211 83 258 35 q 139 201 164 132 q 114 357 114 269 l 114 813 l 194 813 l 194 356 q 214 233 194 288 q 271 139 233 178 q 363 78 308 100 q 485 57 417 57 q 603 80 549 57 q 699 143 658 103 q 763 238 740 183 q 786 357 786 293 l 786 813 l 865 813 l 865 0 l 788 0 l 788 165 q 667 34 747 85 q 479 -17 586 -17 m 601 1106 l 706 1106 l 511 890 l 436 890 l 601 1106 z "},"û":{"ha":982,"x_min":114,"x_max":865,"o":"m 479 -17 q 326 9 394 -17 q 211 83 258 35 q 139 201 164 132 q 114 357 114 269 l 114 813 l 194 813 l 194 356 q 214 233 194 288 q 271 139 233 178 q 363 78 308 100 q 485 57 417 57 q 603 80 549 57 q 699 143 658 103 q 763 238 740 183 q 786 357 786 293 l 786 813 l 865 813 l 865 0 l 788 0 l 788 165 q 667 34 747 85 q 479 -17 586 -17 m 457 1118 l 525 1118 l 690 903 l 606 903 l 490 1056 l 375 903 l 292 903 l 457 1118 z "},"ü":{"ha":982,"x_min":114,"x_max":865,"o":"m 479 -17 q 326 9 394 -17 q 211 83 258 35 q 139 201 164 132 q 114 357 114 269 l 114 813 l 194 813 l 194 356 q 214 233 194 288 q 271 139 233 178 q 363 78 308 100 q 485 57 417 57 q 603 80 549 57 q 699 143 658 103 q 763 238 740 183 q 786 357 786 293 l 786 813 l 865 813 l 865 0 l 788 0 l 788 165 q 667 34 747 85 q 479 -17 586 -17 m 546 963 q 563 1006 546 989 q 607 1022 581 1022 q 651 1006 635 1022 q 667 963 667 989 q 651 919 667 936 q 607 901 635 901 q 563 919 579 901 q 546 963 546 936 m 313 963 q 330 1006 313 989 q 374 1022 347 1022 q 417 1006 401 1022 q 433 963 433 989 q 417 919 433 936 q 374 901 401 901 q 329 919 346 901 q 313 963 313 936 z "},"ý":{"ha":908,"x_min":60,"x_max":850,"o":"m 424 46 l 60 813 l 149 813 l 467 136 l 764 813 l 850 813 l 319 -375 l 233 -375 l 424 46 m 575 1092 l 679 1092 l 485 876 l 410 876 l 575 1092 z "},"þ":{"ha":1038,"x_min":119,"x_max":956,"o":"m 536 -17 q 436 -3 486 -17 q 341 35 386 10 q 258 97 296 60 q 197 182 221 135 l 197 -374 l 119 -374 l 119 1186 l 197 1186 l 197 631 q 258 715 221 678 q 341 777 296 751 q 436 816 386 803 q 536 829 486 829 q 702 796 625 829 q 835 705 779 763 q 924 570 892 647 q 956 406 956 493 q 923 242 956 318 q 834 108 890 165 q 701 17 778 50 q 536 -17 625 -17 m 533 57 q 667 84 604 57 q 775 158 729 111 q 847 269 821 206 q 874 406 874 333 q 847 542 874 479 q 775 653 821 606 q 667 728 729 701 q 533 756 604 756 q 397 728 460 756 q 287 653 333 700 q 214 542 240 606 q 188 406 188 478 q 214 269 188 333 q 287 158 240 206 q 397 84 333 111 q 533 57 460 57 z "},"ÿ":{"ha":908,"x_min":60,"x_max":850,"o":"m 424 46 l 60 813 l 149 813 l 467 136 l 764 813 l 850 813 l 319 -375 l 233 -375 l 424 46 m 517 951 q 534 994 517 978 q 578 1011 551 1011 q 622 994 606 1011 q 638 951 638 978 q 622 908 638 925 q 578 890 606 890 q 533 908 550 890 q 517 951 517 925 m 283 951 q 301 994 283 978 q 344 1011 318 1011 q 388 994 372 1011 q 404 951 404 978 q 388 908 404 925 q 344 890 372 890 q 300 908 317 890 q 283 951 283 925 z "},"Ā":{"ha":969,"x_min":51,"x_max":918,"o":"m 442 1014 l 528 1014 l 918 0 l 833 0 l 724 283 l 244 283 l 136 0 l 51 0 l 442 1014 m 274 360 l 694 360 l 485 907 l 274 360 m 297 1174 l 664 1174 l 664 1104 l 297 1104 l 297 1174 z "},"ā":{"ha":1038,"x_min":82,"x_max":919,"o":"m 501 -17 q 335 17 413 -17 q 202 108 258 50 q 114 242 146 165 q 82 406 82 318 q 114 570 82 493 q 202 705 146 647 q 335 796 258 763 q 501 829 413 829 q 602 816 551 829 q 698 776 653 803 q 781 712 743 750 q 842 625 818 674 l 842 813 l 919 813 l 919 0 l 842 0 l 842 186 q 781 99 818 138 q 698 35 743 61 q 602 -3 653 10 q 501 -17 551 -17 m 504 57 q 640 84 578 57 q 750 158 703 111 q 824 269 797 206 q 850 406 850 333 q 824 542 850 478 q 750 653 797 606 q 640 728 703 700 q 504 756 578 756 q 371 728 433 756 q 262 653 308 701 q 189 542 215 606 q 163 406 163 479 q 189 269 163 333 q 262 158 215 206 q 371 84 308 111 q 504 57 433 57 m 319 994 l 686 994 l 686 925 l 319 925 l 319 994 z "},"Ă":{"ha":969,"x_min":51,"x_max":918,"o":"m 442 1014 l 528 1014 l 918 0 l 833 0 l 724 283 l 244 283 l 136 0 l 51 0 l 442 1014 m 274 360 l 694 360 l 485 907 l 274 360 m 478 1099 q 378 1117 421 1099 q 308 1165 336 1135 q 267 1234 281 1194 q 254 1317 254 1274 l 322 1317 q 361 1206 322 1251 q 478 1160 400 1160 q 592 1206 553 1160 q 632 1317 632 1251 l 703 1317 q 688 1234 703 1274 q 643 1165 672 1194 q 572 1117 614 1135 q 478 1099 531 1099 z "},"ă":{"ha":1038,"x_min":82,"x_max":919,"o":"m 501 -17 q 335 17 413 -17 q 202 108 258 50 q 114 242 146 165 q 82 406 82 318 q 114 570 82 493 q 202 705 146 647 q 335 796 258 763 q 501 829 413 829 q 602 816 551 829 q 698 776 653 803 q 781 712 743 750 q 842 625 818 674 l 842 813 l 919 813 l 919 0 l 842 0 l 842 186 q 781 99 818 138 q 698 35 743 61 q 602 -3 653 10 q 501 -17 551 -17 m 504 57 q 640 84 578 57 q 750 158 703 111 q 824 269 797 206 q 850 406 850 333 q 824 542 850 478 q 750 653 797 606 q 640 728 703 700 q 504 756 578 756 q 371 728 433 756 q 262 653 308 701 q 189 542 215 606 q 163 406 163 479 q 189 269 163 333 q 262 158 215 206 q 371 84 308 111 q 504 57 433 57 m 506 913 q 406 931 449 913 q 336 978 364 949 q 295 1048 308 1008 q 282 1131 282 1088 l 350 1131 q 389 1019 350 1065 q 506 974 428 974 q 620 1019 581 974 q 660 1131 660 1065 l 731 1131 q 715 1048 731 1088 q 671 978 700 1008 q 600 931 642 949 q 506 913 558 913 z "},"Ą":{"ha":969,"x_min":51,"x_max":1029,"o":"m 847 -289 q 717 -251 767 -289 q 668 -157 668 -214 q 703 -67 668 -110 q 825 21 738 -24 l 724 283 l 244 283 l 136 0 l 51 0 l 442 1014 l 528 1014 l 918 0 q 835 -49 868 -28 q 783 -87 803 -69 q 756 -120 764 -104 q 749 -153 749 -136 q 776 -205 749 -186 q 847 -224 804 -224 q 914 -208 886 -224 q 967 -169 942 -192 l 1029 -212 q 948 -266 996 -243 q 847 -289 900 -289 m 274 360 l 694 360 l 485 907 l 274 360 z "},"ą":{"ha":1038,"x_min":82,"x_max":1035,"o":"m 501 -17 q 335 17 413 -17 q 202 108 258 50 q 114 242 146 165 q 82 406 82 318 q 114 570 82 493 q 202 705 146 647 q 335 796 258 763 q 501 829 413 829 q 602 816 551 829 q 698 776 653 803 q 781 712 743 750 q 842 625 818 674 l 842 813 l 919 813 l 919 0 q 835 -84 864 -44 q 806 -160 806 -124 q 828 -214 806 -193 q 888 -235 850 -235 q 944 -222 921 -235 q 989 -190 967 -210 l 1035 -246 q 967 -286 1006 -269 q 888 -303 929 -303 q 769 -261 807 -303 q 731 -162 731 -219 q 762 -68 731 -114 q 842 18 793 -22 l 842 186 q 781 99 818 138 q 698 35 743 61 q 602 -3 653 10 q 501 -17 551 -17 m 504 57 q 640 84 578 57 q 750 158 703 111 q 824 269 797 206 q 850 406 850 333 q 824 542 850 478 q 750 653 797 606 q 640 728 703 700 q 504 756 578 756 q 371 728 433 756 q 262 653 308 701 q 189 542 215 606 q 163 406 163 479 q 189 269 163 333 q 262 158 215 206 q 371 84 308 111 q 504 57 433 57 z "},"Ć":{"ha":1106,"x_min":74,"x_max":1056,"o":"m 713 1319 l 817 1319 l 622 1104 l 547 1104 l 713 1319 m 594 -14 q 392 27 486 -14 q 226 139 297 68 q 115 304 156 210 q 74 507 74 399 q 115 710 74 615 q 226 875 156 804 q 392 987 297 946 q 594 1028 486 1028 q 731 1009 665 1028 q 855 957 797 990 q 960 876 913 924 q 1042 772 1007 829 l 972 732 q 817 892 915 831 q 594 953 718 953 q 422 917 501 953 q 283 822 342 882 q 190 680 224 761 q 156 507 156 599 q 190 335 156 415 q 283 194 224 254 q 422 98 342 133 q 594 63 501 63 q 830 127 729 63 q 985 296 931 192 l 1056 260 q 975 148 1022 199 q 869 61 928 97 q 740 6 810 25 q 594 -14 671 -14 z "},"ć":{"ha":968,"x_min":82,"x_max":894,"o":"m 624 1132 l 728 1132 l 533 917 l 458 917 l 624 1132 m 507 -17 q 339 17 417 -17 q 204 107 261 50 q 115 241 147 164 q 82 406 82 318 q 115 573 82 496 q 206 707 149 650 q 340 797 263 764 q 506 829 417 829 q 632 811 572 829 q 742 760 692 793 q 830 681 792 726 q 890 579 868 635 l 817 549 q 695 700 776 644 q 506 756 614 756 q 370 728 433 756 q 261 653 307 701 q 189 542 215 606 q 163 406 163 479 q 189 269 163 333 q 262 158 215 206 q 372 84 308 111 q 508 57 435 57 q 701 117 621 57 q 819 271 781 176 l 894 239 q 833 136 871 183 q 747 55 796 89 q 637 2 697 21 q 507 -17 576 -17 z "},"Ĉ":{"ha":1106,"x_min":74,"x_max":1056,"o":"m 594 -14 q 392 27 486 -14 q 226 139 297 68 q 115 304 156 210 q 74 507 74 399 q 115 710 74 615 q 226 875 156 804 q 392 987 297 946 q 594 1028 486 1028 q 731 1009 665 1028 q 855 957 797 990 q 960 876 913 924 q 1042 772 1007 829 l 972 732 q 817 892 915 831 q 594 953 718 953 q 422 917 501 953 q 283 822 342 882 q 190 680 224 761 q 156 507 156 599 q 190 335 156 415 q 283 194 224 254 q 422 98 342 133 q 594 63 501 63 q 830 127 729 63 q 985 296 931 192 l 1056 260 q 975 148 1022 199 q 869 61 928 97 q 740 6 810 25 q 594 -14 671 -14 m 558 1319 l 626 1319 l 792 1104 l 707 1104 l 592 1257 l 476 1104 l 393 1104 l 558 1319 z "},"ĉ":{"ha":968,"x_min":82,"x_max":894,"o":"m 507 -17 q 339 17 417 -17 q 204 107 261 50 q 115 241 147 164 q 82 406 82 318 q 115 573 82 496 q 206 707 149 650 q 340 797 263 764 q 506 829 417 829 q 632 811 572 829 q 742 760 692 793 q 830 681 792 726 q 890 579 868 635 l 817 549 q 695 700 776 644 q 506 756 614 756 q 370 728 433 756 q 261 653 307 701 q 189 542 215 606 q 163 406 163 479 q 189 269 163 333 q 262 158 215 206 q 372 84 308 111 q 508 57 435 57 q 701 117 621 57 q 819 271 781 176 l 894 239 q 833 136 871 183 q 747 55 796 89 q 637 2 697 21 q 507 -17 576 -17 m 472 1126 l 540 1126 l 706 911 l 621 911 l 506 1064 l 390 911 l 307 911 l 472 1126 z "},"Ċ":{"ha":1106,"x_min":74,"x_max":1056,"o":"m 594 -14 q 392 27 486 -14 q 226 139 297 68 q 115 304 156 210 q 74 507 74 399 q 115 710 74 615 q 226 875 156 804 q 392 987 297 946 q 594 1028 486 1028 q 731 1009 665 1028 q 855 957 797 990 q 960 876 913 924 q 1042 772 1007 829 l 972 732 q 817 892 915 831 q 594 953 718 953 q 422 917 501 953 q 283 822 342 882 q 190 680 224 761 q 156 507 156 599 q 190 335 156 415 q 283 194 224 254 q 422 98 342 133 q 594 63 501 63 q 830 127 729 63 q 985 296 931 192 l 1056 260 q 975 148 1022 199 q 869 61 928 97 q 740 6 810 25 q 594 -14 671 -14 m 535 1222 q 554 1270 535 1251 q 603 1289 574 1289 q 653 1270 635 1289 q 671 1222 671 1251 q 653 1174 671 1193 q 603 1154 635 1154 q 553 1174 571 1154 q 535 1222 535 1193 z "},"ċ":{"ha":968,"x_min":82,"x_max":894,"o":"m 507 -17 q 339 17 417 -17 q 204 107 261 50 q 115 241 147 164 q 82 406 82 318 q 115 573 82 496 q 206 707 149 650 q 340 797 263 764 q 506 829 417 829 q 632 811 572 829 q 742 760 692 793 q 830 681 792 726 q 890 579 868 635 l 817 549 q 695 700 776 644 q 506 756 614 756 q 370 728 433 756 q 261 653 307 701 q 189 542 215 606 q 163 406 163 479 q 189 269 163 333 q 262 158 215 206 q 372 84 308 111 q 508 57 435 57 q 701 117 621 57 q 819 271 781 176 l 894 239 q 833 136 871 183 q 747 55 796 89 q 637 2 697 21 q 507 -17 576 -17 m 438 981 q 457 1028 438 1010 q 506 1047 476 1047 q 556 1028 538 1047 q 574 981 574 1010 q 556 932 574 951 q 506 913 538 913 q 456 932 474 913 q 438 981 438 951 z "},"Č":{"ha":1106,"x_min":74,"x_max":1056,"o":"m 594 -14 q 392 27 486 -14 q 226 139 297 68 q 115 304 156 210 q 74 507 74 399 q 115 710 74 615 q 226 875 156 804 q 392 987 297 946 q 594 1028 486 1028 q 731 1009 665 1028 q 855 957 797 990 q 960 876 913 924 q 1042 772 1007 829 l 972 732 q 817 892 915 831 q 594 953 718 953 q 422 917 501 953 q 283 822 342 882 q 190 680 224 761 q 156 507 156 599 q 190 335 156 415 q 283 194 224 254 q 422 98 342 133 q 594 63 501 63 q 830 127 729 63 q 985 296 931 192 l 1056 260 q 975 148 1022 199 q 869 61 928 97 q 740 6 810 25 q 594 -14 671 -14 m 389 1319 l 471 1319 l 583 1161 l 700 1319 l 782 1319 l 618 1104 l 551 1104 l 389 1319 z "},"č":{"ha":968,"x_min":82,"x_max":894,"o":"m 507 -17 q 339 17 417 -17 q 204 107 261 50 q 115 241 147 164 q 82 406 82 318 q 115 573 82 496 q 206 707 149 650 q 340 797 263 764 q 506 829 417 829 q 632 811 572 829 q 742 760 692 793 q 830 681 792 726 q 890 579 868 635 l 817 549 q 695 700 776 644 q 506 756 614 756 q 370 728 433 756 q 261 653 307 701 q 189 542 215 606 q 163 406 163 479 q 189 269 163 333 q 262 158 215 206 q 372 84 308 111 q 508 57 435 57 q 701 117 621 57 q 819 271 781 176 l 894 239 q 833 136 871 183 q 747 55 796 89 q 637 2 697 21 q 507 -17 576 -17 m 313 1132 l 394 1132 l 507 974 l 624 1132 l 706 1132 l 542 917 l 475 917 l 313 1132 z "},"Ď":{"ha":988,"x_min":104,"x_max":914,"o":"m 104 1014 l 389 1014 q 600 975 504 1014 q 766 868 696 936 q 875 708 836 800 q 914 507 914 615 q 874 306 914 399 q 763 145 833 213 q 598 39 693 78 q 392 0 503 0 l 104 0 l 104 1014 m 185 940 l 185 75 l 386 75 q 563 108 482 75 q 704 199 644 140 q 798 336 764 257 q 832 507 832 415 q 799 678 832 599 q 707 815 767 757 q 565 907 647 874 q 383 940 483 940 l 185 940 m 219 1319 l 301 1319 l 414 1161 l 531 1319 l 613 1319 l 449 1104 l 382 1104 l 219 1319 z "},"ď":{"ha":1047,"x_min":82,"x_max":1131,"o":"m 501 -17 q 335 17 413 -17 q 202 108 258 50 q 114 242 146 165 q 82 406 82 318 q 114 570 82 493 q 202 705 146 647 q 335 796 258 763 q 501 829 413 829 q 601 816 551 829 q 696 777 651 803 q 778 715 740 751 q 840 629 815 678 l 840 1028 l 918 1028 l 918 0 l 842 0 l 842 186 q 781 99 818 138 q 698 35 743 61 q 602 -3 653 10 q 501 -17 551 -17 m 504 57 q 640 84 578 57 q 750 158 703 111 q 824 269 797 206 q 850 406 850 333 q 824 542 850 478 q 750 653 797 606 q 640 728 703 700 q 504 756 578 756 q 371 728 433 756 q 262 653 308 701 q 189 542 215 606 q 163 406 163 479 q 189 269 163 333 q 262 158 215 206 q 371 84 308 111 q 504 57 433 57 m 1054 1028 l 1131 1028 l 1043 789 l 986 789 l 1054 1028 z "},"Đ":{"ha":1015,"x_min":31,"x_max":943,"o":"m 31 551 l 135 551 l 135 1014 l 417 1014 q 628 975 532 1014 q 795 868 725 936 q 904 708 865 800 q 943 507 943 615 q 903 306 943 399 q 792 145 863 213 q 626 39 722 78 q 419 0 531 0 l 135 0 l 135 474 l 31 474 l 31 551 m 215 940 l 215 551 l 536 551 l 536 474 l 215 474 l 215 75 l 413 75 q 591 108 508 75 q 734 199 674 140 q 828 336 794 257 q 863 507 863 415 q 829 678 863 599 q 735 815 796 757 q 592 907 675 874 q 410 940 510 940 l 215 940 z "},"đ":{"ha":1056,"x_min":82,"x_max":1011,"o":"m 690 936 l 840 936 l 840 1028 l 918 1028 l 918 936 l 1011 936 l 1011 868 l 918 868 l 918 0 l 842 0 l 842 186 q 781 99 818 138 q 698 35 743 61 q 602 -3 653 10 q 501 -17 551 -17 q 335 17 413 -17 q 202 108 258 50 q 114 242 146 165 q 82 406 82 318 q 114 570 82 493 q 202 705 146 647 q 335 796 258 763 q 501 829 413 829 q 601 816 551 829 q 696 777 651 803 q 778 715 740 751 q 840 629 815 678 l 840 868 l 690 868 l 690 936 m 504 57 q 640 84 578 57 q 750 158 703 111 q 824 269 797 206 q 850 406 850 333 q 824 542 850 478 q 750 653 797 606 q 640 728 703 700 q 504 756 578 756 q 371 728 433 756 q 262 653 308 701 q 189 542 215 606 q 163 406 163 479 q 189 269 163 333 q 262 158 215 206 q 371 84 308 111 q 504 57 433 57 z "},"Ē":{"ha":815,"x_min":104,"x_max":725,"o":"m 104 1014 l 725 1014 l 725 938 l 185 938 l 185 546 l 725 546 l 725 471 l 185 471 l 185 76 l 725 76 l 725 0 l 104 0 l 104 1014 m 226 1174 l 593 1174 l 593 1104 l 226 1104 l 226 1174 z "},"ē":{"ha":1003,"x_min":82,"x_max":918,"o":"m 508 -17 q 331 16 410 -17 q 197 105 251 49 q 112 238 142 161 q 82 403 82 314 q 114 571 82 493 q 202 706 146 649 q 336 796 258 763 q 504 829 414 829 q 669 799 593 829 q 800 713 744 768 q 887 581 856 657 q 918 415 918 506 l 918 379 l 158 379 q 189 250 163 310 q 261 147 215 190 q 369 80 307 104 q 508 56 432 56 q 707 113 626 56 q 828 272 788 171 l 899 239 q 749 50 844 117 q 508 -17 653 -17 m 504 757 q 378 733 436 757 q 274 669 319 710 q 199 574 229 629 q 161 453 169 518 l 838 453 q 805 576 832 519 q 735 672 778 632 q 633 735 692 713 q 504 757 575 757 m 329 999 l 696 999 l 696 929 l 329 929 l 329 999 z "},"Ĕ":{"ha":815,"x_min":104,"x_max":725,"o":"m 104 1014 l 725 1014 l 725 938 l 185 938 l 185 546 l 725 546 l 725 471 l 185 471 l 185 76 l 725 76 l 725 0 l 104 0 l 104 1014 m 414 1099 q 315 1117 357 1099 q 244 1165 272 1135 q 203 1234 217 1194 q 190 1317 190 1274 l 258 1317 q 297 1206 258 1251 q 414 1160 336 1160 q 528 1206 489 1160 q 568 1317 568 1251 l 639 1317 q 624 1234 639 1274 q 579 1165 608 1194 q 508 1117 550 1135 q 414 1099 467 1099 z "},"ĕ":{"ha":1003,"x_min":82,"x_max":918,"o":"m 508 -17 q 331 16 410 -17 q 197 105 251 49 q 112 238 142 161 q 82 403 82 314 q 114 571 82 493 q 202 706 146 649 q 336 796 258 763 q 504 829 414 829 q 669 799 593 829 q 800 713 744 768 q 887 581 856 657 q 918 415 918 506 l 918 379 l 158 379 q 189 250 163 310 q 261 147 215 190 q 369 80 307 104 q 508 56 432 56 q 707 113 626 56 q 828 272 788 171 l 899 239 q 749 50 844 117 q 508 -17 653 -17 m 504 757 q 378 733 436 757 q 274 669 319 710 q 199 574 229 629 q 161 453 169 518 l 838 453 q 805 576 832 519 q 735 672 778 632 q 633 735 692 713 q 504 757 575 757 m 507 911 q 408 929 450 911 q 338 977 365 947 q 297 1047 310 1007 q 283 1129 283 1086 l 351 1129 q 390 1018 351 1064 q 507 972 429 972 q 622 1018 582 972 q 661 1129 661 1064 l 732 1129 q 717 1047 732 1086 q 672 977 701 1007 q 601 929 643 947 q 507 911 560 911 z "},"Ė":{"ha":815,"x_min":104,"x_max":725,"o":"m 104 1014 l 725 1014 l 725 938 l 185 938 l 185 546 l 725 546 l 725 471 l 185 471 l 185 76 l 725 76 l 725 0 l 104 0 l 104 1014 m 357 1222 q 376 1270 357 1251 q 425 1289 396 1289 q 475 1270 457 1289 q 493 1222 493 1251 q 475 1174 493 1193 q 425 1154 457 1154 q 375 1174 393 1154 q 357 1222 357 1193 z "},"ė":{"ha":1003,"x_min":82,"x_max":918,"o":"m 508 -17 q 331 16 410 -17 q 197 105 251 49 q 112 238 142 161 q 82 403 82 314 q 114 571 82 493 q 202 706 146 649 q 336 796 258 763 q 504 829 414 829 q 669 799 593 829 q 800 713 744 768 q 887 581 856 657 q 918 415 918 506 l 918 379 l 158 379 q 189 250 163 310 q 261 147 215 190 q 369 80 307 104 q 508 56 432 56 q 707 113 626 56 q 828 272 788 171 l 899 239 q 749 50 844 117 q 508 -17 653 -17 m 504 757 q 378 733 436 757 q 274 669 319 710 q 199 574 229 629 q 161 453 169 518 l 838 453 q 805 576 832 519 q 735 672 778 632 q 633 735 692 713 q 504 757 575 757 m 439 983 q 458 1031 439 1013 q 507 1050 478 1050 q 557 1031 539 1050 q 575 983 575 1013 q 557 935 575 954 q 507 915 539 915 q 457 935 475 915 q 439 983 439 954 z "},"Ę":{"ha":815,"x_min":104,"x_max":836,"o":"m 104 1014 l 725 1014 l 725 938 l 185 938 l 185 546 l 725 546 l 725 471 l 185 471 l 185 76 l 725 76 l 725 0 q 642 -49 675 -28 q 590 -87 610 -69 q 563 -120 571 -104 q 556 -153 556 -136 q 583 -205 556 -186 q 654 -224 611 -224 q 721 -208 693 -224 q 774 -169 749 -192 l 836 -212 q 755 -266 803 -243 q 654 -289 707 -289 q 524 -251 574 -289 q 475 -157 475 -214 q 501 -78 475 -117 q 593 0 526 -39 l 104 0 l 104 1014 z "},"ę":{"ha":1003,"x_min":82,"x_max":918,"o":"m 519 -299 q 390 -261 439 -299 q 340 -167 340 -224 q 365 -89 340 -126 q 451 -14 389 -51 q 297 30 365 -6 q 180 121 228 65 q 107 249 132 176 q 82 403 82 321 q 114 571 82 493 q 202 706 146 649 q 336 796 258 763 q 504 829 414 829 q 669 799 593 829 q 800 713 744 768 q 887 581 856 657 q 918 415 918 506 l 918 379 l 158 379 q 189 250 163 310 q 261 147 215 190 q 369 80 307 104 q 508 56 432 56 q 707 113 626 56 q 828 272 788 171 l 899 239 q 775 71 851 135 q 588 -10 699 7 q 506 -58 539 -37 q 455 -97 474 -79 q 428 -130 436 -114 q 421 -162 421 -146 q 449 -215 421 -196 q 519 -233 476 -233 q 586 -217 558 -233 q 639 -179 614 -201 l 701 -222 q 620 -276 668 -253 q 519 -299 572 -299 m 504 757 q 378 733 436 757 q 274 669 319 710 q 199 574 229 629 q 161 453 169 518 l 838 453 q 805 576 832 519 q 735 672 778 632 q 633 735 692 713 q 504 757 575 757 z "},"Ě":{"ha":815,"x_min":104,"x_max":725,"o":"m 104 1014 l 725 1014 l 725 938 l 185 938 l 185 546 l 725 546 l 725 471 l 185 471 l 185 76 l 725 76 l 725 0 l 104 0 l 104 1014 m 213 1319 l 294 1319 l 407 1161 l 524 1319 l 606 1319 l 442 1104 l 375 1104 l 213 1319 z "},"ě":{"ha":1003,"x_min":82,"x_max":918,"o":"m 508 -17 q 331 16 410 -17 q 197 105 251 49 q 112 238 142 161 q 82 403 82 314 q 114 571 82 493 q 202 706 146 649 q 336 796 258 763 q 504 829 414 829 q 669 799 593 829 q 800 713 744 768 q 887 581 856 657 q 918 415 918 506 l 918 379 l 158 379 q 189 250 163 310 q 261 147 215 190 q 369 80 307 104 q 508 56 432 56 q 707 113 626 56 q 828 272 788 171 l 899 239 q 749 50 844 117 q 508 -17 653 -17 m 504 757 q 378 733 436 757 q 274 669 319 710 q 199 574 229 629 q 161 453 169 518 l 838 453 q 805 576 832 519 q 735 672 778 632 q 633 735 692 713 q 504 757 575 757 m 317 1132 l 399 1132 l 511 974 l 628 1132 l 710 1132 l 546 917 l 479 917 l 317 1132 z "},"Ĝ":{"ha":1181,"x_min":74,"x_max":1110,"o":"m 597 -14 q 390 27 486 -14 q 224 139 294 68 q 114 304 154 210 q 74 507 74 399 q 114 710 74 615 q 225 875 154 804 q 392 987 296 946 q 603 1028 489 1028 q 866 959 750 1028 q 1050 772 982 890 l 981 732 q 827 893 925 833 q 603 953 729 953 q 422 917 504 953 q 281 822 340 882 q 188 680 221 761 q 156 507 156 599 q 188 335 156 415 q 280 194 221 254 q 420 98 339 133 q 597 63 501 63 q 769 92 693 63 q 900 175 844 122 q 988 299 956 228 q 1029 454 1021 371 l 590 454 l 590 529 l 1110 529 l 1110 508 q 1075 308 1110 403 q 974 141 1040 213 q 813 28 908 69 q 597 -14 718 -14 m 556 1319 l 624 1319 l 789 1104 l 704 1104 l 589 1257 l 474 1104 l 390 1104 l 556 1319 z "},"ĝ":{"ha":1038,"x_min":82,"x_max":919,"o":"m 501 -17 q 335 17 413 -17 q 202 108 258 50 q 114 242 146 165 q 82 406 82 318 q 114 570 82 493 q 202 705 146 647 q 335 796 258 763 q 501 829 413 829 q 602 816 551 829 q 698 776 653 803 q 781 712 743 750 q 842 625 818 674 l 842 813 l 919 813 l 919 17 q 891 -153 919 -78 q 809 -282 863 -229 q 681 -364 756 -335 q 514 -393 606 -393 q 381 -378 439 -393 q 276 -334 322 -362 q 195 -265 231 -306 q 131 -171 160 -224 l 207 -136 q 324 -272 251 -222 q 514 -321 396 -321 q 650 -297 589 -321 q 753 -230 711 -274 q 819 -124 796 -186 q 842 14 842 -62 l 842 186 q 781 99 818 138 q 698 35 743 61 q 602 -3 653 10 q 501 -17 551 -17 m 504 57 q 640 84 578 57 q 750 158 703 111 q 824 269 797 206 q 850 406 850 333 q 824 542 850 478 q 750 653 797 606 q 640 728 703 700 q 504 756 578 756 q 371 728 433 756 q 262 653 308 701 q 189 542 215 606 q 163 406 163 479 q 189 269 163 333 q 262 158 215 206 q 371 84 308 111 q 504 57 433 57 m 467 1126 l 535 1126 l 700 911 l 615 911 l 500 1064 l 385 911 l 301 911 l 467 1126 z "},"Ğ":{"ha":1181,"x_min":74,"x_max":1110,"o":"m 597 -14 q 390 27 486 -14 q 224 139 294 68 q 114 304 154 210 q 74 507 74 399 q 114 710 74 615 q 225 875 154 804 q 392 987 296 946 q 603 1028 489 1028 q 866 959 750 1028 q 1050 772 982 890 l 981 732 q 827 893 925 833 q 603 953 729 953 q 422 917 504 953 q 281 822 340 882 q 188 680 221 761 q 156 507 156 599 q 188 335 156 415 q 280 194 221 254 q 420 98 339 133 q 597 63 501 63 q 769 92 693 63 q 900 175 844 122 q 988 299 956 228 q 1029 454 1021 371 l 590 454 l 590 529 l 1110 529 l 1110 508 q 1075 308 1110 403 q 974 141 1040 213 q 813 28 908 69 q 597 -14 718 -14 m 588 1099 q 488 1117 531 1099 q 418 1165 446 1135 q 377 1234 390 1194 q 364 1317 364 1274 l 432 1317 q 471 1206 432 1251 q 588 1160 510 1160 q 702 1206 663 1160 q 742 1317 742 1251 l 813 1317 q 797 1234 813 1274 q 753 1165 782 1194 q 682 1117 724 1135 q 588 1099 640 1099 z "},"ğ":{"ha":1038,"x_min":82,"x_max":919,"o":"m 501 -17 q 335 17 413 -17 q 202 108 258 50 q 114 242 146 165 q 82 406 82 318 q 114 570 82 493 q 202 705 146 647 q 335 796 258 763 q 501 829 413 829 q 602 816 551 829 q 698 776 653 803 q 781 712 743 750 q 842 625 818 674 l 842 813 l 919 813 l 919 17 q 891 -153 919 -78 q 809 -282 863 -229 q 681 -364 756 -335 q 514 -393 606 -393 q 381 -378 439 -393 q 276 -334 322 -362 q 195 -265 231 -306 q 131 -171 160 -224 l 207 -136 q 324 -272 251 -222 q 514 -321 396 -321 q 650 -297 589 -321 q 753 -230 711 -274 q 819 -124 796 -186 q 842 14 842 -62 l 842 186 q 781 99 818 138 q 698 35 743 61 q 602 -3 653 10 q 501 -17 551 -17 m 504 57 q 640 84 578 57 q 750 158 703 111 q 824 269 797 206 q 850 406 850 333 q 824 542 850 478 q 750 653 797 606 q 640 728 703 700 q 504 756 578 756 q 371 728 433 756 q 262 653 308 701 q 189 542 215 606 q 163 406 163 479 q 189 269 163 333 q 262 158 215 206 q 371 84 308 111 q 504 57 433 57 m 503 913 q 403 931 446 913 q 333 978 361 949 q 292 1048 306 1008 q 279 1131 279 1088 l 347 1131 q 386 1019 347 1065 q 503 974 425 974 q 617 1019 578 974 q 657 1131 657 1065 l 728 1131 q 713 1048 728 1088 q 668 978 697 1008 q 597 931 639 949 q 503 913 556 913 z "},"Ġ":{"ha":1181,"x_min":74,"x_max":1110,"o":"m 597 -14 q 390 27 486 -14 q 224 139 294 68 q 114 304 154 210 q 74 507 74 399 q 114 710 74 615 q 225 875 154 804 q 392 987 296 946 q 603 1028 489 1028 q 866 959 750 1028 q 1050 772 982 890 l 981 732 q 827 893 925 833 q 603 953 729 953 q 422 917 504 953 q 281 822 340 882 q 188 680 221 761 q 156 507 156 599 q 188 335 156 415 q 280 194 221 254 q 420 98 339 133 q 597 63 501 63 q 769 92 693 63 q 900 175 844 122 q 988 299 956 228 q 1029 454 1021 371 l 590 454 l 590 529 l 1110 529 l 1110 508 q 1075 308 1110 403 q 974 141 1040 213 q 813 28 908 69 q 597 -14 718 -14 m 522 1222 q 542 1270 522 1251 q 590 1289 561 1289 q 640 1270 622 1289 q 658 1222 658 1251 q 640 1174 658 1193 q 590 1154 622 1154 q 540 1174 558 1154 q 522 1222 522 1193 z "},"ġ":{"ha":1038,"x_min":82,"x_max":919,"o":"m 501 -17 q 335 17 413 -17 q 202 108 258 50 q 114 242 146 165 q 82 406 82 318 q 114 570 82 493 q 202 705 146 647 q 335 796 258 763 q 501 829 413 829 q 602 816 551 829 q 698 776 653 803 q 781 712 743 750 q 842 625 818 674 l 842 813 l 919 813 l 919 17 q 891 -153 919 -78 q 809 -282 863 -229 q 681 -364 756 -335 q 514 -393 606 -393 q 381 -378 439 -393 q 276 -334 322 -362 q 195 -265 231 -306 q 131 -171 160 -224 l 207 -136 q 324 -272 251 -222 q 514 -321 396 -321 q 650 -297 589 -321 q 753 -230 711 -274 q 819 -124 796 -186 q 842 14 842 -62 l 842 186 q 781 99 818 138 q 698 35 743 61 q 602 -3 653 10 q 501 -17 551 -17 m 504 57 q 640 84 578 57 q 750 158 703 111 q 824 269 797 206 q 850 406 850 333 q 824 542 850 478 q 750 653 797 606 q 640 728 703 700 q 504 756 578 756 q 371 728 433 756 q 262 653 308 701 q 189 542 215 606 q 163 406 163 479 q 189 269 163 333 q 262 158 215 206 q 371 84 308 111 q 504 57 433 57 m 432 990 q 451 1038 432 1019 q 500 1057 471 1057 q 550 1038 532 1057 q 568 990 568 1019 q 550 942 568 961 q 500 922 532 922 q 450 942 468 922 q 432 990 432 961 z "},"Ģ":{"ha":1181,"x_min":74,"x_max":1110,"o":"m 597 -14 q 390 27 486 -14 q 224 139 294 68 q 114 304 154 210 q 74 507 74 399 q 114 710 74 615 q 225 875 154 804 q 392 987 296 946 q 603 1028 489 1028 q 866 959 750 1028 q 1050 772 982 890 l 981 732 q 827 893 925 833 q 603 953 729 953 q 422 917 504 953 q 281 822 340 882 q 188 680 221 761 q 156 507 156 599 q 188 335 156 415 q 280 194 221 254 q 420 98 339 133 q 597 63 501 63 q 769 92 693 63 q 900 175 844 122 q 988 299 956 228 q 1029 454 1021 371 l 590 454 l 590 529 l 1110 529 l 1110 508 q 1075 308 1110 403 q 974 141 1040 213 q 813 28 908 69 q 597 -14 718 -14 m 504 -374 l 564 -90 l 640 -90 l 560 -374 l 504 -374 z "},"ģ":{"ha":1038,"x_min":82,"x_max":919,"o":"m 501 -17 q 335 17 413 -17 q 202 108 258 50 q 114 242 146 165 q 82 406 82 318 q 114 570 82 493 q 202 705 146 647 q 335 796 258 763 q 501 829 413 829 q 602 816 551 829 q 698 776 653 803 q 781 712 743 750 q 842 625 818 674 l 842 813 l 919 813 l 919 17 q 891 -153 919 -78 q 809 -282 863 -229 q 681 -364 756 -335 q 514 -393 606 -393 q 381 -378 439 -393 q 276 -334 322 -362 q 195 -265 231 -306 q 131 -171 160 -224 l 207 -136 q 324 -272 251 -222 q 514 -321 396 -321 q 650 -297 589 -321 q 753 -230 711 -274 q 819 -124 796 -186 q 842 14 842 -62 l 842 186 q 781 99 818 138 q 698 35 743 61 q 602 -3 653 10 q 501 -17 551 -17 m 504 57 q 640 84 578 57 q 750 158 703 111 q 824 269 797 206 q 850 406 850 333 q 824 542 850 478 q 750 653 797 606 q 640 728 703 700 q 504 756 578 756 q 371 728 433 756 q 262 653 308 701 q 189 542 215 606 q 163 406 163 479 q 189 269 163 333 q 262 158 215 206 q 371 84 308 111 q 504 57 433 57 m 465 917 l 525 1200 l 601 1200 l 521 917 l 465 917 z "},"Ĥ":{"ha":956,"x_min":103,"x_max":850,"o":"m 769 471 l 183 471 l 183 0 l 103 0 l 103 1014 l 183 1014 l 183 547 l 769 547 l 769 1014 l 850 1014 l 850 0 l 769 0 l 769 471 m 442 1319 l 510 1319 l 675 1104 l 590 1104 l 475 1257 l 360 1104 l 276 1104 l 442 1319 z "},"ĥ":{"ha":985,"x_min":-36,"x_max":871,"o":"m 124 1028 l 200 1028 l 200 654 q 322 781 242 732 q 510 829 403 829 q 658 803 592 829 q 772 729 724 778 q 845 612 819 681 q 871 456 871 543 l 871 0 l 790 0 l 790 457 q 771 580 790 525 q 714 674 751 635 q 623 735 676 714 q 500 757 569 757 q 381 734 436 757 q 286 670 326 711 q 223 574 246 629 q 200 456 200 519 l 200 0 l 124 0 l 124 1028 m 129 1310 l 197 1310 l 363 1094 l 278 1094 l 163 1247 l 47 1094 l -36 1094 l 129 1310 z "},"Ħ":{"ha":1001,"x_min":28,"x_max":963,"o":"m 28 813 l 125 813 l 125 1014 l 206 1014 l 206 813 l 792 813 l 792 1014 l 872 1014 l 872 813 l 963 813 l 963 750 l 872 750 l 872 0 l 792 0 l 792 471 l 206 471 l 206 0 l 125 0 l 125 750 l 28 750 l 28 813 m 206 547 l 792 547 l 792 750 l 206 750 l 206 547 z "},"ħ":{"ha":999,"x_min":26,"x_max":883,"o":"m 26 938 l 136 938 l 136 1028 l 213 1028 l 213 938 l 347 938 l 347 876 l 213 876 l 213 654 q 335 781 254 732 q 522 829 415 829 q 670 803 604 829 q 784 729 736 778 q 858 612 832 681 q 883 456 883 543 l 883 0 l 803 0 l 803 457 q 783 580 803 525 q 726 674 764 635 q 635 735 689 714 q 513 757 582 757 q 394 734 449 757 q 299 670 339 711 q 235 574 258 629 q 213 456 213 519 l 213 0 l 136 0 l 136 876 l 26 876 l 26 938 z "},"Ĩ":{"ha":311,"x_min":-75,"x_max":407,"o":"m 117 1014 l 196 1014 l 196 0 l 117 0 l 117 1014 m -75 1104 q -39 1214 -75 1174 q 54 1254 -3 1254 q 117 1242 89 1254 q 174 1213 146 1229 q 224 1183 200 1197 q 274 1169 249 1169 q 324 1189 306 1169 q 343 1250 343 1208 l 407 1250 q 373 1139 407 1179 q 275 1099 339 1099 q 203 1115 235 1099 q 144 1147 172 1131 q 100 1173 121 1161 q 54 1185 79 1185 q 8 1165 26 1185 q -10 1104 -10 1144 l -75 1104 z "},"ĩ":{"ha":314,"x_min":-82,"x_max":400,"o":"m 118 813 l 197 813 l 197 0 l 118 0 l 118 813 m -82 917 q -46 1026 -82 986 q 47 1067 -10 1067 q 110 1054 82 1067 q 167 1025 139 1042 q 217 996 193 1010 q 267 982 242 982 q 317 1001 299 982 q 336 1063 336 1021 l 400 1063 q 366 951 400 992 q 268 911 332 911 q 197 927 228 911 q 138 960 165 943 q 93 985 114 974 q 47 997 72 997 q 1 977 19 997 q -17 917 -17 957 l -82 917 z "},"Ī":{"ha":315,"x_min":-26,"x_max":340,"o":"m 118 1014 l 197 1014 l 197 0 l 118 0 l 118 1014 m -26 1174 l 340 1174 l 340 1104 l -26 1104 l -26 1174 z "},"ī":{"ha":314,"x_min":-26,"x_max":340,"o":"m 118 813 l 197 813 l 197 0 l 118 0 l 118 813 m -26 992 l 340 992 l 340 922 l -26 922 l -26 992 z "},"Ĭ":{"ha":315,"x_min":-69,"x_max":379,"o":"m 118 1014 l 197 1014 l 197 0 l 118 0 l 118 1014 m 154 1099 q 55 1117 97 1099 q -15 1165 13 1135 q -56 1234 -43 1194 q -69 1317 -69 1274 l -1 1317 q 38 1206 -1 1251 q 154 1160 76 1160 q 269 1206 229 1160 q 308 1317 308 1251 l 379 1317 q 364 1234 379 1274 q 319 1165 349 1194 q 249 1117 290 1135 q 154 1099 207 1099 z "},"ĭ":{"ha":314,"x_min":-67,"x_max":382,"o":"m 118 813 l 197 813 l 197 0 l 118 0 l 118 813 m 157 899 q 58 917 100 899 q -12 965 15 935 q -53 1034 -40 994 q -67 1117 -67 1074 l 1 1117 q 40 1006 1 1051 q 157 960 79 960 q 272 1006 232 960 q 311 1117 311 1051 l 382 1117 q 367 1034 382 1074 q 322 965 351 994 q 251 917 293 935 q 157 899 210 899 z "},"Į":{"ha":315,"x_min":10,"x_max":314,"o":"m 167 -303 q 48 -261 86 -303 q 10 -162 10 -219 q 40 -69 10 -114 q 118 15 69 -25 l 118 1014 l 197 1014 l 197 0 l 199 0 q 114 -84 143 -44 q 85 -160 85 -124 q 107 -214 85 -193 q 167 -235 129 -235 q 223 -222 200 -235 q 268 -190 246 -210 l 314 -246 q 247 -286 285 -269 q 167 -303 208 -303 z "},"į":{"ha":314,"x_min":8,"x_max":313,"o":"m 165 -303 q 47 -261 85 -303 q 8 -162 8 -219 q 39 -69 8 -114 q 118 17 69 -24 l 118 813 l 197 813 l 197 0 q 113 -84 142 -44 q 83 -160 83 -124 q 106 -214 83 -193 q 165 -235 128 -235 q 222 -222 199 -235 q 267 -190 244 -210 l 313 -246 q 245 -286 283 -269 q 165 -303 207 -303 m 90 990 q 110 1038 90 1019 q 158 1057 129 1057 q 208 1038 190 1057 q 226 990 226 1019 q 208 942 226 961 q 158 922 190 922 q 108 942 126 922 q 90 990 90 961 z "},"İ":{"ha":315,"x_min":89,"x_max":225,"o":"m 118 1014 l 197 1014 l 197 0 l 118 0 l 118 1014 m 89 1222 q 108 1270 89 1251 q 157 1289 128 1289 q 207 1270 189 1289 q 225 1222 225 1251 q 207 1174 225 1193 q 157 1154 189 1154 q 107 1174 125 1154 q 89 1222 89 1193 z "},"ı":{"ha":314,"x_min":118,"x_max":197,"o":"m 118 813 l 197 813 l 197 0 l 118 0 l 118 813 z "},"Ĳ":{"ha":767,"x_min":92,"x_max":675,"o":"m 311 75 l 421 75 q 550 125 506 75 q 594 267 594 175 l 594 1014 l 675 1014 l 675 267 q 613 70 675 140 q 424 0 550 0 l 311 0 l 311 75 m 92 1014 l 172 1014 l 172 0 l 92 0 l 92 1014 z "},"ĳ":{"ha":631,"x_min":90,"x_max":542,"o":"m 118 813 l 197 813 l 197 0 l 118 0 l 118 813 m 90 990 q 110 1038 90 1019 q 158 1057 129 1057 q 208 1038 190 1057 q 226 990 226 1019 q 208 942 226 961 q 158 922 190 922 q 108 942 126 922 q 90 990 90 961 m 513 -28 q 500 -160 513 -107 q 457 -244 488 -212 q 374 -290 426 -276 q 243 -304 322 -304 l 118 -304 l 118 -226 l 232 -226 q 336 -218 297 -226 q 397 -187 375 -210 q 426 -126 419 -165 q 433 -26 433 -87 l 433 813 l 513 813 l 513 -28 m 406 990 q 425 1038 406 1019 q 474 1057 444 1057 q 524 1038 506 1057 q 542 990 542 1019 q 524 942 542 961 q 474 922 506 922 q 424 942 442 922 q 406 990 406 961 z "},"Ĵ":{"ha":661,"x_min":51,"x_max":719,"o":"m 304 -14 q 148 25 213 -14 q 51 129 83 64 l 124 175 q 192 92 147 124 q 303 60 236 60 q 433 114 386 60 q 481 261 481 168 l 481 1014 l 561 1014 l 561 263 q 493 60 561 135 q 304 -14 425 -14 m 486 1319 l 554 1319 l 719 1104 l 635 1104 l 519 1257 l 404 1104 l 321 1104 l 486 1319 z "},"ĵ":{"ha":314,"x_min":-97,"x_max":357,"o":"m -97 -294 q 10 -287 -32 -294 q 76 -258 53 -281 q 109 -192 100 -235 q 118 -81 118 -150 l 118 813 l 197 813 l 197 -82 q 184 -224 197 -168 q 139 -313 171 -281 q 52 -359 107 -346 q -85 -372 -3 -372 l -97 -372 l -97 -294 m 124 1111 l 192 1111 l 357 896 l 272 896 l 157 1049 l 42 896 l -42 896 l 124 1111 z "},"Ķ":{"ha":901,"x_min":106,"x_max":864,"o":"m 404 551 l 185 300 l 185 0 l 106 0 l 106 1014 l 185 1014 l 185 407 l 715 1014 l 814 1014 l 461 607 l 864 0 l 771 0 l 404 551 m 365 -374 l 425 -90 l 501 -90 l 421 -374 l 365 -374 z "},"ķ":{"ha":843,"x_min":119,"x_max":792,"o":"m 386 424 l 197 228 l 197 0 l 119 0 l 119 1028 l 197 1028 l 197 321 l 669 813 l 771 813 l 443 472 l 792 0 l 699 0 l 386 424 m 342 -358 l 401 -75 l 478 -75 l 397 -358 l 342 -358 z "},"ĸ":{"ha":843,"x_min":118,"x_max":792,"o":"m 385 424 l 197 228 l 197 0 l 118 0 l 118 813 l 197 813 l 197 321 l 668 813 l 771 813 l 443 472 l 792 0 l 697 0 l 385 424 z "},"Ĺ":{"ha":740,"x_min":100,"x_max":667,"o":"m 104 1014 l 185 1014 l 185 76 l 667 76 l 667 0 l 104 0 l 104 1014 m 265 1319 l 369 1319 l 175 1104 l 100 1104 l 265 1319 z "},"ĺ":{"ha":321,"x_min":119,"x_max":396,"o":"m 292 1319 l 396 1319 l 201 1104 l 126 1104 l 292 1319 m 119 1028 l 200 1028 l 200 0 l 119 0 l 119 1028 z "},"Ļ":{"ha":740,"x_min":104,"x_max":667,"o":"m 104 1014 l 185 1014 l 185 76 l 667 76 l 667 0 l 104 0 l 104 1014 m 282 -374 l 342 -90 l 418 -90 l 338 -374 l 282 -374 z "},"ļ":{"ha":321,"x_min":13,"x_max":200,"o":"m 13 -358 l 72 -75 l 149 -75 l 68 -358 l 13 -358 m 119 1028 l 200 1028 l 200 0 l 119 0 l 119 1028 z "},"Ľ":{"ha":740,"x_min":104,"x_max":667,"o":"m 104 1014 l 185 1014 l 185 76 l 667 76 l 667 0 l 104 0 l 104 1014 m 458 1013 l 535 1013 l 447 774 l 390 774 l 458 1013 z "},"ľ":{"ha":367,"x_min":119,"x_max":435,"o":"m 358 1028 l 435 1028 l 347 789 l 290 789 l 358 1028 m 119 1028 l 200 1028 l 200 0 l 119 0 l 119 1028 z "},"Ŀ":{"ha":753,"x_min":104,"x_max":693,"o":"m 104 1014 l 185 1014 l 185 76 l 667 76 l 667 0 l 104 0 l 104 1014 m 557 513 q 576 560 557 542 q 625 579 596 579 q 675 560 657 579 q 693 513 693 542 q 675 464 693 483 q 625 444 657 444 q 575 464 593 444 q 557 513 557 483 z "},"ŀ":{"ha":531,"x_min":119,"x_max":486,"o":"m 119 1028 l 200 1028 l 200 0 l 119 0 l 119 1028 m 350 397 q 369 445 350 426 q 418 464 389 464 q 468 445 450 464 q 486 397 486 426 q 468 349 486 368 q 418 329 450 329 q 368 349 386 329 q 350 397 350 368 z "},"Ł":{"ha":779,"x_min":17,"x_max":706,"o":"m 17 536 l 143 572 l 143 1014 l 224 1014 l 224 596 l 422 654 l 422 596 l 224 538 l 224 76 l 706 76 l 706 0 l 143 0 l 143 514 l 17 476 l 17 536 z "},"ł":{"ha":440,"x_min":18,"x_max":422,"o":"m 18 568 l 179 638 l 179 1186 l 260 1186 l 260 674 l 422 744 l 422 676 l 260 607 l 260 0 l 179 0 l 179 572 l 18 503 l 18 568 z "},"Ń":{"ha":1031,"x_min":104,"x_max":926,"o":"m 104 1014 l 193 1014 l 846 125 l 846 1014 l 926 1014 l 926 0 l 840 0 l 185 893 l 185 0 l 104 0 l 104 1014 m 647 1319 l 751 1319 l 557 1104 l 482 1104 l 647 1319 z "},"ń":{"ha":982,"x_min":118,"x_max":868,"o":"m 118 813 l 194 813 l 194 647 q 317 778 235 728 q 507 829 399 829 q 655 803 589 829 q 769 729 721 778 q 842 612 817 681 q 868 456 868 543 l 868 0 l 789 0 l 789 457 q 769 580 789 525 q 711 674 749 635 q 619 734 674 713 q 497 756 565 756 q 378 733 433 756 q 283 669 324 710 q 220 574 243 629 q 197 456 197 519 l 197 0 l 118 0 l 118 813 m 624 1132 l 728 1132 l 533 917 l 458 917 l 624 1132 z "},"Ņ":{"ha":1031,"x_min":104,"x_max":926,"o":"m 104 1014 l 193 1014 l 846 125 l 846 1014 l 926 1014 l 926 0 l 840 0 l 185 893 l 185 0 l 104 0 l 104 1014 m 411 -374 l 471 -90 l 547 -90 l 467 -374 l 411 -374 z "},"ņ":{"ha":982,"x_min":118,"x_max":868,"o":"m 118 813 l 194 813 l 194 647 q 317 778 235 728 q 507 829 399 829 q 655 803 589 829 q 769 729 721 778 q 842 612 817 681 q 868 456 868 543 l 868 0 l 789 0 l 789 457 q 769 580 789 525 q 711 674 749 635 q 619 734 674 713 q 497 756 565 756 q 378 733 433 756 q 283 669 324 710 q 220 574 243 629 q 197 456 197 519 l 197 0 l 118 0 l 118 813 m 396 -353 l 456 -69 l 532 -69 l 451 -353 l 396 -353 z "},"Ň":{"ha":1031,"x_min":104,"x_max":926,"o":"m 104 1014 l 193 1014 l 846 125 l 846 1014 l 926 1014 l 926 0 l 840 0 l 185 893 l 185 0 l 104 0 l 104 1014 m 321 1319 l 403 1319 l 515 1161 l 632 1319 l 714 1319 l 550 1104 l 483 1104 l 321 1319 z "},"ň":{"ha":982,"x_min":118,"x_max":868,"o":"m 118 813 l 194 813 l 194 647 q 317 778 235 728 q 507 829 399 829 q 655 803 589 829 q 769 729 721 778 q 842 612 817 681 q 868 456 868 543 l 868 0 l 789 0 l 789 457 q 769 580 789 525 q 711 674 749 635 q 619 734 674 713 q 497 756 565 756 q 378 733 433 756 q 283 669 324 710 q 220 574 243 629 q 197 456 197 519 l 197 0 l 118 0 l 118 813 m 317 1132 l 399 1132 l 511 974 l 628 1132 l 710 1132 l 546 917 l 479 917 l 317 1132 z "},"Ŋ":{"ha":1031,"x_min":104,"x_max":926,"o":"m 629 -218 l 697 -218 q 812 -178 778 -218 q 846 -54 846 -139 l 846 0 l 185 893 l 185 0 l 104 0 l 104 1014 l 193 1014 l 846 132 l 846 1014 l 926 1014 l 926 -57 q 875 -233 926 -171 q 704 -296 824 -296 l 629 -296 l 629 -218 z "},"ŋ":{"ha":982,"x_min":118,"x_max":868,"o":"m 572 -294 q 680 -287 638 -294 q 747 -258 722 -281 q 780 -192 771 -235 q 789 -81 789 -150 l 789 457 q 769 580 789 525 q 711 674 749 635 q 619 734 674 713 q 497 756 565 756 q 378 733 433 756 q 283 669 324 710 q 220 574 243 629 q 197 456 197 519 l 197 0 l 118 0 l 118 813 l 194 813 l 194 647 q 317 778 235 728 q 507 829 399 829 q 655 803 589 829 q 769 729 721 778 q 842 612 817 681 q 868 456 868 543 l 868 -82 q 855 -224 868 -168 q 809 -313 842 -281 q 722 -359 776 -346 q 583 -372 667 -372 l 572 -372 l 572 -294 z "},"Ō":{"ha":1188,"x_min":74,"x_max":1115,"o":"m 406 1174 l 772 1174 l 772 1104 l 406 1104 l 406 1174 m 594 -14 q 392 27 486 -14 q 226 139 297 68 q 115 304 156 210 q 74 507 74 399 q 115 710 74 615 q 226 875 156 804 q 392 987 297 946 q 594 1028 486 1028 q 797 987 703 1028 q 963 875 892 946 q 1074 710 1033 804 q 1115 507 1115 615 q 1074 304 1115 399 q 963 139 1033 210 q 797 27 892 68 q 594 -14 703 -14 m 594 63 q 767 98 688 63 q 906 194 847 133 q 999 335 965 254 q 1032 507 1032 415 q 999 680 1032 599 q 906 822 965 761 q 767 917 847 882 q 594 951 688 951 q 422 917 501 951 q 283 822 342 882 q 190 680 224 761 q 156 507 156 599 q 190 335 156 415 q 283 194 224 254 q 422 98 342 133 q 594 63 501 63 z "},"ō":{"ha":1008,"x_min":82,"x_max":926,"o":"m 319 1000 l 686 1000 l 686 931 l 319 931 l 319 1000 m 504 -17 q 340 16 417 -17 q 205 106 263 49 q 115 240 147 163 q 82 406 82 317 q 115 572 82 494 q 205 706 147 649 q 340 797 263 764 q 504 829 417 829 q 669 797 592 829 q 803 706 746 764 q 893 572 860 649 q 926 406 926 494 q 893 240 926 317 q 803 106 860 163 q 669 16 746 49 q 504 -17 592 -17 m 504 57 q 638 84 575 57 q 746 158 700 111 q 818 269 792 206 q 844 406 844 333 q 818 542 844 479 q 746 653 792 606 q 638 728 700 701 q 504 756 575 756 q 369 728 432 756 q 261 653 307 701 q 189 542 215 606 q 163 406 163 479 q 189 269 163 333 q 261 158 215 206 q 369 84 307 111 q 504 57 432 57 z "},"Ŏ":{"ha":1188,"x_min":74,"x_max":1115,"o":"m 594 -14 q 392 27 486 -14 q 226 139 297 68 q 115 304 156 210 q 74 507 74 399 q 115 710 74 615 q 226 875 156 804 q 392 987 297 946 q 594 1028 486 1028 q 797 987 703 1028 q 963 875 892 946 q 1074 710 1033 804 q 1115 507 1115 615 q 1074 304 1115 399 q 963 139 1033 210 q 797 27 892 68 q 594 -14 703 -14 m 594 63 q 767 98 688 63 q 906 194 847 133 q 999 335 965 254 q 1032 507 1032 415 q 999 680 1032 599 q 906 822 965 761 q 767 917 847 882 q 594 951 688 951 q 422 917 501 951 q 283 822 342 882 q 190 680 224 761 q 156 507 156 599 q 190 335 156 415 q 283 194 224 254 q 422 98 342 133 q 594 63 501 63 m 588 1100 q 488 1118 531 1100 q 418 1166 446 1136 q 377 1235 390 1196 q 364 1318 364 1275 l 432 1318 q 471 1207 432 1253 q 588 1161 510 1161 q 702 1207 663 1161 q 742 1318 742 1253 l 813 1318 q 797 1235 813 1275 q 753 1166 782 1196 q 682 1118 724 1136 q 588 1100 640 1100 z "},"ŏ":{"ha":1008,"x_min":82,"x_max":926,"o":"m 504 -17 q 340 16 417 -17 q 205 106 263 49 q 115 240 147 163 q 82 406 82 317 q 115 572 82 494 q 205 706 147 649 q 340 797 263 764 q 504 829 417 829 q 669 797 592 829 q 803 706 746 764 q 893 572 860 649 q 926 406 926 494 q 893 240 926 317 q 803 106 860 163 q 669 16 746 49 q 504 -17 592 -17 m 504 57 q 638 84 575 57 q 746 158 700 111 q 818 269 792 206 q 844 406 844 333 q 818 542 844 479 q 746 653 792 606 q 638 728 700 701 q 504 756 575 756 q 369 728 432 756 q 261 653 307 701 q 189 542 215 606 q 163 406 163 479 q 189 269 163 333 q 261 158 215 206 q 369 84 307 111 q 504 57 432 57 m 503 913 q 403 931 446 913 q 333 978 361 949 q 292 1048 306 1008 q 279 1131 279 1088 l 347 1131 q 386 1019 347 1065 q 503 974 425 974 q 617 1019 578 974 q 657 1131 657 1065 l 728 1131 q 713 1048 728 1088 q 668 978 697 1008 q 597 931 639 949 q 503 913 556 913 z "},"Ő":{"ha":1188,"x_min":74,"x_max":1115,"o":"m 621 1319 l 719 1319 l 525 1104 l 456 1104 l 621 1319 m 790 1319 l 889 1319 l 694 1104 l 624 1104 l 790 1319 m 594 -14 q 392 27 486 -14 q 226 139 297 68 q 115 304 156 210 q 74 507 74 399 q 115 710 74 615 q 226 875 156 804 q 392 987 297 946 q 594 1028 486 1028 q 797 987 703 1028 q 963 875 892 946 q 1074 710 1033 804 q 1115 507 1115 615 q 1074 304 1115 399 q 963 139 1033 210 q 797 27 892 68 q 594 -14 703 -14 m 594 63 q 767 98 688 63 q 906 194 847 133 q 999 335 965 254 q 1032 507 1032 415 q 999 680 1032 599 q 906 822 965 761 q 767 917 847 882 q 594 951 688 951 q 422 917 501 951 q 283 822 342 882 q 190 680 224 761 q 156 507 156 599 q 190 335 156 415 q 283 194 224 254 q 422 98 342 133 q 594 63 501 63 z "},"ő":{"ha":1008,"x_min":82,"x_max":926,"o":"m 543 1132 l 642 1132 l 447 917 l 378 917 l 543 1132 m 713 1132 l 811 1132 l 617 917 l 546 917 l 713 1132 m 504 -17 q 340 16 417 -17 q 205 106 263 49 q 115 240 147 163 q 82 406 82 317 q 115 572 82 494 q 205 706 147 649 q 340 797 263 764 q 504 829 417 829 q 669 797 592 829 q 803 706 746 764 q 893 572 860 649 q 926 406 926 494 q 893 240 926 317 q 803 106 860 163 q 669 16 746 49 q 504 -17 592 -17 m 504 57 q 638 84 575 57 q 746 158 700 111 q 818 269 792 206 q 844 406 844 333 q 818 542 844 479 q 746 653 792 606 q 638 728 700 701 q 504 756 575 756 q 369 728 432 756 q 261 653 307 701 q 189 542 215 606 q 163 406 163 479 q 189 269 163 333 q 261 158 215 206 q 369 84 307 111 q 504 57 432 57 z "},"Œ":{"ha":1743,"x_min":74,"x_max":1653,"o":"m 1033 242 q 854 56 968 126 q 593 -14 740 -14 q 390 27 485 -14 q 226 139 296 68 q 115 304 156 210 q 74 507 74 399 q 115 710 74 615 q 226 875 156 804 q 390 987 296 946 q 593 1028 485 1028 q 854 958 740 1028 q 1033 772 968 888 l 1033 1014 l 1653 1014 l 1653 938 l 1114 938 l 1114 546 l 1653 546 l 1653 471 l 1114 471 l 1114 76 l 1653 76 l 1653 0 l 1033 0 l 1033 242 m 593 65 q 765 100 685 65 q 905 195 846 135 q 999 335 964 256 q 1033 507 1033 415 q 999 679 1033 599 q 905 820 964 760 q 765 915 846 881 q 593 950 685 950 q 422 915 501 950 q 283 820 342 881 q 189 679 224 760 q 154 507 154 599 q 189 335 154 415 q 283 195 224 256 q 422 100 342 135 q 593 65 501 65 z "},"œ":{"ha":1771,"x_min":82,"x_max":1685,"o":"m 504 -17 q 340 16 417 -17 q 205 106 263 49 q 115 240 147 163 q 82 406 82 317 q 115 572 82 494 q 205 706 147 649 q 340 797 263 764 q 504 829 417 829 q 628 811 569 829 q 736 760 688 793 q 823 682 785 728 q 885 581 861 636 q 945 682 908 636 q 1031 760 982 728 q 1140 811 1081 793 q 1268 829 1200 829 q 1433 799 1357 829 q 1565 713 1508 768 q 1653 581 1621 657 q 1685 414 1685 504 l 1685 386 l 922 386 q 953 255 925 315 q 1028 150 981 194 q 1138 81 1075 106 q 1272 56 1200 56 q 1481 121 1396 56 q 1599 290 1565 186 l 1669 258 q 1612 145 1649 196 q 1524 58 1575 94 q 1409 3 1472 22 q 1272 -17 1346 -17 q 1029 51 1131 -17 q 882 229 928 118 q 821 129 858 175 q 735 51 783 83 q 628 1 686 19 q 504 -17 569 -17 m 504 57 q 638 84 575 57 q 746 158 700 111 q 818 269 792 206 q 844 406 844 333 q 818 542 844 479 q 746 653 792 606 q 638 728 700 701 q 504 756 575 756 q 369 728 432 756 q 261 653 307 701 q 189 542 215 606 q 163 406 163 479 q 189 269 163 333 q 261 158 215 206 q 369 84 307 111 q 504 57 432 57 m 1268 757 q 1143 734 1201 757 q 1040 671 1085 711 q 965 576 994 631 q 926 458 936 522 l 1603 458 q 1569 580 1596 525 q 1498 674 1542 635 q 1396 735 1454 714 q 1268 757 1338 757 z "},"Ŕ":{"ha":828,"x_min":104,"x_max":760,"o":"m 458 378 l 185 378 l 185 0 l 104 0 l 104 1014 l 421 1014 q 553 989 492 1014 q 659 921 614 964 q 729 820 704 878 q 754 697 754 763 q 738 600 754 647 q 693 514 722 553 q 623 445 664 475 q 532 400 582 415 l 760 0 l 669 0 l 458 378 m 185 940 l 185 451 l 414 451 q 519 472 472 451 q 601 526 567 492 q 655 606 636 561 q 674 697 674 650 q 655 793 674 749 q 602 870 636 838 q 520 922 568 903 q 415 940 472 940 l 185 940 m 496 1319 l 600 1319 l 406 1104 l 331 1104 l 496 1319 z "},"ŕ":{"ha":625,"x_min":118,"x_max":603,"o":"m 118 813 l 194 813 l 194 668 q 288 781 226 742 q 435 821 349 821 q 527 809 489 821 q 603 775 565 797 l 556 706 q 499 736 528 725 q 432 747 471 747 q 260 676 324 747 q 197 476 197 604 l 197 0 l 118 0 l 118 813 m 475 1128 l 579 1128 l 385 913 l 310 913 l 475 1128 z "},"Ŗ":{"ha":828,"x_min":104,"x_max":760,"o":"m 458 378 l 185 378 l 185 0 l 104 0 l 104 1014 l 421 1014 q 553 989 492 1014 q 659 921 614 964 q 729 820 704 878 q 754 697 754 763 q 738 600 754 647 q 693 514 722 553 q 623 445 664 475 q 532 400 582 415 l 760 0 l 669 0 l 458 378 m 185 940 l 185 451 l 414 451 q 519 472 472 451 q 601 526 567 492 q 655 606 636 561 q 674 697 674 650 q 655 793 674 749 q 602 870 636 838 q 520 922 568 903 q 415 940 472 940 l 185 940 m 342 -390 l 401 -107 l 478 -107 l 397 -390 l 342 -390 z "},"ŗ":{"ha":625,"x_min":58,"x_max":603,"o":"m 118 813 l 194 813 l 194 668 q 288 781 226 742 q 435 821 349 821 q 527 809 489 821 q 603 775 565 797 l 556 706 q 499 736 528 725 q 432 747 471 747 q 260 676 324 747 q 197 476 197 604 l 197 0 l 118 0 l 118 813 m 58 -358 l 118 -75 l 194 -75 l 114 -358 l 58 -358 z "},"Ř":{"ha":828,"x_min":104,"x_max":760,"o":"m 458 378 l 185 378 l 185 0 l 104 0 l 104 1014 l 421 1014 q 553 989 492 1014 q 659 921 614 964 q 729 820 704 878 q 754 697 754 763 q 738 600 754 647 q 693 514 722 553 q 623 445 664 475 q 532 400 582 415 l 760 0 l 669 0 l 458 378 m 185 940 l 185 451 l 414 451 q 519 472 472 451 q 601 526 567 492 q 655 606 636 561 q 674 697 674 650 q 655 793 674 749 q 602 870 636 838 q 520 922 568 903 q 415 940 472 940 l 185 940 m 232 1319 l 314 1319 l 426 1161 l 543 1319 l 625 1319 l 461 1104 l 394 1104 l 232 1319 z "},"ř":{"ha":625,"x_min":118,"x_max":603,"o":"m 118 813 l 194 813 l 194 668 q 288 781 226 742 q 435 821 349 821 q 527 809 489 821 q 603 775 565 797 l 556 706 q 499 736 528 725 q 432 747 471 747 q 260 676 324 747 q 197 476 197 604 l 197 0 l 118 0 l 118 813 m 153 1126 l 235 1126 l 347 968 l 464 1126 l 546 1126 l 382 911 l 315 911 l 153 1126 z "},"Ś":{"ha":774,"x_min":42,"x_max":703,"o":"m 508 1318 l 613 1318 l 418 1103 l 343 1103 l 508 1318 m 379 -14 q 183 31 267 -14 q 42 153 99 76 l 108 204 q 225 97 157 133 q 379 60 293 60 q 475 75 431 60 q 552 118 519 90 q 603 185 585 146 q 622 274 622 225 q 601 360 622 325 q 543 421 579 396 q 460 463 507 446 q 364 497 414 481 q 260 535 311 514 q 169 586 210 556 q 104 661 129 617 q 79 771 79 706 q 103 874 79 826 q 167 955 126 921 q 262 1008 207 989 q 381 1028 317 1028 q 556 990 483 1028 q 679 889 629 953 l 617 840 q 519 927 576 897 q 381 957 461 957 q 294 943 335 957 q 224 905 254 929 q 178 847 194 881 q 161 771 161 813 q 182 689 161 722 q 238 633 203 656 q 319 593 274 610 q 414 560 365 576 q 519 521 467 542 q 612 467 571 500 q 678 388 653 435 q 703 274 703 342 q 679 162 703 214 q 613 71 656 110 q 510 9 569 32 q 379 -14 450 -14 z "},"ś":{"ha":753,"x_min":51,"x_max":672,"o":"m 493 1132 l 597 1132 l 403 917 l 328 917 l 493 1132 m 371 -17 q 183 26 267 -17 q 51 135 100 68 l 114 185 q 222 92 154 129 q 372 54 289 54 q 469 68 428 54 q 538 106 510 82 q 579 160 565 129 q 593 225 593 192 q 573 291 593 265 q 519 334 553 317 q 444 363 486 351 q 357 386 401 375 q 259 414 307 399 q 174 453 211 429 q 113 515 136 478 q 90 608 90 553 q 110 693 90 653 q 166 764 129 733 q 254 813 203 794 q 369 831 306 831 q 531 799 457 831 q 653 713 604 768 l 593 664 q 497 736 551 711 q 369 761 443 761 q 222 718 274 761 q 169 610 169 675 q 189 547 169 572 q 240 505 208 522 q 313 476 272 488 q 399 453 354 464 q 498 424 449 440 q 585 383 547 408 q 648 321 624 358 q 672 225 672 283 q 654 139 672 182 q 599 61 636 96 q 506 5 563 26 q 371 -17 449 -17 z "},"Ŝ":{"ha":774,"x_min":42,"x_max":703,"o":"m 379 -14 q 183 31 267 -14 q 42 153 99 76 l 108 204 q 225 97 157 133 q 379 60 293 60 q 475 75 431 60 q 552 118 519 90 q 603 185 585 146 q 622 274 622 225 q 601 360 622 325 q 543 421 579 396 q 460 463 507 446 q 364 497 414 481 q 260 535 311 514 q 169 586 210 556 q 104 661 129 617 q 79 771 79 706 q 103 874 79 826 q 167 955 126 921 q 262 1008 207 989 q 381 1028 317 1028 q 556 990 483 1028 q 679 889 629 953 l 617 840 q 519 927 576 897 q 381 957 461 957 q 294 943 335 957 q 224 905 254 929 q 178 847 194 881 q 161 771 161 813 q 182 689 161 722 q 238 633 203 656 q 319 593 274 610 q 414 560 365 576 q 519 521 467 542 q 612 467 571 500 q 678 388 653 435 q 703 274 703 342 q 679 162 703 214 q 613 71 656 110 q 510 9 569 32 q 379 -14 450 -14 m 351 1319 l 419 1319 l 585 1104 l 500 1104 l 385 1257 l 269 1104 l 186 1104 l 351 1319 z "},"ŝ":{"ha":753,"x_min":51,"x_max":672,"o":"m 371 -17 q 183 26 267 -17 q 51 135 100 68 l 114 185 q 222 92 154 129 q 372 54 289 54 q 469 68 428 54 q 538 106 510 82 q 579 160 565 129 q 593 225 593 192 q 573 291 593 265 q 519 334 553 317 q 444 363 486 351 q 357 386 401 375 q 259 414 307 399 q 174 453 211 429 q 113 515 136 478 q 90 608 90 553 q 110 693 90 653 q 166 764 129 733 q 254 813 203 794 q 369 831 306 831 q 531 799 457 831 q 653 713 604 768 l 593 664 q 497 736 551 711 q 369 761 443 761 q 222 718 274 761 q 169 610 169 675 q 189 547 169 572 q 240 505 208 522 q 313 476 272 488 q 399 453 354 464 q 498 424 449 440 q 585 383 547 408 q 648 321 624 358 q 672 225 672 283 q 654 139 672 182 q 599 61 636 96 q 506 5 563 26 q 371 -17 449 -17 m 333 1128 l 401 1128 l 567 913 l 482 913 l 367 1065 l 251 913 l 168 913 l 333 1128 z "},"Ş":{"ha":774,"x_min":42,"x_max":703,"o":"m 390 -315 q 278 -294 325 -315 q 197 -242 232 -274 l 261 -203 q 317 -241 289 -226 q 390 -256 344 -256 q 470 -236 439 -256 q 501 -186 501 -217 q 472 -142 501 -158 q 386 -125 442 -125 l 340 -125 l 340 -11 q 167 39 242 -4 q 42 153 93 82 l 108 204 q 225 97 157 133 q 379 60 293 60 q 475 75 431 60 q 552 118 519 90 q 603 185 585 146 q 622 274 622 225 q 601 360 622 325 q 543 421 579 396 q 460 463 507 446 q 364 497 414 481 q 260 535 311 514 q 169 586 210 556 q 104 661 129 617 q 79 771 79 706 q 103 874 79 826 q 167 955 126 921 q 262 1008 207 989 q 381 1028 317 1028 q 556 990 483 1028 q 679 889 629 953 l 617 840 q 519 927 576 897 q 381 957 461 957 q 294 943 335 957 q 224 905 254 929 q 178 847 194 881 q 161 771 161 813 q 182 689 161 722 q 238 633 203 656 q 319 593 274 610 q 414 560 365 576 q 519 521 467 542 q 612 467 571 500 q 678 388 653 435 q 703 274 703 342 q 681 168 703 218 q 621 79 660 118 q 528 16 582 40 q 408 -12 474 -8 l 408 -74 q 530 -105 483 -75 q 576 -183 576 -135 q 562 -237 576 -212 q 522 -278 547 -261 q 463 -306 497 -296 q 390 -315 429 -315 z "},"ş":{"ha":753,"x_min":51,"x_max":672,"o":"m 383 -322 q 272 -301 318 -322 q 190 -249 225 -281 l 254 -210 q 310 -248 282 -233 q 383 -262 338 -262 q 463 -243 432 -262 q 494 -193 494 -224 q 465 -149 494 -165 q 379 -132 435 -132 l 333 -132 l 333 -14 q 169 34 242 -7 q 51 135 96 75 l 114 185 q 222 92 154 129 q 372 54 289 54 q 469 68 428 54 q 538 106 510 82 q 579 160 565 129 q 593 225 593 192 q 573 291 593 265 q 519 334 553 317 q 444 363 486 351 q 357 386 401 375 q 259 414 307 399 q 174 453 211 429 q 113 515 136 478 q 90 608 90 553 q 110 693 90 653 q 166 764 129 733 q 254 813 203 794 q 369 831 306 831 q 531 799 457 831 q 653 713 604 768 l 593 664 q 497 736 551 711 q 369 761 443 761 q 222 718 274 761 q 169 610 169 675 q 189 547 169 572 q 240 505 208 522 q 313 476 272 488 q 399 453 354 464 q 498 424 449 440 q 585 383 547 408 q 648 321 624 358 q 672 225 672 283 q 656 144 672 185 q 607 69 640 103 q 522 12 574 35 q 401 -15 471 -11 l 401 -81 q 523 -112 476 -82 q 569 -190 569 -142 q 555 -244 569 -219 q 515 -285 540 -268 q 456 -312 490 -303 q 383 -322 422 -322 z "},"Š":{"ha":774,"x_min":42,"x_max":703,"o":"m 379 -14 q 183 31 267 -14 q 42 153 99 76 l 108 204 q 225 97 157 133 q 379 60 293 60 q 475 75 431 60 q 552 118 519 90 q 603 185 585 146 q 622 274 622 225 q 601 360 622 325 q 543 421 579 396 q 460 463 507 446 q 364 497 414 481 q 260 535 311 514 q 169 586 210 556 q 104 661 129 617 q 79 771 79 706 q 103 874 79 826 q 167 955 126 921 q 262 1008 207 989 q 381 1028 317 1028 q 556 990 483 1028 q 679 889 629 953 l 617 840 q 519 927 576 897 q 381 957 461 957 q 294 943 335 957 q 224 905 254 929 q 178 847 194 881 q 161 771 161 813 q 182 689 161 722 q 238 633 203 656 q 319 593 274 610 q 414 560 365 576 q 519 521 467 542 q 612 467 571 500 q 678 388 653 435 q 703 274 703 342 q 679 162 703 214 q 613 71 656 110 q 510 9 569 32 q 379 -14 450 -14 m 192 1319 l 274 1319 l 386 1161 l 503 1319 l 585 1319 l 421 1104 l 354 1104 l 192 1319 z "},"š":{"ha":753,"x_min":51,"x_max":672,"o":"m 371 -17 q 183 26 267 -17 q 51 135 100 68 l 114 185 q 222 92 154 129 q 372 54 289 54 q 469 68 428 54 q 538 106 510 82 q 579 160 565 129 q 593 225 593 192 q 573 291 593 265 q 519 334 553 317 q 444 363 486 351 q 357 386 401 375 q 259 414 307 399 q 174 453 211 429 q 113 515 136 478 q 90 608 90 553 q 110 693 90 653 q 166 764 129 733 q 254 813 203 794 q 369 831 306 831 q 531 799 457 831 q 653 713 604 768 l 593 664 q 497 736 551 711 q 369 761 443 761 q 222 718 274 761 q 169 610 169 675 q 189 547 169 572 q 240 505 208 522 q 313 476 272 488 q 399 453 354 464 q 498 424 449 440 q 585 383 547 408 q 648 321 624 358 q 672 225 672 283 q 654 139 672 182 q 599 61 636 96 q 506 5 563 26 q 371 -17 449 -17 m 174 1132 l 256 1132 l 368 974 l 485 1132 l 567 1132 l 403 917 l 336 917 l 174 1132 z "},"Ţ":{"ha":847,"x_min":67,"x_max":781,"o":"m 331 -374 l 390 -90 l 467 -90 l 386 -374 l 331 -374 m 383 940 l 67 940 l 67 1014 l 781 1014 l 781 940 l 464 940 l 464 0 l 383 0 l 383 940 z "},"ţ":{"ha":558,"x_min":50,"x_max":485,"o":"m 50 813 l 194 813 l 194 1001 l 271 1051 l 271 813 l 485 813 l 485 740 l 271 740 l 271 292 q 280 179 271 222 q 313 113 289 136 q 378 81 336 89 q 485 74 419 74 l 485 0 l 472 0 q 335 13 389 0 q 251 58 282 25 q 207 147 219 90 q 194 290 194 203 l 194 740 l 50 740 l 50 813 m 236 -374 l 296 -90 l 372 -90 l 292 -374 l 236 -374 z "},"Ť":{"ha":847,"x_min":67,"x_max":781,"o":"m 383 940 l 67 940 l 67 1014 l 781 1014 l 781 940 l 464 940 l 464 0 l 383 0 l 383 940 m 222 1319 l 304 1319 l 417 1161 l 533 1319 l 615 1319 l 451 1104 l 385 1104 l 222 1319 z "},"ť":{"ha":558,"x_min":50,"x_max":519,"o":"m 50 813 l 194 813 l 194 1001 l 271 1051 l 271 813 l 485 813 l 485 740 l 271 740 l 271 292 q 280 179 271 222 q 313 113 289 136 q 378 81 336 89 q 485 74 419 74 l 485 0 l 472 0 q 335 13 389 0 q 251 58 282 25 q 207 147 219 90 q 194 290 194 203 l 194 740 l 50 740 l 50 813 m 443 1171 l 519 1171 l 432 932 l 375 932 l 443 1171 z "},"Ŧ":{"ha":847,"x_min":67,"x_max":781,"o":"m 231 590 l 383 590 l 383 940 l 67 940 l 67 1014 l 781 1014 l 781 940 l 464 940 l 464 590 l 625 590 l 625 517 l 464 517 l 464 0 l 383 0 l 383 517 l 231 517 l 231 590 z "},"ŧ":{"ha":558,"x_min":50,"x_max":485,"o":"m 50 813 l 194 813 l 194 1001 l 271 1051 l 271 813 l 485 813 l 485 740 l 271 740 l 271 472 l 485 472 l 485 400 l 271 400 l 271 292 q 280 179 271 222 q 313 113 289 136 q 378 81 336 89 q 485 74 419 74 l 485 0 l 472 0 q 335 13 389 0 q 251 58 282 25 q 207 147 219 90 q 194 290 194 203 l 194 400 l 50 400 l 50 472 l 194 472 l 194 740 l 50 740 l 50 813 z "},"Ũ":{"ha":890,"x_min":100,"x_max":790,"o":"m 444 -14 q 308 13 371 -14 q 199 85 244 39 q 126 195 153 132 q 100 331 100 258 l 100 1014 l 181 1014 l 181 326 q 201 224 181 272 q 256 140 221 175 q 340 83 292 104 q 444 63 389 63 q 549 83 500 63 q 633 140 597 104 q 689 224 668 176 q 710 328 710 272 l 710 1014 l 790 1014 l 790 331 q 764 195 790 258 q 691 85 738 132 q 581 13 644 39 q 444 -14 518 -14 m 207 1104 q 243 1214 207 1174 q 336 1254 279 1254 q 399 1242 371 1254 q 456 1213 428 1229 q 506 1183 482 1197 q 556 1169 531 1169 q 606 1189 588 1169 q 625 1250 625 1208 l 689 1250 q 655 1139 689 1179 q 557 1099 621 1099 q 485 1115 517 1099 q 426 1147 454 1131 q 382 1173 403 1161 q 336 1185 361 1185 q 290 1165 308 1185 q 272 1104 272 1144 l 207 1104 z "},"ũ":{"ha":982,"x_min":114,"x_max":865,"o":"m 479 -17 q 326 9 394 -17 q 211 83 258 35 q 139 201 164 132 q 114 357 114 269 l 114 813 l 194 813 l 194 356 q 214 233 194 288 q 271 139 233 178 q 363 78 308 100 q 485 57 417 57 q 603 80 549 57 q 699 143 658 103 q 763 238 740 183 q 786 357 786 293 l 786 813 l 865 813 l 865 0 l 788 0 l 788 165 q 667 34 747 85 q 479 -17 586 -17 m 258 917 q 294 1026 258 986 q 388 1067 331 1067 q 451 1054 422 1067 q 507 1025 479 1042 q 558 996 533 1010 q 607 982 582 982 q 658 1001 639 982 q 676 1063 676 1021 l 740 1063 q 706 951 740 992 q 608 911 672 911 q 537 927 568 911 q 478 960 506 943 q 433 985 454 974 q 388 997 413 997 q 342 977 360 997 q 324 917 324 957 l 258 917 z "},"Ū":{"ha":890,"x_min":100,"x_max":790,"o":"m 444 -14 q 308 13 371 -14 q 199 85 244 39 q 126 195 153 132 q 100 331 100 258 l 100 1014 l 181 1014 l 181 326 q 201 224 181 272 q 256 140 221 175 q 340 83 292 104 q 444 63 389 63 q 549 83 500 63 q 633 140 597 104 q 689 224 668 176 q 710 328 710 272 l 710 1014 l 790 1014 l 790 331 q 764 195 790 258 q 691 85 738 132 q 581 13 644 39 q 444 -14 518 -14 m 260 1174 l 626 1174 l 626 1104 l 260 1104 l 260 1174 z "},"ū":{"ha":982,"x_min":114,"x_max":865,"o":"m 479 -17 q 326 9 394 -17 q 211 83 258 35 q 139 201 164 132 q 114 357 114 269 l 114 813 l 194 813 l 194 356 q 214 233 194 288 q 271 139 233 178 q 363 78 308 100 q 485 57 417 57 q 603 80 549 57 q 699 143 658 103 q 763 238 740 183 q 786 357 786 293 l 786 813 l 865 813 l 865 0 l 788 0 l 788 165 q 667 34 747 85 q 479 -17 586 -17 m 307 992 l 674 992 l 674 922 l 307 922 l 307 992 z "},"Ŭ":{"ha":890,"x_min":100,"x_max":790,"o":"m 444 -14 q 308 13 371 -14 q 199 85 244 39 q 126 195 153 132 q 100 331 100 258 l 100 1014 l 181 1014 l 181 326 q 201 224 181 272 q 256 140 221 175 q 340 83 292 104 q 444 63 389 63 q 549 83 500 63 q 633 140 597 104 q 689 224 668 176 q 710 328 710 272 l 710 1014 l 790 1014 l 790 331 q 764 195 790 258 q 691 85 738 132 q 581 13 644 39 q 444 -14 518 -14 m 440 1099 q 341 1117 383 1099 q 271 1165 299 1135 q 230 1234 243 1194 q 217 1317 217 1274 l 285 1317 q 324 1206 285 1251 q 440 1160 363 1160 q 555 1206 515 1160 q 594 1317 594 1251 l 665 1317 q 650 1234 665 1274 q 606 1165 635 1194 q 535 1117 576 1135 q 440 1099 493 1099 z "},"ŭ":{"ha":982,"x_min":114,"x_max":865,"o":"m 479 -17 q 326 9 394 -17 q 211 83 258 35 q 139 201 164 132 q 114 357 114 269 l 114 813 l 194 813 l 194 356 q 214 233 194 288 q 271 139 233 178 q 363 78 308 100 q 485 57 417 57 q 603 80 549 57 q 699 143 658 103 q 763 238 740 183 q 786 357 786 293 l 786 813 l 865 813 l 865 0 l 788 0 l 788 165 q 667 34 747 85 q 479 -17 586 -17 m 493 893 q 394 911 436 893 q 324 959 351 929 q 283 1028 296 989 q 269 1111 269 1068 l 338 1111 q 376 1000 338 1046 q 493 954 415 954 q 608 1000 568 954 q 647 1111 647 1046 l 718 1111 q 703 1028 718 1068 q 658 959 688 989 q 588 911 629 929 q 493 893 546 893 z "},"Ů":{"ha":890,"x_min":100,"x_max":790,"o":"m 438 1099 q 341 1138 381 1099 q 301 1236 301 1178 q 341 1335 301 1294 q 438 1375 381 1375 q 538 1335 497 1375 q 578 1236 578 1294 q 538 1138 578 1178 q 438 1099 497 1099 m 438 1161 q 492 1183 469 1161 q 515 1236 515 1204 q 492 1290 515 1268 q 438 1313 469 1313 q 385 1290 407 1313 q 363 1236 363 1268 q 385 1183 363 1204 q 438 1161 407 1161 m 444 -14 q 308 13 371 -14 q 199 85 244 39 q 126 195 153 132 q 100 331 100 258 l 100 1014 l 181 1014 l 181 326 q 201 224 181 272 q 256 140 221 175 q 340 83 292 104 q 444 63 389 63 q 549 83 500 63 q 633 140 597 104 q 689 224 668 176 q 710 328 710 272 l 710 1014 l 790 1014 l 790 331 q 764 195 790 258 q 691 85 738 132 q 581 13 644 39 q 444 -14 518 -14 z "},"ů":{"ha":982,"x_min":114,"x_max":865,"o":"m 479 -17 q 326 9 394 -17 q 211 83 258 35 q 139 201 164 132 q 114 357 114 269 l 114 813 l 194 813 l 194 356 q 214 233 194 288 q 271 139 233 178 q 363 78 308 100 q 485 57 417 57 q 603 80 549 57 q 699 143 658 103 q 763 238 740 183 q 786 357 786 293 l 786 813 l 865 813 l 865 0 l 788 0 l 788 165 q 667 34 747 85 q 479 -17 586 -17 m 488 857 q 391 897 431 857 q 351 994 351 936 q 391 1093 351 1053 q 488 1133 431 1133 q 588 1093 547 1133 q 628 994 628 1053 q 588 897 628 936 q 488 857 547 857 m 488 919 q 542 941 519 919 q 565 994 565 963 q 542 1049 565 1026 q 488 1071 519 1071 q 435 1049 457 1071 q 413 994 413 1026 q 435 941 413 963 q 488 919 457 919 z "},"Ű":{"ha":890,"x_min":100,"x_max":790,"o":"m 444 -14 q 308 13 371 -14 q 199 85 244 39 q 126 195 153 132 q 100 331 100 258 l 100 1014 l 181 1014 l 181 326 q 201 224 181 272 q 256 140 221 175 q 340 83 292 104 q 444 63 389 63 q 549 83 500 63 q 633 140 597 104 q 689 224 668 176 q 710 328 710 272 l 710 1014 l 790 1014 l 790 331 q 764 195 790 258 q 691 85 738 132 q 581 13 644 39 q 444 -14 518 -14 m 467 1319 l 565 1319 l 371 1104 l 301 1104 l 467 1319 m 636 1319 l 735 1319 l 540 1104 l 469 1104 l 636 1319 z "},"ű":{"ha":982,"x_min":114,"x_max":865,"o":"m 479 -17 q 326 9 394 -17 q 211 83 258 35 q 139 201 164 132 q 114 357 114 269 l 114 813 l 194 813 l 194 356 q 214 233 194 288 q 271 139 233 178 q 363 78 308 100 q 485 57 417 57 q 603 80 549 57 q 699 143 658 103 q 763 238 740 183 q 786 357 786 293 l 786 813 l 865 813 l 865 0 l 788 0 l 788 165 q 667 34 747 85 q 479 -17 586 -17 m 676 1117 l 775 1117 l 581 901 l 510 901 l 676 1117 m 507 1117 l 606 1117 l 411 901 l 342 901 l 507 1117 z "},"Ų":{"ha":890,"x_min":100,"x_max":790,"o":"m 447 -292 q 317 -254 367 -292 q 268 -160 268 -217 q 292 -83 268 -119 q 378 -7 317 -46 q 266 34 317 4 q 178 108 215 64 q 121 210 142 153 q 100 331 100 267 l 100 1014 l 181 1014 l 181 326 q 201 224 181 272 q 256 140 221 175 q 340 83 292 104 q 444 63 389 63 q 549 83 500 63 q 633 140 597 104 q 689 224 668 176 q 710 328 710 272 l 710 1014 l 790 1014 l 790 331 q 769 209 790 267 q 711 107 749 151 q 622 33 674 63 q 507 -8 569 3 q 431 -53 461 -33 q 382 -91 400 -74 q 356 -124 364 -108 q 349 -156 349 -139 q 376 -208 349 -189 q 447 -226 404 -226 q 514 -210 486 -226 q 567 -172 542 -194 l 629 -215 q 548 -269 596 -246 q 447 -292 500 -292 z "},"ų":{"ha":982,"x_min":114,"x_max":981,"o":"m 833 -303 q 715 -261 753 -303 q 676 -162 676 -219 q 708 -68 676 -114 q 788 18 739 -22 l 788 165 q 667 34 747 85 q 479 -17 586 -17 q 326 9 394 -17 q 211 83 258 35 q 139 201 164 132 q 114 357 114 269 l 114 813 l 194 813 l 194 356 q 214 233 194 288 q 271 139 233 178 q 363 78 308 100 q 485 57 417 57 q 603 80 549 57 q 699 143 658 103 q 763 238 740 183 q 786 357 786 293 l 786 813 l 865 813 l 865 0 q 781 -84 810 -44 q 751 -160 751 -124 q 774 -214 751 -193 q 833 -235 796 -235 q 890 -222 867 -235 q 935 -190 913 -210 l 981 -246 q 913 -286 951 -269 q 833 -303 875 -303 z "},"Ŵ":{"ha":1489,"x_min":58,"x_max":1432,"o":"m 58 1014 l 143 1014 l 401 124 l 704 1014 l 781 1014 l 1081 124 l 1349 1014 l 1432 1014 l 1122 0 l 1040 0 l 740 889 l 439 0 l 357 0 l 58 1014 m 706 1319 l 774 1319 l 939 1104 l 854 1104 l 739 1257 l 624 1104 l 540 1104 l 706 1319 z "},"ŵ":{"ha":1360,"x_min":65,"x_max":1294,"o":"m 65 813 l 150 813 l 371 117 l 647 813 l 715 813 l 983 114 l 1211 813 l 1294 813 l 1025 0 l 950 0 l 679 697 l 401 0 l 326 0 l 65 813 m 646 1115 l 714 1115 l 879 900 l 794 900 l 679 1053 l 564 900 l 481 900 l 646 1115 z "},"Ŷ":{"ha":850,"x_min":46,"x_max":804,"o":"m 386 482 l 46 1014 l 136 1014 l 425 558 l 714 1014 l 804 1014 l 467 485 l 467 0 l 386 0 l 386 482 m 389 1319 l 457 1319 l 622 1104 l 538 1104 l 422 1257 l 307 1104 l 224 1104 l 389 1319 z "},"ŷ":{"ha":908,"x_min":60,"x_max":850,"o":"m 424 46 l 60 813 l 149 813 l 467 136 l 764 813 l 850 813 l 319 -375 l 233 -375 l 424 46 m 426 1119 l 494 1119 l 660 904 l 575 904 l 460 1057 l 344 904 l 261 904 l 426 1119 z "},"Ÿ":{"ha":850,"x_min":46,"x_max":804,"o":"m 386 482 l 46 1014 l 136 1014 l 425 558 l 714 1014 l 804 1014 l 467 485 l 467 0 l 386 0 l 386 482 m 481 1222 q 498 1265 481 1249 q 542 1282 515 1282 q 585 1265 569 1282 q 601 1222 601 1249 q 585 1178 601 1196 q 542 1161 569 1161 q 497 1178 514 1161 q 481 1222 481 1196 m 247 1222 q 265 1265 247 1249 q 308 1282 282 1282 q 352 1265 336 1282 q 368 1222 368 1249 q 352 1178 368 1196 q 308 1161 336 1161 q 264 1178 281 1161 q 247 1222 247 1196 z "},"Ź":{"ha":833,"x_min":81,"x_max":754,"o":"m 81 74 l 657 938 l 103 938 l 103 1014 l 751 1014 l 751 940 l 175 76 l 754 76 l 754 0 l 81 0 l 81 74 m 536 1319 l 640 1319 l 446 1104 l 371 1104 l 536 1319 z "},"ź":{"ha":872,"x_min":79,"x_max":793,"o":"m 79 75 l 689 740 l 100 740 l 100 813 l 788 813 l 788 738 l 181 74 l 793 74 l 793 0 l 79 0 l 79 75 m 558 1121 l 663 1121 l 468 906 l 393 906 l 558 1121 z "},"Ż":{"ha":833,"x_min":81,"x_max":754,"o":"m 81 74 l 657 938 l 103 938 l 103 1014 l 751 1014 l 751 940 l 175 76 l 754 76 l 754 0 l 81 0 l 81 74 m 356 1222 q 375 1270 356 1251 q 424 1289 394 1289 q 474 1270 456 1289 q 492 1222 492 1251 q 474 1174 492 1193 q 424 1154 456 1154 q 374 1174 392 1154 q 356 1222 356 1193 z "},"ż":{"ha":872,"x_min":79,"x_max":793,"o":"m 79 75 l 689 740 l 100 740 l 100 813 l 788 813 l 788 738 l 181 74 l 793 74 l 793 0 l 79 0 l 79 75 m 381 969 q 400 1017 381 999 q 449 1036 419 1036 q 499 1017 481 1036 q 517 969 517 999 q 499 921 517 940 q 449 901 481 901 q 399 921 417 901 q 381 969 381 940 z "},"Ž":{"ha":833,"x_min":81,"x_max":754,"o":"m 81 74 l 657 938 l 103 938 l 103 1014 l 751 1014 l 751 940 l 175 76 l 754 76 l 754 0 l 81 0 l 81 74 m 225 1319 l 307 1319 l 419 1161 l 536 1319 l 618 1319 l 454 1104 l 388 1104 l 225 1319 z "},"ž":{"ha":872,"x_min":79,"x_max":793,"o":"m 79 75 l 689 740 l 100 740 l 100 813 l 788 813 l 788 738 l 181 74 l 793 74 l 793 0 l 79 0 l 79 75 m 250 1119 l 332 1119 l 444 961 l 561 1119 l 643 1119 l 479 904 l 413 904 l 250 1119 z "},"ƒ":{"ha":817,"x_min":88,"x_max":729,"o":"m 169 560 l 390 560 l 450 756 q 498 880 472 831 q 556 959 524 929 q 630 1001 589 989 q 724 1014 671 1014 l 729 1014 l 729 942 q 660 933 690 942 q 608 902 631 924 q 566 843 585 881 q 531 747 547 806 l 474 560 l 679 560 l 679 489 l 451 489 l 382 258 q 337 135 360 185 q 281 56 314 86 q 204 13 249 25 q 94 0 160 0 l 88 0 l 88 74 q 169 83 136 74 q 226 113 203 92 q 267 172 250 135 q 301 267 285 210 l 368 489 l 169 489 l 169 560 z "},"Ǻ":{"ha":969,"x_min":51,"x_max":918,"o":"m 424 968 q 365 1018 388 983 q 342 1096 342 1053 q 381 1194 342 1154 q 478 1235 421 1235 q 578 1194 538 1235 q 618 1096 618 1154 q 597 1023 618 1056 q 543 974 576 990 l 918 0 l 833 0 l 724 283 l 244 283 l 136 0 l 51 0 l 424 968 m 274 360 l 694 360 l 485 907 l 274 360 m 603 1494 l 707 1494 l 513 1279 l 438 1279 l 603 1494 m 478 1021 q 533 1042 510 1021 q 556 1096 556 1064 q 533 1150 556 1128 q 478 1172 510 1172 q 425 1150 447 1172 q 403 1096 403 1128 q 425 1042 403 1064 q 478 1021 447 1021 z "},"ǻ":{"ha":1038,"x_min":82,"x_max":919,"o":"m 501 -17 q 335 17 413 -17 q 202 108 258 50 q 114 242 146 165 q 82 406 82 318 q 105 546 82 479 q 169 667 128 613 q 267 759 210 721 q 393 815 325 797 q 361 904 361 851 q 401 1003 361 963 q 497 1043 440 1043 q 597 1003 557 1043 q 638 904 638 963 q 604 814 638 854 q 742 747 679 794 q 842 625 806 699 l 842 813 l 919 813 l 919 0 l 842 0 l 842 186 q 781 99 818 138 q 698 35 743 61 q 602 -3 653 10 q 501 -17 551 -17 m 504 57 q 640 84 578 57 q 750 158 703 111 q 824 269 797 206 q 850 406 850 333 q 824 542 850 478 q 750 653 797 606 q 640 728 703 700 q 504 756 578 756 q 371 728 433 756 q 262 653 308 701 q 189 542 215 606 q 163 406 163 479 q 189 269 163 333 q 262 158 215 206 q 371 84 308 111 q 504 57 433 57 m 619 1307 l 724 1307 l 529 1092 l 454 1092 l 619 1307 m 503 829 q 554 853 533 832 q 575 904 575 874 q 552 958 575 936 q 497 981 529 981 q 444 958 467 981 q 422 904 422 936 q 444 851 422 872 q 497 829 467 829 l 503 829 z "},"Ǽ":{"ha":1440,"x_min":43,"x_max":1336,"o":"m 557 1014 l 1336 1014 l 1336 938 l 663 938 l 750 546 l 1336 546 l 1336 471 l 767 471 l 854 76 l 1336 76 l 1336 0 l 790 0 l 728 276 l 274 276 l 135 0 l 43 0 l 557 1014 m 311 350 l 711 350 l 589 899 l 311 350 m 960 1319 l 1064 1319 l 869 1104 l 794 1104 l 960 1319 z "},"ǽ":{"ha":1593,"x_min":82,"x_max":1508,"o":"m 1096 -17 q 873 39 969 -17 q 724 188 776 94 q 671 115 704 151 q 592 49 638 78 q 490 1 547 19 q 364 -17 432 -17 q 235 1 288 -17 q 149 48 182 18 q 99 117 115 78 q 83 201 83 157 q 106 303 82 261 q 172 373 131 344 q 270 419 214 401 q 389 450 326 438 q 498 473 444 463 q 593 499 551 483 q 660 540 635 515 q 685 601 685 564 q 624 718 685 672 q 440 764 564 764 q 244 703 314 764 q 174 544 174 642 l 174 539 l 99 539 l 99 542 q 123 660 99 607 q 192 750 147 713 q 299 808 236 788 q 439 829 361 829 q 647 783 569 829 q 749 658 725 738 q 894 783 806 738 q 1090 829 982 829 q 1256 799 1179 829 q 1388 713 1332 768 q 1476 581 1444 657 q 1508 414 1508 504 l 1508 386 l 746 386 q 776 255 749 315 q 851 150 804 194 q 960 81 897 106 q 1096 56 1024 56 q 1303 121 1218 56 q 1421 290 1389 186 l 1493 258 q 1435 145 1472 196 q 1346 58 1397 94 q 1232 3 1294 22 q 1096 -17 1169 -17 m 1090 757 q 965 734 1024 757 q 863 671 907 711 q 789 576 818 631 q 750 458 760 522 l 1425 458 q 1391 580 1418 525 q 1320 674 1364 635 q 1218 735 1276 714 q 1090 757 1160 757 m 367 51 q 485 72 432 51 q 578 123 538 92 q 646 192 618 154 q 689 264 674 229 q 668 403 668 329 q 669 440 668 422 q 674 476 671 458 q 583 425 646 442 q 419 389 519 408 q 317 366 364 379 q 237 332 271 353 q 183 280 203 311 q 164 203 164 249 q 175 144 164 172 q 210 96 186 117 q 274 63 235 75 q 367 51 313 51 m 896 1108 l 1000 1108 l 806 893 l 731 893 l 896 1108 z "},"Ǿ":{"ha":1188,"x_min":74,"x_max":1115,"o":"m 253 114 q 122 288 169 186 q 74 507 74 389 q 115 710 74 615 q 226 875 156 804 q 392 987 297 946 q 594 1028 486 1028 q 744 1006 674 1028 q 876 944 815 985 l 929 1014 l 1024 1014 l 936 899 q 1067 726 1019 826 q 1115 507 1115 625 q 1074 304 1115 399 q 963 139 1033 210 q 797 27 892 68 q 594 -14 703 -14 q 444 7 515 -14 q 313 68 374 28 l 261 0 l 167 0 l 253 114 m 156 507 q 194 323 156 408 q 299 176 232 238 l 831 882 q 720 933 779 915 q 594 951 661 951 q 422 917 501 951 q 283 822 342 882 q 190 680 224 761 q 156 507 156 599 m 594 63 q 767 98 688 63 q 906 194 847 133 q 999 335 965 254 q 1032 507 1032 415 q 994 690 1032 606 q 889 836 956 774 l 358 131 q 469 81 410 99 q 594 63 528 63 m 710 1319 l 814 1319 l 619 1104 l 544 1104 l 710 1319 z "},"ǿ":{"ha":1008,"x_min":82,"x_max":926,"o":"m 504 -17 q 385 0 442 -17 q 279 47 328 17 l 244 0 l 157 0 l 222 89 q 119 228 157 147 q 82 406 82 310 q 115 572 82 494 q 205 706 147 649 q 340 797 263 764 q 504 829 417 829 q 623 813 567 829 q 728 765 679 796 l 763 813 l 853 813 l 785 722 q 889 583 851 664 q 926 406 926 501 q 893 240 926 317 q 803 106 860 163 q 669 16 746 49 q 504 -17 592 -17 m 163 406 q 191 264 163 329 q 269 150 219 199 l 682 704 q 504 756 603 756 q 369 728 432 756 q 261 653 307 701 q 189 542 215 606 q 163 406 163 479 m 504 57 q 638 84 575 57 q 746 158 700 111 q 818 269 792 206 q 844 406 844 333 q 816 546 844 481 q 739 660 788 611 l 325 107 q 409 70 364 83 q 504 57 454 57 m 626 1133 l 731 1133 l 536 918 l 461 918 l 626 1133 z "},"Ș":{"ha":774,"x_min":42,"x_max":703,"o":"m 296 -356 l 356 -72 l 432 -72 l 351 -356 l 296 -356 m 379 -14 q 183 31 267 -14 q 42 153 99 76 l 108 204 q 225 97 157 133 q 379 60 293 60 q 475 75 431 60 q 552 118 519 90 q 603 185 585 146 q 622 274 622 225 q 601 360 622 325 q 543 421 579 396 q 460 463 507 446 q 364 497 414 481 q 260 535 311 514 q 169 586 210 556 q 104 661 129 617 q 79 771 79 706 q 103 874 79 826 q 167 955 126 921 q 262 1008 207 989 q 381 1028 317 1028 q 556 990 483 1028 q 679 889 629 953 l 617 840 q 519 927 576 897 q 381 957 461 957 q 294 943 335 957 q 224 905 254 929 q 178 847 194 881 q 161 771 161 813 q 182 689 161 722 q 238 633 203 656 q 319 593 274 610 q 414 560 365 576 q 519 521 467 542 q 612 467 571 500 q 678 388 653 435 q 703 274 703 342 q 679 162 703 214 q 613 71 656 110 q 510 9 569 32 q 379 -14 450 -14 z "},"ș":{"ha":753,"x_min":51,"x_max":672,"o":"m 261 -392 l 321 -108 l 397 -108 l 317 -392 l 261 -392 m 371 -17 q 183 26 267 -17 q 51 135 100 68 l 114 185 q 222 92 154 129 q 372 54 289 54 q 469 68 428 54 q 538 106 510 82 q 579 160 565 129 q 593 225 593 192 q 573 291 593 265 q 519 334 553 317 q 444 363 486 351 q 357 386 401 375 q 259 414 307 399 q 174 453 211 429 q 113 515 136 478 q 90 608 90 553 q 110 693 90 653 q 166 764 129 733 q 254 813 203 794 q 369 831 306 831 q 531 799 457 831 q 653 713 604 768 l 593 664 q 497 736 551 711 q 369 761 443 761 q 222 718 274 761 q 169 610 169 675 q 189 547 169 572 q 240 505 208 522 q 313 476 272 488 q 399 453 354 464 q 498 424 449 440 q 585 383 547 408 q 648 321 624 358 q 672 225 672 283 q 654 139 672 182 q 599 61 636 96 q 506 5 563 26 q 371 -17 449 -17 z "},"ȷ":{"ha":314,"x_min":-97,"x_max":197,"o":"m -97 -294 q 10 -287 -32 -294 q 76 -258 53 -281 q 109 -192 100 -235 q 118 -81 118 -150 l 118 813 l 197 813 l 197 -82 q 184 -224 197 -168 q 139 -313 171 -281 q 52 -359 107 -346 q -85 -372 -3 -372 l -97 -372 l -97 -294 z "},"ˆ":{"ha":697,"x_min":150,"x_max":549,"o":"m 315 1000 l 383 1000 l 549 785 l 464 785 l 349 938 l 233 785 l 150 785 l 315 1000 z "},"ˇ":{"ha":697,"x_min":153,"x_max":546,"o":"m 153 1000 l 235 1000 l 347 842 l 464 1000 l 546 1000 l 382 785 l 315 785 l 153 1000 z "},"˘":{"ha":697,"x_min":124,"x_max":572,"o":"m 347 775 q 248 793 290 775 q 178 841 206 811 q 137 910 150 871 q 124 993 124 950 l 192 993 q 231 882 192 928 q 347 836 269 836 q 462 882 422 836 q 501 993 501 928 l 572 993 q 557 910 572 950 q 513 841 542 871 q 442 793 483 811 q 347 775 400 775 z "},"˙":{"ha":703,"x_min":269,"x_max":406,"o":"m 269 903 q 289 951 269 932 q 338 969 308 969 q 388 951 369 969 q 406 903 406 932 q 388 854 406 874 q 338 835 369 835 q 288 854 306 835 q 269 903 269 874 z "},"˚":{"ha":697,"x_min":207,"x_max":483,"o":"m 343 779 q 247 819 286 779 q 207 917 207 858 q 247 1015 207 975 q 343 1056 286 1056 q 443 1015 403 1056 q 483 917 483 975 q 443 819 483 858 q 343 779 403 779 m 343 842 q 398 863 375 842 q 421 917 421 885 q 398 971 421 949 q 343 993 375 993 q 290 971 313 993 q 268 917 268 949 q 290 863 268 885 q 343 842 313 842 z "},"˛":{"ha":697,"x_min":160,"x_max":521,"o":"m 339 -290 q 209 -253 258 -290 q 160 -158 160 -215 q 201 -61 160 -108 q 346 35 242 -14 l 410 -1 q 327 -50 360 -29 q 275 -88 294 -71 q 248 -122 256 -106 q 240 -154 240 -137 q 268 -206 240 -187 q 339 -225 296 -225 q 406 -209 378 -225 q 458 -171 433 -193 l 521 -214 q 440 -267 488 -244 q 339 -290 392 -290 z "},"˜":{"ha":697,"x_min":106,"x_max":588,"o":"m 106 785 q 142 894 106 854 q 235 935 178 935 q 298 922 269 935 q 354 893 326 910 q 405 864 381 878 q 454 850 429 850 q 505 869 486 850 q 524 931 524 889 l 588 931 q 553 819 588 860 q 456 779 519 779 q 384 795 415 779 q 325 828 353 811 q 281 853 301 842 q 235 865 260 865 q 189 845 207 865 q 171 785 171 825 l 106 785 z "},"˝":{"ha":697,"x_min":129,"x_max":563,"o":"m 294 1000 l 393 1000 l 199 785 l 129 785 l 294 1000 m 464 1000 l 563 1000 l 368 785 l 297 785 l 464 1000 z "},"̨":{"ha":697,"x_min":224,"x_max":528,"o":"m 381 -303 q 262 -261 300 -303 q 224 -162 224 -219 q 260 -60 224 -110 q 353 33 297 -11 l 413 0 q 328 -84 357 -44 q 299 -160 299 -124 q 321 -214 299 -193 q 381 -235 343 -235 q 437 -222 414 -235 q 482 -190 460 -210 l 528 -246 q 460 -286 499 -269 q 381 -303 422 -303 z "},"π":{"ha":1029,"x_min":60,"x_max":971,"o":"m 60 1014 l 971 1014 l 971 936 l 772 936 l 772 243 q 802 117 772 160 q 907 75 832 75 l 964 75 l 964 0 l 901 0 q 740 64 789 0 q 692 243 692 128 l 692 936 l 322 936 l 322 0 l 242 0 l 242 936 l 60 936 l 60 1014 z "},"฿":{"ha":744,"x_min":92,"x_max":671,"o":"m 92 921 l 335 921 l 335 1014 l 406 1014 l 406 921 l 410 921 q 511 906 465 921 q 590 862 557 890 q 640 793 622 833 q 658 704 658 753 q 628 594 658 642 q 542 521 599 546 q 638 446 604 497 q 671 324 671 394 q 652 228 671 271 q 600 156 633 186 q 520 109 567 125 q 417 93 474 93 l 406 93 l 406 0 l 335 0 l 335 93 l 92 93 l 92 921 m 171 167 l 335 167 l 335 482 l 171 482 l 171 167 m 406 482 l 406 167 l 418 167 q 544 211 497 167 q 592 325 592 256 q 547 438 592 394 q 415 482 501 482 l 406 482 m 171 557 l 335 557 l 335 849 l 171 849 l 171 557 m 406 849 l 406 557 l 419 557 q 538 599 496 557 q 581 704 581 642 q 533 808 581 768 q 410 849 486 849 l 406 849 z "},"Ẁ":{"ha":1489,"x_min":58,"x_max":1432,"o":"m 58 1014 l 143 1014 l 401 124 l 704 1014 l 781 1014 l 1081 124 l 1349 1014 l 1432 1014 l 1122 0 l 1040 0 l 740 889 l 439 0 l 357 0 l 58 1014 m 507 1319 l 610 1319 l 776 1104 l 701 1104 l 507 1319 z "},"ẁ":{"ha":1360,"x_min":65,"x_max":1294,"o":"m 65 813 l 150 813 l 371 117 l 647 813 l 715 813 l 983 114 l 1211 813 l 1294 813 l 1025 0 l 950 0 l 679 697 l 401 0 l 326 0 l 65 813 m 446 1122 l 549 1122 l 715 907 l 640 907 l 446 1122 z "},"Ẃ":{"ha":1489,"x_min":58,"x_max":1432,"o":"m 58 1014 l 143 1014 l 401 124 l 704 1014 l 781 1014 l 1081 124 l 1349 1014 l 1432 1014 l 1122 0 l 1040 0 l 740 889 l 439 0 l 357 0 l 58 1014 m 863 1319 l 967 1319 l 772 1104 l 697 1104 l 863 1319 z "},"ẃ":{"ha":1360,"x_min":65,"x_max":1294,"o":"m 65 813 l 150 813 l 371 117 l 647 813 l 715 813 l 983 114 l 1211 813 l 1294 813 l 1025 0 l 950 0 l 679 697 l 401 0 l 326 0 l 65 813 m 813 1118 l 917 1118 l 722 903 l 647 903 l 813 1118 z "},"Ẅ":{"ha":1489,"x_min":58,"x_max":1432,"o":"m 58 1014 l 143 1014 l 401 124 l 704 1014 l 781 1014 l 1081 124 l 1349 1014 l 1432 1014 l 1122 0 l 1040 0 l 740 889 l 439 0 l 357 0 l 58 1014 m 799 1222 q 816 1265 799 1249 q 860 1282 833 1282 q 903 1265 888 1282 q 919 1222 919 1249 q 903 1178 919 1196 q 860 1161 888 1161 q 815 1178 832 1161 q 799 1222 799 1196 m 565 1222 q 583 1265 565 1249 q 626 1282 600 1282 q 670 1265 654 1282 q 686 1222 686 1249 q 670 1178 686 1196 q 626 1161 654 1161 q 582 1178 599 1161 q 565 1222 565 1196 z "},"ẅ":{"ha":1360,"x_min":65,"x_max":1294,"o":"m 65 813 l 150 813 l 371 117 l 647 813 l 715 813 l 983 114 l 1211 813 l 1294 813 l 1025 0 l 950 0 l 679 697 l 401 0 l 326 0 l 65 813 m 736 974 q 753 1017 736 1000 q 797 1033 771 1033 q 841 1017 825 1033 q 857 974 857 1000 q 841 930 857 947 q 797 913 825 913 q 753 930 769 913 q 736 974 736 947 m 503 974 q 520 1017 503 1000 q 564 1033 538 1033 q 608 1017 592 1033 q 624 974 624 1000 q 608 930 624 947 q 564 913 592 913 q 519 930 536 913 q 503 974 503 947 z "},"Ỳ":{"ha":850,"x_min":46,"x_max":804,"o":"m 386 482 l 46 1014 l 136 1014 l 425 558 l 714 1014 l 804 1014 l 467 485 l 467 0 l 386 0 l 386 482 m 193 1319 l 296 1319 l 463 1104 l 388 1104 l 193 1319 z "},"ỳ":{"ha":908,"x_min":60,"x_max":850,"o":"m 424 46 l 60 813 l 149 813 l 467 136 l 764 813 l 850 813 l 319 -375 l 233 -375 l 424 46 m 225 1094 l 328 1094 l 494 879 l 419 879 l 225 1094 z "},"‒":{"ha":939,"x_min":74,"x_max":865,"o":"m 74 385 l 865 385 l 865 314 l 74 314 l 74 385 z "},"–":{"ha":731,"x_min":74,"x_max":657,"o":"m 74 385 l 657 385 l 657 314 l 74 314 l 74 385 z "},"—":{"ha":1008,"x_min":74,"x_max":935,"o":"m 74 385 l 935 385 l 935 314 l 74 314 l 74 385 z "},"―":{"ha":1425,"x_min":74,"x_max":1351,"o":"m 74 385 l 1351 385 l 1351 314 l 74 314 l 74 385 z "},"‖":{"ha":486,"x_min":92,"x_max":394,"o":"m 92 1014 l 172 1014 l 172 -319 l 92 -319 l 92 1014 m 314 1014 l 394 1014 l 394 -319 l 314 -319 l 314 1014 z "},"‘":{"ha":263,"x_min":58,"x_max":199,"o":"m 199 731 l 143 731 l 58 1014 l 138 1014 l 199 731 z "},"’":{"ha":263,"x_min":61,"x_max":201,"o":"m 61 731 l 122 1014 l 201 1014 l 115 731 l 61 731 z "},"‚":{"ha":264,"x_min":46,"x_max":186,"o":"m 46 -162 l 107 121 l 186 121 l 101 -162 l 46 -162 z "},"‛":{"ha":263,"x_min":61,"x_max":201,"o":"m 61 731 l 122 1014 l 201 1014 l 115 731 l 61 731 z "},"“":{"ha":407,"x_min":61,"x_max":344,"o":"m 199 731 l 146 731 l 61 1014 l 138 1014 l 199 731 m 344 731 l 290 731 l 208 1014 l 283 1014 l 344 731 z "},"”":{"ha":407,"x_min":61,"x_max":347,"o":"m 61 731 l 122 1014 l 201 1014 l 115 731 l 61 731 m 207 731 l 268 1014 l 347 1014 l 263 731 l 207 731 z "},"„":{"ha":410,"x_min":49,"x_max":336,"o":"m 49 -162 l 110 121 l 189 121 l 104 -162 l 49 -162 m 194 -162 l 257 121 l 336 121 l 250 -162 l 194 -162 z "},"‟":{"ha":407,"x_min":61,"x_max":347,"o":"m 61 731 l 122 1014 l 201 1014 l 115 731 l 61 731 m 207 731 l 268 1014 l 347 1014 l 263 731 l 207 731 z "},"†":{"ha":813,"x_min":92,"x_max":721,"o":"m 92 694 l 364 694 l 364 1014 l 444 1014 l 444 694 l 721 694 l 721 624 l 444 624 l 444 0 l 364 0 l 364 624 l 92 624 l 92 694 z "},"‡":{"ha":813,"x_min":92,"x_max":721,"o":"m 92 721 l 364 721 l 364 1014 l 444 1014 l 444 721 l 721 721 l 721 650 l 444 650 l 444 374 l 721 374 l 721 304 l 444 304 l 444 0 l 364 0 l 364 304 l 92 304 l 92 374 l 364 374 l 364 650 l 92 650 l 92 721 z "},"•":{"ha":424,"x_min":129,"x_max":296,"o":"m 213 265 q 153 290 178 265 q 129 349 129 314 q 153 408 129 383 q 213 432 178 432 q 272 408 247 432 q 296 349 296 383 q 272 290 296 314 q 213 265 247 265 z "},"…":{"ha":638,"x_min":54,"x_max":585,"o":"m 54 49 q 71 91 54 75 q 114 107 88 107 q 158 91 142 107 q 174 49 174 75 q 158 6 174 22 q 114 -11 142 -11 q 70 6 86 -11 q 54 49 54 22 m 258 49 q 275 91 258 75 q 318 107 292 107 q 362 91 346 107 q 378 49 378 75 q 362 6 378 22 q 318 -11 346 -11 q 274 6 290 -11 q 258 49 258 22 m 465 49 q 482 91 465 75 q 525 107 499 107 q 569 91 553 107 q 585 49 585 75 q 569 6 585 22 q 525 -11 553 -11 q 481 6 497 -11 q 465 49 465 22 z "},"‰":{"ha":1767,"x_min":106,"x_max":1663,"o":"m 992 1014 l 1093 1014 l 222 0 l 121 0 l 992 1014 m 878 -15 q 788 3 829 -15 q 715 53 746 21 q 665 127 683 85 q 647 217 647 169 q 665 307 647 265 q 715 380 683 349 q 788 429 746 411 q 878 447 829 447 q 968 429 926 447 q 1041 380 1010 411 q 1090 307 1072 349 q 1108 217 1108 265 q 1090 127 1108 169 q 1041 53 1072 85 q 968 3 1010 21 q 878 -15 926 -15 m 878 53 q 940 65 911 53 q 991 100 969 78 q 1026 152 1013 122 q 1039 217 1039 182 q 1026 280 1039 250 q 991 332 1013 310 q 940 367 969 354 q 878 379 911 379 q 815 367 844 379 q 764 332 786 354 q 729 280 742 310 q 717 217 717 250 q 729 152 717 182 q 764 100 742 122 q 815 65 786 78 q 878 53 844 53 m 336 565 q 247 583 289 565 q 173 633 204 601 q 124 708 142 665 q 106 797 106 750 q 124 888 106 846 q 173 960 142 929 q 247 1010 204 992 q 336 1028 289 1028 q 426 1010 385 1028 q 499 960 468 992 q 549 888 531 929 q 567 797 567 846 q 549 708 567 750 q 499 633 531 665 q 426 583 468 601 q 336 565 385 565 m 336 633 q 399 647 369 633 q 450 682 428 660 q 485 734 472 704 q 497 797 497 764 q 485 860 497 831 q 450 913 472 890 q 399 947 428 935 q 336 960 369 960 q 274 947 303 960 q 223 913 244 935 q 188 860 201 890 q 175 797 175 831 q 188 734 175 764 q 223 682 201 704 q 274 647 244 660 q 336 633 303 633 m 1431 -15 q 1341 3 1383 -15 q 1267 53 1299 21 q 1218 127 1236 85 q 1200 217 1200 169 q 1218 307 1200 265 q 1267 380 1236 349 q 1341 429 1299 411 q 1431 447 1383 447 q 1521 429 1479 447 q 1594 380 1563 411 q 1644 307 1626 349 q 1663 217 1663 265 q 1644 127 1663 169 q 1594 53 1626 85 q 1521 3 1563 21 q 1431 -15 1479 -15 m 1431 53 q 1493 65 1464 53 q 1544 100 1522 78 q 1578 152 1565 122 q 1592 217 1592 182 q 1578 280 1592 250 q 1544 332 1565 310 q 1493 367 1522 354 q 1431 379 1464 379 q 1369 367 1397 379 q 1318 332 1340 354 q 1283 280 1296 310 q 1271 217 1271 250 q 1283 152 1271 182 q 1318 100 1296 122 q 1369 65 1340 78 q 1431 53 1397 53 z "},"′":{"ha":263,"x_min":61,"x_max":201,"o":"m 61 731 l 122 1014 l 201 1014 l 115 731 l 61 731 z "},"″":{"ha":407,"x_min":61,"x_max":347,"o":"m 61 731 l 122 1014 l 201 1014 l 115 731 l 61 731 m 207 731 l 268 1014 l 347 1014 l 263 731 l 207 731 z "},"‴":{"ha":546,"x_min":89,"x_max":457,"o":"m 111 694 q 106 733 110 707 q 98 788 101 758 q 92 846 94 817 q 89 897 89 875 l 89 1014 l 160 1014 l 160 897 q 157 847 160 876 q 151 788 154 817 q 145 733 149 758 q 139 694 142 707 l 111 694 m 260 694 q 254 733 258 707 q 247 788 250 758 q 240 846 243 817 q 238 897 238 875 l 238 1014 l 308 1014 l 308 897 q 306 847 308 876 q 300 788 303 817 q 294 733 297 758 q 288 694 290 707 l 260 694 m 408 694 q 403 733 407 707 q 395 788 399 758 q 389 846 392 817 q 386 897 386 875 l 386 1014 l 457 1014 l 457 897 q 454 847 457 876 q 449 788 451 817 q 442 733 446 758 q 436 694 439 707 l 408 694 z "},"‹":{"ha":401,"x_min":97,"x_max":306,"o":"m 97 321 l 97 374 l 306 539 l 306 472 l 146 346 l 306 222 l 306 156 l 97 321 z "},"›":{"ha":401,"x_min":97,"x_max":306,"o":"m 97 222 l 256 347 l 97 472 l 97 540 l 306 375 l 306 321 l 97 156 l 97 222 z "},"‽":{"ha":749,"x_min":78,"x_max":668,"o":"m 338 224 q 335 347 336 269 q 334 514 335 425 q 333 692 333 603 q 333 851 333 782 l 333 954 q 221 910 265 944 q 149 822 176 875 l 78 856 q 190 978 114 928 q 376 1028 265 1028 q 492 1010 439 1028 q 585 959 546 992 q 646 881 624 926 q 668 781 668 836 q 649 675 668 715 q 599 606 629 635 q 535 551 569 576 q 470 492 500 526 q 421 407 440 457 q 401 276 401 357 l 401 224 l 338 224 m 588 782 q 538 898 588 851 q 411 954 488 944 l 411 851 q 408 682 411 772 q 403 504 406 592 q 461 575 429 547 q 522 630 493 603 q 569 692 550 657 q 588 782 588 726 m 300 54 q 319 102 300 83 q 368 121 339 121 q 418 102 400 121 q 436 54 436 83 q 418 6 436 25 q 368 -14 400 -14 q 318 6 336 -14 q 300 54 300 25 z "},"⁄":{"ha":901,"x_min":39,"x_max":865,"o":"m 771 1014 l 865 1014 l 133 0 l 39 0 l 771 1014 z "},"⁰":{"ha":690,"x_min":44,"x_max":646,"o":"m 344 419 q 227 443 282 419 q 132 508 172 467 q 68 603 92 549 q 44 721 44 658 q 68 838 44 783 q 132 934 92 893 q 227 999 172 975 q 344 1022 282 1022 q 462 999 407 1022 q 558 934 517 975 q 622 838 599 893 q 646 721 646 783 q 622 603 646 658 q 558 508 599 549 q 462 443 517 467 q 344 419 407 419 m 344 489 q 435 508 393 489 q 507 558 476 526 q 556 631 538 589 q 574 721 574 674 q 556 811 574 769 q 507 885 538 853 q 435 935 476 917 q 344 953 393 953 q 256 935 297 953 q 183 885 214 917 q 134 811 151 853 q 117 721 117 769 q 134 631 117 674 q 183 558 151 589 q 256 508 214 526 q 344 489 297 489 z "},"⁴":{"ha":521,"x_min":47,"x_max":475,"o":"m 318 563 l 47 563 l 47 629 l 315 1014 l 390 1014 l 390 629 l 475 629 l 475 563 l 390 563 l 390 428 l 318 428 l 318 563 m 318 629 l 318 901 l 126 629 l 318 629 z "},"⁵":{"ha":490,"x_min":49,"x_max":447,"o":"m 246 419 q 124 451 175 419 q 49 531 74 482 l 115 569 q 166 510 133 533 q 247 486 199 486 q 337 522 300 486 q 374 615 374 557 q 335 711 374 678 q 246 744 297 744 q 169 722 200 744 q 118 664 138 700 l 53 693 l 96 1014 l 414 1014 l 414 946 l 154 946 l 129 763 q 181 796 150 782 q 251 810 211 810 q 326 797 290 810 q 388 760 361 785 q 431 700 415 736 q 447 615 447 664 q 432 536 447 572 q 390 474 417 500 q 327 434 364 449 q 246 419 290 419 z "},"⁶":{"ha":503,"x_min":42,"x_max":454,"o":"m 249 419 q 166 435 204 419 q 100 478 128 451 q 57 542 72 506 q 42 621 42 579 q 53 699 42 661 q 86 765 65 736 l 254 1014 l 339 1014 l 201 813 q 261 824 232 824 q 337 808 301 824 q 398 766 372 793 q 439 702 424 739 q 454 622 454 665 q 438 542 454 579 q 394 477 422 504 q 329 435 367 450 q 249 419 292 419 m 247 486 q 299 497 275 486 q 342 526 324 507 q 372 569 361 544 q 383 624 383 594 q 372 676 383 651 q 342 720 361 701 q 299 749 324 739 q 247 760 275 760 q 151 720 190 760 q 111 622 111 681 q 151 525 111 564 q 247 486 190 486 z "},"⁷":{"ha":454,"x_min":47,"x_max":411,"o":"m 335 944 l 47 944 l 47 1014 l 411 1014 l 411 951 l 175 428 l 97 428 l 335 944 z "},"⁸":{"ha":476,"x_min":51,"x_max":424,"o":"m 238 419 q 160 433 194 419 q 101 472 125 447 q 64 528 76 496 q 51 594 51 560 q 76 681 51 643 q 142 740 101 719 q 92 790 110 760 q 74 864 74 821 q 85 925 74 896 q 119 976 97 954 q 170 1010 140 997 q 238 1022 200 1022 q 304 1010 274 1022 q 357 976 335 997 q 391 925 379 954 q 403 864 403 896 q 383 791 403 821 q 332 742 364 761 q 399 684 374 722 q 424 594 424 646 q 411 528 424 560 q 375 472 399 496 q 317 433 351 447 q 238 419 282 419 m 238 486 q 321 518 290 486 q 351 594 351 550 q 322 672 351 639 q 238 706 292 706 q 154 672 185 706 q 124 594 124 639 q 154 518 124 550 q 238 486 185 486 m 238 774 q 305 799 279 774 q 331 864 331 825 q 306 928 331 901 q 238 956 281 956 q 172 928 196 956 q 147 864 147 901 q 172 799 147 825 q 238 774 196 774 z "},"⁹":{"ha":493,"x_min":43,"x_max":450,"o":"m 292 635 q 233 625 267 625 q 160 640 194 625 q 99 682 125 656 q 58 744 74 708 q 43 824 43 781 q 59 903 43 867 q 102 965 75 939 q 166 1007 129 992 q 246 1022 203 1022 q 327 1007 290 1022 q 392 965 364 992 q 435 901 419 938 q 450 824 450 865 q 439 751 450 786 q 410 688 428 715 l 242 428 l 154 428 l 292 635 m 247 689 q 299 699 275 689 q 342 728 324 710 q 370 772 360 747 q 381 824 381 796 q 342 918 381 879 q 247 957 303 957 q 153 918 192 957 q 114 822 114 879 q 153 728 114 767 q 247 689 192 689 z "},"⁺":{"ha":394,"x_min":49,"x_max":344,"o":"m 49 751 l 168 751 l 168 868 l 228 868 l 228 751 l 344 751 l 344 690 l 228 690 l 228 572 l 168 572 l 168 690 l 49 690 l 49 751 z "},"⁻":{"ha":394,"x_min":49,"x_max":344,"o":"m 49 753 l 344 753 l 344 690 l 49 690 l 49 753 z "},"⁼":{"ha":394,"x_min":49,"x_max":344,"o":"m 49 815 l 344 815 l 344 754 l 49 754 l 49 815 m 49 683 l 344 683 l 344 622 l 49 622 l 49 683 z "},"⁽":{"ha":378,"x_min":50,"x_max":315,"o":"m 271 324 q 109 492 168 394 q 50 726 50 589 q 109 963 50 865 q 267 1129 168 1060 l 313 1069 q 177 929 229 1013 q 125 726 125 846 q 178 525 125 608 q 315 385 232 442 l 271 324 z "},"⁾":{"ha":379,"x_min":63,"x_max":328,"o":"m 63 385 q 199 525 146 442 q 253 726 253 608 q 201 929 253 846 q 65 1069 149 1013 l 113 1129 q 269 961 210 1058 q 328 726 328 864 q 269 492 328 589 q 108 324 210 394 l 63 385 z "},"₀":{"ha":690,"x_min":44,"x_max":646,"o":"m 344 -8 q 227 15 282 -8 q 132 80 172 39 q 68 176 92 121 q 44 293 44 231 q 68 410 44 356 q 132 506 92 465 q 227 571 172 547 q 344 594 282 594 q 462 571 407 594 q 558 506 517 547 q 622 410 599 465 q 646 293 646 356 q 622 176 646 231 q 558 80 599 121 q 462 15 517 39 q 344 -8 407 -8 m 344 61 q 435 80 393 61 q 507 130 476 99 q 556 203 538 161 q 574 293 574 246 q 556 383 574 342 q 507 457 538 425 q 435 507 476 489 q 344 525 393 525 q 256 507 297 525 q 183 457 214 489 q 134 383 151 425 q 117 293 117 342 q 134 203 117 246 q 183 130 151 161 q 256 80 214 99 q 344 61 297 61 z "},"₁":{"ha":397,"x_min":51,"x_max":353,"o":"m 51 68 l 168 68 l 168 464 q 127 428 156 443 q 71 414 99 414 l 63 414 l 63 490 l 67 490 q 115 499 96 490 q 147 522 135 508 q 164 553 158 536 q 169 586 169 571 l 240 586 l 240 68 l 353 68 l 353 0 l 51 0 l 51 68 z "},"₂":{"ha":478,"x_min":47,"x_max":428,"o":"m 54 69 q 69 135 54 106 q 107 191 83 165 q 160 239 131 217 q 218 282 189 261 q 269 317 244 300 q 312 353 293 335 q 342 391 331 371 q 353 433 353 411 q 322 503 353 475 q 239 531 292 531 q 161 506 193 531 q 110 440 129 481 l 47 472 q 122 561 74 528 q 239 594 171 594 q 376 548 326 594 q 426 433 426 501 q 413 370 426 399 q 376 317 399 342 q 326 272 354 293 q 269 232 299 251 q 217 196 243 214 q 172 158 192 178 q 140 116 153 138 q 128 69 128 94 l 428 69 l 428 0 l 54 0 l 54 69 z "},"₃":{"ha":457,"x_min":35,"x_max":413,"o":"m 219 -8 q 115 11 163 -8 q 35 71 68 31 l 96 118 q 219 58 140 58 q 306 88 272 58 q 340 164 340 117 q 304 242 340 214 q 213 269 268 269 l 154 269 l 154 336 l 213 336 q 300 364 269 336 q 331 436 331 392 q 299 505 331 479 q 217 531 268 531 q 147 513 176 531 q 101 469 118 496 l 40 504 q 111 569 65 543 q 217 594 157 594 q 351 551 301 594 q 400 436 400 508 q 379 358 400 392 q 321 304 358 325 q 388 249 363 285 q 413 164 413 214 q 362 40 413 89 q 219 -8 311 -8 z "},"₄":{"ha":521,"x_min":47,"x_max":475,"o":"m 318 135 l 47 135 l 47 201 l 315 586 l 390 586 l 390 201 l 475 201 l 475 135 l 390 135 l 390 0 l 318 0 l 318 135 m 318 201 l 318 474 l 126 201 l 318 201 z "},"₅":{"ha":490,"x_min":49,"x_max":447,"o":"m 246 -8 q 124 23 175 -8 q 49 103 74 54 l 115 142 q 166 82 133 106 q 247 58 199 58 q 337 94 300 58 q 374 188 374 129 q 335 283 374 250 q 246 317 297 317 q 169 294 200 317 q 118 236 138 272 l 53 265 l 96 586 l 414 586 l 414 518 l 154 518 l 129 335 q 181 368 150 354 q 251 382 211 382 q 326 369 290 382 q 388 333 361 357 q 431 272 415 308 q 447 188 447 236 q 432 108 447 144 q 390 47 417 72 q 327 6 364 21 q 246 -8 290 -8 z "},"₆":{"ha":507,"x_min":47,"x_max":460,"o":"m 254 -8 q 172 8 210 -8 q 106 51 133 24 q 63 115 78 78 q 47 193 47 151 q 59 271 47 233 q 92 338 71 308 l 260 586 l 344 586 l 207 385 q 267 396 238 396 q 342 381 307 396 q 403 338 378 365 q 444 274 429 311 q 460 194 460 238 q 444 114 460 151 q 400 49 428 76 q 335 7 372 22 q 254 -8 297 -8 m 253 58 q 305 69 281 58 q 348 98 329 79 q 378 142 367 117 q 389 196 389 167 q 378 249 389 224 q 348 292 367 274 q 305 322 329 311 q 253 332 281 332 q 156 292 196 332 q 117 194 117 253 q 156 97 117 136 q 253 58 196 58 z "},"₇":{"ha":454,"x_min":47,"x_max":411,"o":"m 335 517 l 47 517 l 47 586 l 411 586 l 411 524 l 175 0 l 97 0 l 335 517 z "},"₈":{"ha":476,"x_min":51,"x_max":424,"o":"m 238 -8 q 160 6 194 -8 q 101 44 125 19 q 64 100 76 68 q 51 167 51 132 q 76 253 51 215 q 142 313 101 292 q 92 363 110 332 q 74 436 74 393 q 85 497 74 468 q 119 548 97 526 q 170 582 140 569 q 238 594 200 594 q 304 582 274 594 q 357 548 335 569 q 391 497 379 526 q 403 436 403 468 q 383 363 403 393 q 332 314 364 333 q 399 256 374 294 q 424 167 424 218 q 411 100 424 132 q 375 44 399 68 q 317 6 351 19 q 238 -8 282 -8 m 238 58 q 321 90 290 58 q 351 167 351 122 q 322 244 351 211 q 238 278 292 278 q 154 244 185 278 q 124 167 124 211 q 154 90 124 122 q 238 58 185 58 m 238 346 q 305 372 279 346 q 331 436 331 397 q 306 501 331 474 q 238 528 281 528 q 172 501 196 528 q 147 436 147 474 q 172 372 147 397 q 238 346 196 346 z "},"₉":{"ha":493,"x_min":43,"x_max":450,"o":"m 292 207 q 233 197 267 197 q 160 213 194 197 q 99 254 125 228 q 58 317 74 281 q 43 396 43 353 q 59 475 43 439 q 102 538 75 511 q 166 579 129 564 q 246 594 203 594 q 327 579 290 594 q 392 537 364 564 q 435 474 419 510 q 450 396 450 438 q 439 323 450 358 q 410 260 428 288 l 242 0 l 154 0 l 292 207 m 247 261 q 299 272 275 261 q 342 301 324 282 q 370 344 360 319 q 381 396 381 368 q 342 490 381 451 q 247 529 303 529 q 153 490 192 529 q 114 394 114 451 q 153 300 114 339 q 247 261 192 261 z "},"₊":{"ha":394,"x_min":49,"x_max":344,"o":"m 49 324 l 168 324 l 168 440 l 228 440 l 228 324 l 344 324 l 344 263 l 228 263 l 228 144 l 168 144 l 168 263 l 49 263 l 49 324 z "},"₋":{"ha":394,"x_min":49,"x_max":344,"o":"m 49 325 l 344 325 l 344 263 l 49 263 l 49 325 z "},"₌":{"ha":394,"x_min":49,"x_max":344,"o":"m 49 388 l 344 388 l 344 326 l 49 326 l 49 388 m 49 256 l 344 256 l 344 194 l 49 194 l 49 256 z "},"₍":{"ha":378,"x_min":50,"x_max":315,"o":"m 271 -104 q 109 64 168 -33 q 50 299 50 161 q 109 535 50 438 q 267 701 168 632 l 313 642 q 177 501 229 585 q 125 299 125 418 q 178 97 125 181 q 315 -43 232 14 l 271 -104 z "},"₎":{"ha":379,"x_min":63,"x_max":328,"o":"m 63 -43 q 199 97 146 14 q 253 299 253 181 q 201 501 253 418 q 65 642 149 585 l 113 701 q 269 533 210 631 q 328 299 328 436 q 269 64 328 161 q 108 -104 210 -33 l 63 -43 z "},"₡":{"ha":1107,"x_min":75,"x_max":1058,"o":"m 193 -167 l 294 82 q 135 263 194 153 q 75 507 75 374 q 116 710 75 615 q 228 875 157 804 q 393 987 299 946 q 596 1028 488 1028 q 638 1026 617 1028 q 679 1021 658 1024 l 739 1167 l 810 1167 l 743 1006 q 836 968 792 992 l 918 1167 l 989 1167 l 893 933 q 976 861 938 901 q 1043 772 1015 821 l 975 732 q 863 861 932 807 l 536 67 q 596 63 565 63 q 831 127 731 63 q 988 296 932 192 l 1058 260 q 978 148 1025 199 q 871 61 931 97 q 742 6 811 25 q 596 -14 674 -14 q 506 -6 550 -14 l 440 -167 l 371 -167 l 443 8 q 395 26 418 15 q 349 47 372 36 l 261 -167 l 193 -167 m 158 507 q 203 308 158 399 q 325 156 247 218 l 650 949 q 596 953 624 953 q 423 917 503 953 q 284 822 343 882 q 192 680 225 761 q 158 507 158 599 m 379 119 q 424 97 401 107 q 472 79 447 86 l 807 897 q 762 919 785 910 q 715 936 739 929 l 379 119 z "},"₢":{"ha":1107,"x_min":75,"x_max":1058,"o":"m 596 -14 q 393 27 488 -14 q 228 139 299 68 q 116 304 157 210 q 75 507 75 399 q 116 710 75 615 q 228 875 157 804 q 393 987 299 946 q 596 1028 488 1028 q 733 1009 667 1028 q 857 957 800 990 q 962 876 914 924 q 1043 772 1010 829 l 975 732 q 819 892 918 831 q 596 953 721 953 q 423 917 503 953 q 284 822 343 882 q 192 680 225 761 q 158 507 158 599 q 188 347 158 422 q 267 211 217 271 q 388 113 318 151 q 542 65 458 75 l 542 553 l 619 553 l 619 415 q 707 517 649 481 q 847 553 765 553 l 929 553 l 929 479 l 847 479 q 678 413 735 479 q 621 221 621 347 l 621 63 q 841 133 747 69 q 988 296 935 196 l 1058 260 q 978 148 1025 199 q 871 61 931 97 q 742 6 811 25 q 596 -14 674 -14 z "},"₣":{"ha":756,"x_min":92,"x_max":665,"o":"m 92 1014 l 665 1014 l 665 938 l 172 938 l 172 651 l 665 651 l 665 578 l 172 578 l 172 429 l 665 429 l 665 356 l 172 356 l 172 0 l 92 0 l 92 1014 z "},"₤":{"ha":968,"x_min":64,"x_max":892,"o":"m 104 597 l 254 597 q 232 671 240 632 q 224 756 224 710 q 244 867 224 817 q 303 953 265 918 q 395 1008 342 989 q 514 1028 449 1028 q 688 988 618 1028 q 803 881 758 949 l 738 831 q 650 926 703 894 q 514 958 597 958 q 360 903 418 958 q 303 757 303 847 q 313 673 303 713 q 338 597 322 633 l 660 597 l 660 472 l 403 472 q 455 362 432 418 q 478 238 478 306 q 461 143 478 188 q 550 79 504 107 q 656 51 596 51 q 772 93 733 51 q 811 246 811 135 l 811 271 l 892 271 l 892 236 q 834 44 892 101 q 663 -14 776 -14 q 532 17 586 -14 q 432 86 478 47 q 352 14 401 42 q 238 -14 303 -14 q 106 26 147 -14 q 64 129 64 67 q 106 229 64 190 q 224 269 149 268 q 323 245 279 269 q 407 189 367 221 q 411 233 411 210 q 383 360 411 304 q 321 472 356 415 l 104 472 l 104 597 m 238 49 q 324 71 288 49 q 383 129 361 93 q 310 183 347 161 q 226 206 272 206 q 158 184 181 206 q 135 128 135 163 q 162 70 135 92 q 238 49 189 49 z "},"₦":{"ha":1132,"x_min":43,"x_max":1088,"o":"m 43 635 l 156 635 l 156 1014 l 240 1014 l 518 635 l 896 635 l 896 1014 l 976 1014 l 976 635 l 1088 635 l 1088 571 l 976 571 l 976 442 l 1088 442 l 1088 379 l 976 379 l 976 0 l 894 0 l 615 379 l 235 379 l 235 0 l 156 0 l 156 379 l 43 379 l 43 442 l 156 442 l 156 571 l 43 571 l 43 635 m 235 442 l 569 442 l 475 571 l 235 571 l 235 442 m 660 442 l 896 442 l 896 571 l 565 571 l 660 442 m 235 897 l 235 635 l 428 635 l 235 897 m 896 121 l 896 379 l 706 379 l 896 121 z "},"₧":{"ha":1758,"x_min":92,"x_max":1690,"o":"m 1151 0 q 1024 14 1075 0 q 942 59 972 28 q 899 141 911 90 q 886 267 886 192 l 886 624 l 767 624 q 728 503 758 558 q 651 408 699 449 q 540 346 604 368 q 399 324 476 324 l 172 324 l 172 0 l 92 0 l 92 1014 l 399 1014 q 545 990 479 1014 q 659 923 611 965 q 735 822 707 881 q 768 694 764 764 l 886 694 l 886 860 l 967 903 l 967 694 l 1136 694 l 1136 624 l 967 624 l 967 268 q 976 173 967 210 q 1006 114 985 136 q 1065 83 1028 92 q 1161 75 1103 75 l 1411 75 q 1561 110 1514 75 q 1608 201 1608 144 q 1592 253 1608 233 q 1549 286 1576 272 q 1488 309 1522 300 q 1415 326 1453 318 q 1332 348 1374 336 q 1258 381 1290 360 q 1204 434 1225 401 q 1183 517 1183 467 q 1200 590 1183 556 q 1249 651 1217 625 q 1326 694 1281 678 q 1426 710 1371 710 q 1567 683 1501 710 q 1675 607 1632 656 l 1617 558 q 1426 642 1544 642 q 1304 606 1347 642 q 1261 518 1261 571 q 1277 467 1261 488 q 1320 434 1293 447 q 1383 412 1347 421 q 1456 393 1418 403 q 1540 371 1499 383 q 1615 338 1582 358 q 1669 284 1649 317 q 1690 201 1690 251 q 1675 123 1690 160 q 1626 59 1660 86 q 1539 16 1593 32 q 1407 0 1485 0 l 1151 0 m 172 940 l 172 399 l 394 399 q 517 419 463 399 q 609 477 571 440 q 667 563 647 514 q 688 669 688 613 q 667 777 688 728 q 609 863 647 826 q 517 920 571 900 q 394 940 463 940 l 172 940 z "},"₨":{"ha":1371,"x_min":92,"x_max":1303,"o":"m 1013 -15 q 773 20 878 -15 q 586 118 668 56 q 443 266 504 181 q 333 451 382 351 l 394 451 q 500 472 453 451 q 582 526 547 492 q 635 606 617 561 q 654 697 654 650 q 635 793 654 749 q 583 870 617 838 q 501 922 549 903 q 396 940 453 940 l 172 940 l 172 0 l 92 0 l 92 1014 l 401 1014 q 533 989 472 1014 q 640 921 594 964 q 710 820 685 878 q 735 697 735 763 q 715 588 735 640 q 659 493 696 535 q 571 424 622 451 q 457 388 519 396 q 550 256 497 317 q 670 151 603 196 q 822 80 738 106 q 1010 54 906 54 q 1172 97 1119 54 q 1224 194 1224 139 q 1207 247 1224 226 q 1163 282 1190 268 q 1099 305 1135 296 q 1026 324 1064 314 q 943 348 985 335 q 869 382 901 361 q 816 435 836 403 q 796 517 796 468 q 813 590 796 556 q 861 651 829 625 q 938 694 893 678 q 1039 710 983 710 q 1179 683 1114 710 q 1288 607 1244 656 l 1229 558 q 1039 642 1157 642 q 917 606 960 642 q 874 518 874 571 q 890 467 874 488 q 934 433 907 447 q 996 410 961 419 q 1068 390 1031 400 q 1152 367 1110 381 q 1228 332 1194 354 q 1282 277 1261 310 q 1303 194 1303 244 q 1287 117 1303 156 q 1235 50 1271 79 q 1145 3 1200 21 q 1013 -15 1090 -15 z "},"₩":{"ha":1515,"x_min":43,"x_max":1471,"o":"m 43 635 l 185 635 l 72 1014 l 158 1014 l 268 635 l 590 635 l 719 1014 l 794 1014 l 922 635 l 1250 635 l 1364 1014 l 1446 1014 l 1329 635 l 1471 635 l 1471 571 l 1310 571 l 1271 442 l 1471 442 l 1471 379 l 1251 379 l 1136 0 l 1056 0 l 928 379 l 582 379 l 454 0 l 372 0 l 260 379 l 43 379 l 43 442 l 242 442 l 203 571 l 43 571 l 43 635 m 604 442 l 907 442 l 863 571 l 647 571 l 604 442 m 988 442 l 1192 442 l 1231 571 l 943 571 l 988 442 m 324 442 l 525 442 l 569 571 l 286 571 l 324 442 m 669 635 l 842 635 l 756 889 l 669 635 m 1096 121 l 1174 379 l 1008 379 l 1096 121 m 417 124 l 504 379 l 342 379 l 417 124 z "},"₪":{"ha":932,"x_min":92,"x_max":840,"o":"m 92 1014 l 338 1014 q 550 940 482 1014 q 618 710 618 867 l 618 288 q 601 224 618 243 q 539 206 585 206 l 539 710 q 494 883 539 826 q 340 939 450 939 l 172 939 l 172 0 l 92 0 l 92 1014 m 314 797 q 376 778 358 797 q 394 714 394 758 l 394 75 l 565 75 q 715 131 669 75 q 760 304 760 188 l 760 1014 l 840 1014 l 840 304 q 771 74 840 147 q 563 0 701 0 l 314 0 l 314 797 z "},"€":{"ha":817,"x_min":43,"x_max":707,"o":"m 43 700 l 136 700 q 160 833 136 772 q 225 936 183 893 q 325 1003 267 979 q 453 1028 383 1028 q 591 1000 531 1028 q 692 925 651 972 l 636 875 q 454 954 574 954 q 280 885 342 954 q 217 700 218 817 l 610 700 l 599 635 l 217 635 l 217 379 l 557 379 l 546 314 l 217 314 l 217 310 q 278 126 217 192 q 451 60 339 60 q 644 147 585 60 l 707 96 q 602 15 667 43 q 453 -14 538 -14 q 219 73 301 -14 q 136 310 136 160 l 136 314 l 43 314 l 43 379 l 136 379 l 136 635 l 43 635 l 43 700 z "},"₮":{"ha":867,"x_min":76,"x_max":790,"o":"m 206 556 l 394 633 l 394 940 l 76 940 l 76 1014 l 790 1014 l 790 940 l 474 940 l 474 665 l 667 746 l 667 681 l 474 601 l 474 474 l 667 553 l 667 488 l 474 408 l 474 0 l 394 0 l 394 375 l 206 299 l 206 364 l 394 440 l 394 568 l 206 492 l 206 556 z "},"₱":{"ha":975,"x_min":43,"x_max":931,"o":"m 43 797 l 156 797 l 156 1014 l 461 1014 q 682 954 592 1014 q 808 797 772 894 l 931 797 l 931 735 l 826 735 q 831 703 829 719 q 832 669 832 686 q 831 637 832 653 q 826 606 829 621 l 931 606 l 931 542 l 808 542 q 682 383 772 443 q 461 324 592 324 l 235 324 l 235 0 l 156 0 l 156 542 l 43 542 l 43 606 l 156 606 l 156 735 l 43 735 l 43 797 m 751 669 q 744 735 751 700 l 235 735 l 235 606 l 744 606 q 751 669 751 638 m 235 940 l 235 797 l 721 797 q 620 901 688 863 q 457 940 553 940 l 235 940 m 457 399 q 620 438 553 399 q 721 542 688 476 l 235 542 l 235 399 l 457 399 z "},"℗":{"ha":1192,"x_min":75,"x_max":1117,"o":"m 596 -174 q 393 -133 488 -174 q 228 -21 299 -92 q 116 144 157 50 q 75 347 75 239 q 116 550 75 456 q 228 715 157 644 q 393 827 299 786 q 596 868 488 868 q 799 827 704 868 q 964 715 893 786 q 1076 550 1035 644 q 1117 347 1117 456 q 1076 144 1117 239 q 964 -21 1035 50 q 799 -133 893 -92 q 596 -174 704 -174 m 596 -103 q 771 -67 690 -103 q 911 29 851 -32 q 1005 172 971 90 q 1039 347 1039 254 q 1005 522 1039 440 q 911 665 971 604 q 771 762 851 726 q 596 797 690 797 q 422 762 503 797 q 281 665 340 726 q 187 522 221 604 q 153 347 153 440 q 187 172 153 254 q 281 29 221 90 q 422 -67 340 -32 q 596 -103 503 -103 m 425 615 l 640 615 q 716 601 682 615 q 774 564 750 588 q 813 508 799 540 q 826 438 826 475 q 815 366 826 400 q 779 306 803 332 q 722 264 756 279 q 643 249 688 249 l 500 249 l 500 86 l 425 86 l 425 615 m 500 550 l 500 317 l 632 317 q 719 353 686 317 q 751 438 751 389 q 717 518 751 486 q 632 550 683 550 l 500 550 z "},"℠":{"ha":907,"x_min":42,"x_max":829,"o":"m 386 1014 l 440 1014 l 607 793 l 778 1014 l 829 1014 l 829 611 l 768 611 l 768 913 l 607 707 l 444 913 l 444 611 l 386 611 l 386 1014 m 178 604 q 42 667 89 604 l 94 706 q 130 672 110 685 q 178 658 150 658 q 229 677 210 658 q 249 725 249 696 q 219 772 249 758 q 152 798 189 785 q 85 835 115 811 q 56 911 56 858 q 90 985 56 957 q 176 1014 125 1014 q 248 999 218 1014 q 299 960 278 985 l 244 925 q 175 960 221 960 q 129 945 146 960 q 113 910 113 931 q 143 867 113 879 q 210 840 174 854 q 278 803 247 826 q 308 725 308 779 q 273 640 308 675 q 178 604 238 604 z "},"™":{"ha":946,"x_min":51,"x_max":868,"o":"m 425 1014 l 481 1014 l 646 794 l 817 1014 l 868 1014 l 868 611 l 808 611 l 808 913 l 646 707 l 483 914 l 483 611 l 425 611 l 425 1014 m 183 960 l 51 960 l 51 1014 l 374 1014 l 374 960 l 243 960 l 243 611 l 183 611 l 183 960 z "},"⅓":{"ha":1143,"x_min":51,"x_max":1097,"o":"m 878 1014 l 972 1014 l 240 0 l 146 0 l 878 1014 m 904 -8 q 800 11 847 -8 q 719 71 753 31 l 781 118 q 904 58 825 58 q 991 88 957 58 q 1025 164 1025 117 q 989 242 1025 214 q 897 269 953 269 l 839 269 l 839 336 l 897 336 q 985 364 954 336 q 1015 436 1015 392 q 984 505 1015 479 q 901 531 953 531 q 832 513 861 531 q 786 469 803 496 l 725 504 q 796 569 750 543 q 901 594 842 594 q 1035 551 986 594 q 1085 436 1085 508 q 1064 358 1085 392 q 1006 304 1043 325 q 1072 249 1047 285 q 1097 164 1097 214 q 1047 40 1097 89 q 904 -8 996 -8 m 51 496 l 168 496 l 168 892 q 127 856 156 871 q 71 842 99 842 l 63 842 l 63 918 l 67 918 q 115 927 96 918 q 147 950 135 936 q 164 981 158 964 q 169 1014 169 999 l 240 1014 l 240 496 l 353 496 l 353 428 l 51 428 l 51 496 z "},"⅔":{"ha":1164,"x_min":47,"x_max":1118,"o":"m 911 1014 l 1006 1014 l 274 0 l 179 0 l 911 1014 m 54 497 q 69 563 54 533 q 107 619 83 593 q 160 667 131 644 q 218 710 189 689 q 269 745 244 728 q 312 781 293 763 q 342 819 331 799 q 353 861 353 839 q 322 931 353 903 q 239 958 292 958 q 161 933 193 958 q 110 868 129 908 l 47 900 q 122 989 74 956 q 239 1022 171 1022 q 376 976 326 1022 q 426 861 426 929 q 413 798 426 826 q 376 745 399 769 q 326 700 354 721 q 269 660 299 679 q 217 624 243 642 q 172 585 192 606 q 140 544 153 565 q 128 497 128 522 l 428 497 l 428 428 l 54 428 l 54 497 m 925 -8 q 821 11 868 -8 q 740 71 774 31 l 801 118 q 925 58 846 58 q 1012 88 978 58 q 1046 164 1046 117 q 1010 242 1046 214 q 918 269 974 269 l 860 269 l 860 336 l 918 336 q 1006 364 975 336 q 1036 436 1036 392 q 1005 505 1036 479 q 922 531 974 531 q 853 513 882 531 q 807 469 824 496 l 746 504 q 817 569 771 543 q 922 594 863 594 q 1056 551 1007 594 q 1106 436 1106 508 q 1085 358 1106 392 q 1026 304 1064 325 q 1093 249 1068 285 q 1118 164 1118 214 q 1067 40 1118 89 q 925 -8 1017 -8 z "},"⅕":{"ha":1161,"x_min":51,"x_max":1117,"o":"m 915 -8 q 794 23 844 -8 q 718 103 743 54 l 785 142 q 835 82 803 106 q 917 58 868 58 q 1006 94 969 58 q 1043 188 1043 129 q 1005 283 1043 250 q 915 317 967 317 q 838 294 869 317 q 788 236 807 272 l 722 265 l 765 586 l 1083 586 l 1083 518 l 824 518 l 799 335 q 850 368 819 354 q 921 382 881 382 q 995 369 960 382 q 1058 333 1031 357 q 1101 272 1085 308 q 1117 188 1117 236 q 1101 108 1117 144 q 1060 47 1086 72 q 997 6 1033 21 q 915 -8 960 -8 m 878 1014 l 972 1014 l 240 0 l 146 0 l 878 1014 m 51 496 l 168 496 l 168 892 q 127 856 156 871 q 71 842 99 842 l 63 842 l 63 918 l 67 918 q 115 927 96 918 q 147 950 135 936 q 164 981 158 964 q 169 1014 169 999 l 240 1014 l 240 496 l 353 496 l 353 428 l 51 428 l 51 496 z "},"⅖":{"ha":1182,"x_min":47,"x_max":1138,"o":"m 936 -8 q 815 23 865 -8 q 739 103 764 54 l 806 142 q 856 82 824 106 q 938 58 889 58 q 1027 94 990 58 q 1064 188 1064 129 q 1026 283 1064 250 q 936 317 988 317 q 859 294 890 317 q 808 236 828 272 l 743 265 l 786 586 l 1104 586 l 1104 518 l 844 518 l 819 335 q 871 368 840 354 q 942 382 901 382 q 1016 369 981 382 q 1078 333 1051 357 q 1122 272 1106 308 q 1138 188 1138 236 q 1122 108 1138 144 q 1081 47 1107 72 q 1017 6 1054 21 q 936 -8 981 -8 m 906 1014 l 1000 1014 l 268 0 l 174 0 l 906 1014 m 54 497 q 69 563 54 533 q 107 619 83 593 q 160 667 131 644 q 218 710 189 689 q 269 745 244 728 q 312 781 293 763 q 342 819 331 799 q 353 861 353 839 q 322 931 353 903 q 239 958 292 958 q 161 933 193 958 q 110 868 129 908 l 47 900 q 122 989 74 956 q 239 1022 171 1022 q 376 976 326 1022 q 426 861 426 929 q 413 798 426 826 q 376 745 399 769 q 326 700 354 721 q 269 660 299 679 q 217 624 243 642 q 172 585 192 606 q 140 544 153 565 q 128 497 128 522 l 428 497 l 428 428 l 54 428 l 54 497 z "},"⅗":{"ha":1204,"x_min":35,"x_max":1160,"o":"m 958 -8 q 837 23 888 -8 q 761 103 786 54 l 828 142 q 878 82 846 106 q 960 58 911 58 q 1049 94 1013 58 q 1086 188 1086 129 q 1048 283 1086 250 q 958 317 1010 317 q 881 294 913 317 q 831 236 850 272 l 765 265 l 808 586 l 1126 586 l 1126 518 l 867 518 l 842 335 q 893 368 863 354 q 964 382 924 382 q 1038 369 1003 382 q 1101 333 1074 357 q 1144 272 1128 308 q 1160 188 1160 236 q 1144 108 1160 144 q 1103 47 1129 72 q 1040 6 1076 21 q 958 -8 1003 -8 m 921 1014 l 1015 1014 l 283 0 l 189 0 l 921 1014 m 219 419 q 115 439 163 419 q 35 499 68 458 l 96 546 q 219 486 140 486 q 306 515 272 486 q 340 592 340 544 q 304 669 340 642 q 213 697 268 697 l 154 697 l 154 764 l 213 764 q 300 792 269 764 q 331 864 331 819 q 299 933 331 907 q 217 958 268 958 q 147 941 176 958 q 101 897 118 924 l 40 932 q 111 997 65 971 q 217 1022 157 1022 q 351 979 301 1022 q 400 864 400 936 q 379 786 400 819 q 321 732 358 753 q 388 677 363 713 q 413 592 413 642 q 362 468 413 517 q 219 419 311 419 z "},"⅘":{"ha":1181,"x_min":47,"x_max":1136,"o":"m 318 563 l 47 563 l 47 629 l 315 1014 l 390 1014 l 390 629 l 475 629 l 475 563 l 390 563 l 390 428 l 318 428 l 318 563 m 935 -8 q 813 23 864 -8 q 738 103 763 54 l 804 142 q 855 82 822 106 q 936 58 888 58 q 1026 94 989 58 q 1063 188 1063 129 q 1024 283 1063 250 q 935 317 986 317 q 858 294 889 317 q 807 236 826 272 l 742 265 l 785 586 l 1103 586 l 1103 518 l 843 518 l 818 335 q 869 368 839 354 q 940 382 900 382 q 1015 369 979 382 q 1077 333 1050 357 q 1120 272 1104 308 q 1136 188 1136 236 q 1121 108 1136 144 q 1079 47 1106 72 q 1016 6 1053 21 q 935 -8 979 -8 m 897 1014 l 992 1014 l 260 0 l 165 0 l 897 1014 m 318 629 l 318 901 l 126 629 l 318 629 z "},"⅙":{"ha":1093,"x_min":51,"x_max":1043,"o":"m 838 -8 q 755 8 793 -8 q 689 51 717 24 q 646 115 661 78 q 631 193 631 151 q 642 271 631 233 q 675 338 654 308 l 843 586 l 928 586 l 790 385 q 850 396 821 396 q 926 381 890 396 q 987 338 961 365 q 1028 274 1013 311 q 1043 194 1043 238 q 1027 114 1043 151 q 983 49 1011 76 q 918 7 956 22 q 838 -8 881 -8 m 878 1014 l 972 1014 l 240 0 l 146 0 l 878 1014 m 51 496 l 168 496 l 168 892 q 127 856 156 871 q 71 842 99 842 l 63 842 l 63 918 l 67 918 q 115 927 96 918 q 147 950 135 936 q 164 981 158 964 q 169 1014 169 999 l 240 1014 l 240 496 l 353 496 l 353 428 l 51 428 l 51 496 m 836 58 q 888 69 864 58 q 931 98 913 79 q 961 142 950 117 q 972 196 972 167 q 961 249 972 224 q 931 292 950 274 q 888 322 913 311 q 836 332 864 332 q 740 292 779 332 q 700 194 700 253 q 740 97 700 136 q 836 58 779 58 z "},"⅚":{"ha":1143,"x_min":49,"x_max":1094,"o":"m 889 -8 q 806 8 844 -8 q 740 51 768 24 q 697 115 713 78 q 682 193 682 151 q 694 271 682 233 q 726 338 706 308 l 894 586 l 979 586 l 842 385 q 901 396 872 396 q 977 381 942 396 q 1038 338 1013 365 q 1079 274 1064 311 q 1094 194 1094 238 q 1078 114 1094 151 q 1035 49 1063 76 q 969 7 1007 22 q 889 -8 932 -8 m 246 419 q 124 451 175 419 q 49 531 74 482 l 115 569 q 166 510 133 533 q 247 486 199 486 q 337 522 300 486 q 374 615 374 557 q 335 711 374 678 q 246 744 297 744 q 169 722 200 744 q 118 664 138 700 l 53 693 l 96 1014 l 414 1014 l 414 946 l 154 946 l 129 763 q 181 796 150 782 q 251 810 211 810 q 326 797 290 810 q 388 760 361 785 q 431 700 415 736 q 447 615 447 664 q 432 536 447 572 q 390 474 417 500 q 327 434 364 449 q 246 419 290 419 m 929 1014 l 1024 1014 l 292 0 l 197 0 l 929 1014 m 888 58 q 940 69 915 58 q 983 98 964 79 q 1013 142 1001 117 q 1024 196 1024 167 q 1013 249 1024 224 q 983 292 1001 274 q 940 322 964 311 q 888 332 915 332 q 791 292 831 332 q 751 194 751 253 q 791 97 751 136 q 888 58 831 58 z "},"⅛":{"ha":1165,"x_min":51,"x_max":1111,"o":"m 925 -8 q 847 6 882 -8 q 788 44 813 19 q 751 100 764 68 q 739 167 739 132 q 764 253 739 215 q 829 313 789 292 q 779 363 797 332 q 761 436 761 393 q 773 497 761 468 q 806 548 785 526 q 858 582 828 569 q 925 594 888 594 q 992 582 961 594 q 1044 548 1022 569 q 1078 497 1067 526 q 1090 436 1090 468 q 1071 363 1090 393 q 1019 314 1051 333 q 1086 256 1061 294 q 1111 167 1111 218 q 1099 100 1111 132 q 1063 44 1086 68 q 1004 6 1039 19 q 925 -8 969 -8 m 876 1014 l 971 1014 l 239 0 l 144 0 l 876 1014 m 51 496 l 168 496 l 168 892 q 127 856 156 871 q 71 842 99 842 l 63 842 l 63 918 l 67 918 q 115 927 96 918 q 147 950 135 936 q 164 981 158 964 q 169 1014 169 999 l 240 1014 l 240 496 l 353 496 l 353 428 l 51 428 l 51 496 m 925 58 q 1008 90 978 58 q 1039 167 1039 122 q 1009 244 1039 211 q 925 278 979 278 q 842 244 872 278 q 811 167 811 211 q 842 90 811 122 q 925 58 872 58 m 925 346 q 992 372 967 346 q 1018 436 1018 397 q 993 501 1018 474 q 925 528 968 528 q 859 501 883 528 q 835 436 835 474 q 859 372 835 397 q 925 346 883 346 z "},"⅜":{"ha":1208,"x_min":35,"x_max":1156,"o":"m 969 -8 q 892 6 926 -8 q 833 44 857 19 q 796 100 808 68 q 783 167 783 132 q 808 253 783 215 q 874 313 833 292 q 824 363 842 332 q 806 436 806 393 q 817 497 806 468 q 851 548 829 526 q 902 582 872 569 q 969 594 932 594 q 1036 582 1006 594 q 1089 548 1067 569 q 1123 497 1111 526 q 1135 436 1135 468 q 1115 363 1135 393 q 1064 314 1096 333 q 1131 256 1106 294 q 1156 167 1156 218 q 1143 100 1156 132 q 1107 44 1131 68 q 1049 6 1083 19 q 969 -8 1014 -8 m 921 1014 l 1015 1014 l 283 0 l 189 0 l 921 1014 m 219 419 q 115 439 163 419 q 35 499 68 458 l 96 546 q 219 486 140 486 q 306 515 272 486 q 340 592 340 544 q 304 669 340 642 q 213 697 268 697 l 154 697 l 154 764 l 213 764 q 300 792 269 764 q 331 864 331 819 q 299 933 331 907 q 217 958 268 958 q 147 941 176 958 q 101 897 118 924 l 40 932 q 111 997 65 971 q 217 1022 157 1022 q 351 979 301 1022 q 400 864 400 936 q 379 786 400 819 q 321 732 358 753 q 388 677 363 713 q 413 592 413 642 q 362 468 413 517 q 219 419 311 419 m 969 58 q 1053 90 1022 58 q 1083 167 1083 122 q 1053 244 1083 211 q 969 278 1024 278 q 886 244 917 278 q 856 167 856 211 q 886 90 856 122 q 969 58 917 58 m 969 346 q 1037 372 1011 346 q 1063 436 1063 397 q 1038 501 1063 474 q 969 528 1013 528 q 903 501 928 528 q 879 436 879 474 q 903 372 879 397 q 969 346 928 346 z "}}}
